<?xml version="1.0" encoding="utf-8"?>
<!-- Generator: Adobe Illustrator 22.0.1, SVG Export Plug-In . SVG Version: 6.00 Build 0)  -->
<svg version="1.1" id="Layer_1" xmlns="http://www.w3.org/2000/svg" xmlns:xlink="http://www.w3.org/1999/xlink" x="0px" y="0px"
	 viewBox="0 0 104.6 108.2" style="enable-background:new 0 0 104.6 108.2;" xml:space="preserve">
<style type="text/css">
	.st0{fill:#FFFFFF;}
	.st1{fill:#FFCC30;}
	.st2{fill-rule:evenodd;clip-rule:evenodd;fill:#231F20;}
	.st3{fill:#FFCC31;}
	.st4{fill:#231F20;}
	.st5{fill:#ECB32C;}
	.st6{fill:#78D0FF;}
	.st7{fill:#1C1D1A;}
	.st8{fill:#FF3529;}
	.st9{fill:#36C000;}
	.st10{fill:#FF5C29;}
	.st11{fill-rule:evenodd;clip-rule:evenodd;fill:#EA638D;}
	.st12{fill:#F8C80F;}
	.st13{fill:#010101;}
	.st14{clip-path:url(#SVGID_3_);}
	.st15{clip-path:url(#SVGID_4_);}
	.st16{fill:#FFB900;}
	.st17{fill:#B96D00;}
	.st18{fill:#FF7B00;}
	.st19{fill:#CBCBCB;}
	.st20{fill:#FF506F;}
	.st21{fill:#87F0FF;}
	.st22{fill:#020202;}
	.st23{clip-path:url(#SVGID_6_);}
	.st24{clip-path:url(#SVGID_8_);}
	.st25{clip-path:url(#SVGID_11_);}
	.st26{clip-path:url(#SVGID_12_);}
	.st27{clip-path:url(#SVGID_14_);}
	.st28{clip-path:url(#SVGID_16_);}
	.st29{clip-path:url(#SVGID_19_);}
	.st30{clip-path:url(#SVGID_20_);}
	.st31{clip-path:url(#SVGID_22_);}
	.st32{clip-path:url(#SVGID_24_);}
</style>
<g>
	<g>
		<g>
			<g>
				<circle class="st0" cx="52" cy="56.9" r="48"/>
				<path class="st1" d="M52,106.9c-27.6,0-50-22.4-50-50s22.4-50,50-50c27.6,0,50,22.4,50,50S79.5,106.9,52,106.9z M52,11
					C26.6,11,6,31.6,6,56.9s20.6,45.9,45.9,45.9c25.3,0,45.9-20.6,45.9-45.9S77.3,11,52,11z"/>
			</g>
			<g>
				<g>
					<path class="st3" d="M50.2,104.9c5-7.8,8.8-17.8,9.8-30.4"/>
				</g>
				<g>
					<path class="st3" d="M60,74.5c0,0,6.7-37-24.6-61.5c-3.2-0.3-5.4-1.1-6.9-1.9c-2.8,1.8-4,3.6-4.5,4.9
						c18.7,25.1,9.6,57.2-1.3,79.7c0,0,11.7,10.2,30.6,10.2"/>
				</g>
			</g>
			<g>
				<g>
					<path class="st4" d="M35.5,100.5C35.5,100.5,35.6,100.5,35.5,100.5c1.9-2.6,3.8-5.3,5.6-8.2c0.9-1.4,1.8-3,2.6-4.5
						c0.8-1.6,1.6-3.1,2.4-4.8c1.5-3.2,2.8-6.7,3.8-10.2c1-3.5,1.7-7.1,2-10.6c0.3-3.6,0.2-7.1-0.3-10.5c-0.5-3.4-1.3-6.6-2.3-9.5
						c-0.3-0.7-0.5-1.5-0.8-2.2c-0.3-0.7-0.6-1.4-0.9-2.1c-0.3-0.7-0.6-1.3-1-1.9c-0.3-0.6-0.7-1.2-1-1.8c-1.3-2.4-2.7-4.5-4-6.3
						c-0.3-0.4-0.6-0.9-1-1.3c-0.3-0.4-0.6-0.8-0.9-1.2c-0.3-0.4-0.6-0.7-0.9-1.1c-0.3-0.3-0.6-0.7-0.8-1c-0.5-0.6-1-1.1-1.4-1.6
						c-0.4-0.5-0.8-0.8-1.1-1.2c-0.6-0.6-0.9-1-0.9-1s0.3,0.3,0.9,0.9c0.3,0.3,0.7,0.7,1.1,1.1c0.4,0.4,0.9,1,1.5,1.6
						c0.3,0.3,0.6,0.6,0.9,0.9c0.3,0.3,0.6,0.7,0.9,1.1c0.3,0.4,0.6,0.7,1,1.1c0.3,0.4,0.7,0.8,1,1.3c0.7,0.9,1.4,1.8,2.1,2.9
						c0.4,0.5,0.7,1.1,1.1,1.6c0.2,0.3,0.4,0.6,0.5,0.8c0.2,0.3,0.3,0.6,0.5,0.9c0.3,0.6,0.7,1.2,1,1.8c0.3,0.6,0.7,1.3,1,2
						c0.3,0.7,0.6,1.4,0.9,2.1c0.3,0.7,0.6,1.4,0.9,2.2c1.1,3,2,6.2,2.5,9.7c0.5,3.4,0.7,7,0.4,10.7c-0.3,3.6-0.9,7.3-2,10.9
						c-1,3.6-2.3,7-3.9,10.3c-1.5,3.3-3.3,6.4-5.1,9.3c-1.8,2.9-3.8,5.6-5.7,8.1"/>
				</g>
			</g>
			<g>
				<g>
					<path class="st4" d="M28.5,11C26.7,10,26,9,26,9C18.7-1.2,15.4,1.6,15.4,1.6c-3.9,3.8,3.4,8.3,3.4,8.3c2,2,3.7,4,5.3,6.1
						C24.5,14.7,25.7,12.8,28.5,11"/>
				</g>
			</g>
			<g>
				<g>
					<path class="st5" d="M60,74.5c-1,12.4-4.1,20.8-9,28.5h6.5c12.9-20,11.4-40,11.4-40c-0.4-38.2-33.5-50-33.5-50
						C66.6,37.5,60,74.5,60,74.5z"/>
				</g>
			</g>
		</g>
	</g>
	<g>
		<g>
			<path class="st2" d="M29.5,79.4c0,0-7.4,3.8,0.9,7s15.8-0.2,15.8-0.2s-1.7-1.4-1-2.2c0.7-0.8,1.7,1.4,1.7,1.4s0.7-2.2,1.4-1.9
				c0.7,0.3-0.7,2-0.7,2s2.1-1.4,2.3-0.7c0.2,0.7-1.8,1.1-1.8,1.1s1.9,0.1,1.8,0.9c-0.1,0.8-1.7,0.2-1.8,0.1
				C48,86.7,48,86.7,48,86.7s0.7,1.7-0.1,1.9c-0.8,0.2-0.8-1.4-0.8-1.4s-7.2,4.2-16.3,2.3c-17.5-3.8-0.2-13.3-0.2-13.3L29.5,79.4z"
				/>
		</g>
	</g>
	<g>
		<g>
			<path class="st2" d="M63.8,90.7c0,0,1.4,8.5-6.4,4.1c-7.7-4.3-10-12.3-10-12.3s2.1,0.4,2.3-0.7c0.2-1.1-2.1-0.4-2.1-0.4
				s1.2-1.9,0.5-2.3c-0.7-0.4-1.1,1.8-1.1,1.8s-0.2-2.5-0.9-2.2c-0.7,0.3,0.3,2,0.3,2s-1.3-1.4-1.9-0.8c-0.5,0.6,0.9,1.4,1.1,1.5
				c0.2,0,0.2,0.1,0.2,0.1s-1.7,0.5-1.4,1.3c0.4,0.7,1.6-0.3,1.6-0.3s1.3,8.2,8.8,14c14.2,11,9.9-8.6,9.9-8.6L63.8,90.7z"/>
		</g>
	</g>
	<g>
		<g>
			<g>
				<path class="st4" d="M52.2,44.3c-4.1-3.7-8.3-0.6-8.5-0.4l-0.6-0.8c0.1,0,5.1-3.8,9.8,0.5L52.2,44.3z"/>
			</g>
		</g>
		<g>
			<g>
				<path class="st4" d="M72.2,40.4c-0.3,0-0.5-0.2-0.5-0.5c0-0.5-0.4-0.9-1-0.9h-4.6c-0.3,0-0.5-0.2-0.5-0.5s0.2-0.5,0.5-0.5h4.6
					c1.1,0,2,0.9,2,2C72.7,40.1,72.5,40.4,72.2,40.4z"/>
			</g>
		</g>
		<g>
			<g>
				<g>
					<path class="st0" d="M36.6,56.2c0,5.2,4.2,9.4,9.4,9.4c5.2,0,9.4-4.2,9.4-9.4H36.6z"/>
				</g>
			</g>
			<g>
				<g>
					<path class="st10" d="M46,60.1c-2.7,0-5.1,1-6.6,2.6c1.5,1.6,3.9,2.6,6.6,2.6c2.7,0,5.1-1,6.6-2.6C51.1,61.1,48.7,60.1,46,60.1
						z"/>
				</g>
			</g>
			<g>
				<g>
					<path d="M46.3,65.9c-5.5,0-9.9-4.4-9.9-9.9v-0.5h19.8V56C56.2,61.5,51.7,65.9,46.3,65.9z M37.4,56.6c0.3,4.7,4.1,8.4,8.9,8.4
						s8.6-3.7,8.9-8.4H37.4z"/>
				</g>
			</g>
			<g>
				<g>
					<path class="st0" d="M41.5,56.2v1.6c0,0.7,0.6,1.3,1.3,1.3h1c0.7,0,1.3-0.6,1.3-1.3v-1.6H41.5z"/>
				</g>
				<g>
					<path d="M43.7,59.6h-1c-1,0-1.8-0.8-1.8-1.8v-2.1h4.6v2.1C45.6,58.8,44.7,59.6,43.7,59.6z M42,56.7v1.1c0,0.4,0.4,0.8,0.8,0.8
						h1c0.4,0,0.8-0.4,0.8-0.8v-1.1H42z"/>
				</g>
			</g>
			<g>
				<g>
					<path class="st0" d="M45.1,56.2v1.9c0,0.5,0.4,1,1,1h1.6c0.5,0,1-0.4,1-1v-1.9H45.1z"/>
				</g>
				<g>
					<path d="M47.7,59.6h-1.6c-0.8,0-1.5-0.7-1.5-1.5v-2.4h4.6v2.4C49.2,58.9,48.6,59.6,47.7,59.6z M45.6,56.7v1.4
						c0,0.3,0.2,0.5,0.5,0.5h1.6c0.3,0,0.5-0.2,0.5-0.5v-1.4H45.6z"/>
				</g>
			</g>
		</g>
		<g>
			<g>
				<path d="M33.5,33.8c-0.2,0-0.4-0.1-0.4-0.3c-0.1-0.2,0-0.6,0.2-0.7l7.8-4c0.2-0.1,0.6,0,0.7,0.2c0.1,0.2,0,0.6-0.2,0.7l-7.8,4
					C33.7,33.8,33.6,33.8,33.5,33.8z"/>
			</g>
		</g>
		<g>
			<g>
				<path d="M59.2,33.8c-0.1,0-0.2,0-0.2-0.1l-7.8-4c-0.2-0.1-0.3-0.4-0.2-0.7c0.1-0.2,0.4-0.3,0.7-0.2l7.8,4
					c0.2,0.1,0.3,0.4,0.2,0.7C59.6,33.7,59.4,33.8,59.2,33.8z"/>
			</g>
		</g>
		<g>
			<g>
				<path class="st0" d="M35.9,50.7c-4.1,0-7.5-3.4-7.5-7.5c0-4.1,3.4-7.5,7.5-7.5s7.5,3.4,7.5,7.5C43.4,47.4,40.1,50.7,35.9,50.7"
					/>
			</g>
		</g>
		<g>
			<g>
				<path class="st4" d="M35.9,36.3c3.8,0,6.9,3.1,6.9,6.9c0,3.8-3.1,6.9-6.9,6.9c-3.8,0-6.9-3.1-6.9-6.9
					C29,39.4,32.1,36.3,35.9,36.3 M35.9,35.2c-4.5,0-8.1,3.6-8.1,8.1c0,4.5,3.6,8.1,8.1,8.1c4.5,0,8.1-3.6,8.1-8.1
					C44,38.8,40.4,35.2,35.9,35.2"/>
			</g>
		</g>
		<g>
			<g>
				<path class="st7" d="M37.3,43.2c0,0.7-0.6,1.4-1.4,1.4c-0.7,0-1.4-0.6-1.4-1.4c0-0.7,0.6-1.4,1.4-1.4
					C36.7,41.9,37.3,42.5,37.3,43.2"/>
			</g>
		</g>
		<g>
			<g>
				<path class="st0" d="M60.2,50.7c-4.1,0-7.5-3.4-7.5-7.5c0-4.1,3.4-7.5,7.5-7.5c4.1,0,7.5,3.4,7.5,7.5
					C67.7,47.4,64.3,50.7,60.2,50.7"/>
			</g>
		</g>
		<g>
			<g>
				<path class="st4" d="M60.2,36.3c3.8,0,6.9,3.1,6.9,6.9c0,3.8-3.1,6.9-6.9,6.9c-3.8,0-6.9-3.1-6.9-6.9
					C53.3,39.4,56.4,36.3,60.2,36.3 M60.2,35.2c-4.5,0-8.1,3.6-8.1,8.1c0,4.5,3.6,8.1,8.1,8.1s8.1-3.6,8.1-8.1
					C68.3,38.8,64.7,35.2,60.2,35.2"/>
			</g>
		</g>
		<g>
			<g>
				<path class="st7" d="M61.6,43.2c0,0.7-0.6,1.4-1.4,1.4c-0.7,0-1.4-0.6-1.4-1.4c0-0.7,0.6-1.4,1.4-1.4
					C60.9,41.9,61.6,42.5,61.6,43.2"/>
			</g>
		</g>
	</g>
</g>
</svg>
