<?xml version="1.0" encoding="utf-8"?>
<!-- Generator: Adobe Illustrator 22.0.1, SVG Export Plug-In . SVG Version: 6.00 Build 0)  -->
<svg version="1.1" id="Layer_1" xmlns="http://www.w3.org/2000/svg" xmlns:xlink="http://www.w3.org/1999/xlink" x="0px" y="0px"
	 viewBox="0 0 104.6 108.2" style="enable-background:new 0 0 104.6 108.2;" xml:space="preserve">
<style type="text/css">
	.st0{fill:#FFFFFF;}
	.st1{fill:#FFCC30;}
	.st2{fill-rule:evenodd;clip-rule:evenodd;fill:#231F20;}
	.st3{fill:#FFCC31;}
	.st4{fill:#231F20;}
	.st5{fill:#ECB32C;}
	.st6{fill:#78D0FF;}
	.st7{fill:#1C1D1A;}
	.st8{fill:#FF3529;}
	.st9{fill:#36C000;}
	.st10{fill:#FF5C29;}
	.st11{fill-rule:evenodd;clip-rule:evenodd;fill:#EA638D;}
	.st12{fill:#F8C80F;}
	.st13{fill:#010101;}
	.st14{clip-path:url(#SVGID_3_);}
	.st15{clip-path:url(#SVGID_4_);}
	.st16{fill:#FFB900;}
	.st17{fill:#B96D00;}
	.st18{fill:#FF7B00;}
	.st19{fill:#CBCBCB;}
	.st20{fill:#FF506F;}
	.st21{fill:#87F0FF;}
	.st22{fill:#020202;}
	.st23{clip-path:url(#SVGID_6_);}
	.st24{clip-path:url(#SVGID_8_);}
	.st25{clip-path:url(#SVGID_11_);}
	.st26{clip-path:url(#SVGID_12_);}
	.st27{clip-path:url(#SVGID_14_);}
	.st28{clip-path:url(#SVGID_16_);}
	.st29{clip-path:url(#SVGID_19_);}
	.st30{clip-path:url(#SVGID_20_);}
	.st31{clip-path:url(#SVGID_22_);}
	.st32{clip-path:url(#SVGID_24_);}
</style>
<g>
	<g>
		<circle class="st0" cx="52.4" cy="56.9" r="48"/>
		<path class="st1" d="M52.4,106.9c-27.6,0-50-22.4-50-50s22.4-50,50-50c27.6,0,50,22.4,50,50S80,106.9,52.4,106.9z M52.4,11
			C27.1,11,6.4,31.6,6.4,56.9s20.6,45.9,45.9,45.9c25.3,0,45.9-20.6,45.9-45.9S77.7,11,52.4,11z"/>
	</g>
	<g>
		<path class="st2" d="M68.2,54.2l8.2,35.7c0,0,2.7,0.9,2.7,1.6c-0.1,0.6-2.6,0.2-2.6,0.2s0.3,2.9-0.2,3.3c-0.5,0.5-1.3-3-1.3-3
			s-0.3,3-1.2,3c-0.9,0,0.1-3.2,0.1-3.2S71.4,93,71,92.4c-0.4-0.6,2-1.8,2-1.8s-1.6,0.5-2.2-0.3c-0.6-0.8,3-0.8,3-0.8l-9-32.1
			L68.2,54.2z"/>
	</g>
	<g>
		<path class="st2" d="M37.6,53.5L20.3,77.9c0,0-2.9-0.2-3.1,0.4c-0.2,0.6,2.3,1.2,2.3,1.2s-1.3,2.5-1.1,3.1
			c0.3,0.6,2.3-2.3,2.3-2.3s-0.9,2.9,0,3.2c0.9,0.3,1.1-3,1.1-3s1.8,2,2.4,1.6c0.6-0.4-1.1-2.5-1.1-2.5s1.3,1.1,2.2,0.6
			c0.9-0.5-2.5-1.9-2.5-1.9L41.1,55C40,54.5,38.8,54,37.6,53.5"/>
	</g>
	<g>
		<g>
			<path class="st3" d="M50.6,104.9c5-7.8,8.8-17.8,9.8-30.4"/>
		</g>
		<g>
			<path class="st3" d="M60.4,74.5c0,0,6.7-37-24.6-61.5c-3.2-0.3-5.4-1.1-6.9-1.9c-2.8,1.8-4,3.6-4.5,4.9
				c18.7,25.1,9.6,57.2-1.3,79.7c0,0,11.7,10.2,30.6,10.2"/>
		</g>
	</g>
	<g>
		<g>
			<path class="st4" d="M35.9,100.5C35.9,100.5,36,100.5,35.9,100.5c1.9-2.6,3.8-5.3,5.6-8.2c0.9-1.4,1.8-3,2.6-4.5
				c0.8-1.6,1.6-3.1,2.4-4.8c1.5-3.2,2.8-6.7,3.8-10.2c1-3.5,1.7-7.1,2-10.6c0.3-3.6,0.2-7.1-0.3-10.5c-0.5-3.4-1.3-6.6-2.3-9.5
				c-0.3-0.7-0.5-1.5-0.8-2.2c-0.3-0.7-0.6-1.4-0.9-2.1c-0.3-0.7-0.6-1.3-1-1.9c-0.3-0.6-0.7-1.2-1-1.8c-1.3-2.4-2.7-4.5-4-6.3
				c-0.3-0.4-0.6-0.9-1-1.3c-0.3-0.4-0.6-0.8-0.9-1.2c-0.3-0.4-0.6-0.7-0.9-1.1c-0.3-0.3-0.6-0.7-0.8-1c-0.5-0.6-1-1.1-1.4-1.6
				c-0.4-0.5-0.8-0.8-1.1-1.2c-0.6-0.6-0.9-1-0.9-1s0.3,0.3,0.9,0.9c0.3,0.3,0.7,0.7,1.1,1.1c0.4,0.4,0.9,1,1.5,1.6
				c0.3,0.3,0.6,0.6,0.9,0.9c0.3,0.3,0.6,0.7,0.9,1.1c0.3,0.4,0.6,0.7,1,1.1c0.3,0.4,0.7,0.8,1,1.3c0.7,0.9,1.4,1.8,2.1,2.9
				c0.4,0.5,0.7,1.1,1.1,1.6c0.2,0.3,0.4,0.6,0.5,0.8c0.2,0.3,0.3,0.6,0.5,0.9c0.3,0.6,0.7,1.2,1,1.8c0.3,0.6,0.7,1.3,1,2
				c0.3,0.7,0.6,1.4,0.9,2.1c0.3,0.7,0.6,1.4,0.9,2.2c1.1,3,2,6.2,2.5,9.7c0.5,3.4,0.7,7,0.4,10.7c-0.3,3.6-0.9,7.3-2,10.9
				c-1,3.6-2.3,7-3.9,10.3c-1.5,3.3-3.3,6.4-5.1,9.3c-1.8,2.9-3.8,5.6-5.7,8.1"/>
		</g>
	</g>
	<g>
		<g>
			<path class="st4" d="M28.9,11C27.1,10,26.4,9,26.4,9C19.1-1.2,15.8,1.6,15.8,1.6c-3.9,3.8,3.4,8.3,3.4,8.3c2,2,3.7,4,5.3,6.1
				C25,14.7,26.1,12.8,28.9,11"/>
		</g>
	</g>
	<g>
		<g>
			<path class="st5" d="M60.4,74.5c-1,12.4-4.1,20.8-9,28.5h6.5c12.9-20,11.4-40,11.4-40c-0.4-38.2-33.5-50-33.5-50
				C67,37.5,60.4,74.5,60.4,74.5z"/>
		</g>
	</g>
	<g>
		<path class="st10" d="M47.4,69.7v3.6c0,1.6-1.3,2.9-2.9,2.9h0c-1.6,0-2.9-1.3-2.9-2.9v-3.6c0-0.3,0.2-0.5,0.5-0.5h4.7
			C47.2,69.2,47.4,69.4,47.4,69.7z"/>
	</g>
	<g>
		<path class="st13" d="M45,76.7h-1.1c-1.6,0-2.9-1.3-2.9-2.9v-5.2h6.8v5.2C47.9,75.4,46.6,76.7,45,76.7 M42.1,69.7v4.2
			c0,1,0.8,1.9,1.9,1.9H45c1,0,1.9-0.8,1.9-1.9v-4.2H42.1z"/>
	</g>
	<g>
		<path class="st7" d="M46.9,52.7c-0.1,0-0.3-0.1-0.4-0.2L39,45c-0.2-0.2-0.2-0.6,0-0.8c0.2-0.2,0.6-0.2,0.8,0l7.5,7.5
			c0.2,0.2,0.2,0.6,0,0.8C47.2,52.7,47.1,52.7,46.9,52.7"/>
	</g>
	<g>
		<path class="st7" d="M39.4,52.7c-0.1,0-0.3-0.1-0.4-0.2c-0.2-0.2-0.2-0.6,0-0.8l7.5-7.5c0.2-0.2,0.6-0.2,0.8,0
			c0.2,0.2,0.2,0.6,0,0.8l-7.5,7.5C39.7,52.7,39.5,52.7,39.4,52.7"/>
	</g>
	<g>
		<path class="st7" d="M56.3,52.9c-0.1,0-0.3-0.1-0.4-0.2c-0.2-0.2-0.2-0.6,0-0.8l7.5-7.5c0.2-0.2,0.6-0.2,0.8,0
			c0.2,0.2,0.2,0.6,0,0.8l-7.5,7.5C56.6,52.8,56.5,52.9,56.3,52.9"/>
	</g>
	<g>
		<path class="st7" d="M63.9,52.7c-0.1,0-0.3-0.1-0.4-0.2L55.9,45c-0.2-0.2-0.2-0.6,0-0.8c0.2-0.2,0.6-0.2,0.8,0l7.5,7.5
			c0.2,0.2,0.2,0.6,0,0.8C64.2,52.7,64,52.7,63.9,52.7"/>
	</g>
	<g>
		<path class="st7" d="M63.6,69.8H36.4c-0.3,0-0.6-0.3-0.6-0.6c0-0.3,0.3-0.6,0.6-0.6h27.2c0.3,0,0.6,0.3,0.6,0.6
			C64.2,69.6,63.9,69.8,63.6,69.8"/>
	</g>
</g>
</svg>
