<?xml version="1.0" encoding="utf-8"?>
<!-- Generator: Adobe Illustrator 22.0.1, SVG Export Plug-In . SVG Version: 6.00 Build 0)  -->
<svg version="1.1" id="Layer_1" xmlns="http://www.w3.org/2000/svg" xmlns:xlink="http://www.w3.org/1999/xlink" x="0px" y="0px"
	 viewBox="0 0 104.6 108.2" style="enable-background:new 0 0 104.6 108.2;" xml:space="preserve">
<style type="text/css">
	.st0{fill:#FFFFFF;}
	.st1{fill:#FFCC30;}
	.st2{fill-rule:evenodd;clip-rule:evenodd;fill:#231F20;}
	.st3{fill:#FFCC31;}
	.st4{fill:#231F20;}
	.st5{fill:#ECB32C;}
	.st6{fill:#78D0FF;}
	.st7{fill:#1C1D1A;}
	.st8{fill:#FF3529;}
	.st9{fill:#36C000;}
	.st10{fill:#FF5C29;}
	.st11{fill-rule:evenodd;clip-rule:evenodd;fill:#EA638D;}
	.st12{fill:#F8C80F;}
	.st13{fill:#010101;}
	.st14{clip-path:url(#SVGID_3_);}
	.st15{clip-path:url(#SVGID_4_);}
	.st16{fill:#FFB900;}
	.st17{fill:#B96D00;}
	.st18{fill:#FF7B00;}
	.st19{fill:#CBCBCB;}
	.st20{fill:#FF506F;}
	.st21{fill:#87F0FF;}
	.st22{fill:#020202;}
	.st23{clip-path:url(#SVGID_6_);}
	.st24{clip-path:url(#SVGID_8_);}
	.st25{clip-path:url(#SVGID_11_);}
	.st26{clip-path:url(#SVGID_12_);}
	.st27{clip-path:url(#SVGID_14_);}
	.st28{clip-path:url(#SVGID_16_);}
	.st29{clip-path:url(#SVGID_19_);}
	.st30{clip-path:url(#SVGID_20_);}
	.st31{clip-path:url(#SVGID_22_);}
	.st32{clip-path:url(#SVGID_24_);}
</style>
<g>
	<g>
		<g>
			<circle class="st0" cx="52" cy="56.9" r="48"/>
			<path class="st1" d="M52,106.9c-27.6,0-50-22.4-50-50c0-27.6,22.4-50,50-50c27.6,0,50,22.4,50,50C102.1,84.5,79.6,106.9,52,106.9
				z M52,11C26.7,11,6.1,31.6,6.1,56.9c0,25.3,20.6,45.9,45.9,45.9c25.3,0,45.9-20.6,45.9-45.9C98,31.6,77.4,11,52,11z"/>
		</g>
		<g>
			<g>
				<path class="st2" d="M61.4,73.9L87.7,44c0,0-0.9-3-0.3-3.3c0.6-0.4,1.8,2.1,1.8,2.1s2.3-2.1,3.1-1.9c0.7,0.1-1.8,3-1.8,3
					s2.8-1.7,3.4-0.8C94.4,43.9,91,45,91,45s2.5,1.4,2.2,2.1c-0.3,0.7-2.9-0.6-2.9-0.6s1.4,1.1,1.1,2.2s-2.6-2.2-2.6-2.2L66.3,74.9
					L61.4,73.9z"/>
			</g>
		</g>
		<g>
			<g>
				<path class="st2" d="M35.2,73.3L21.5,43.9c0,0,1.7-2.6,1.2-3.1c-0.5-0.5-2.4,1.5-2.4,1.5s-1.7-2.6-2.4-2.7
					c-0.7-0.1,0.9,3.4,0.9,3.4s-2.3-2.4-3.1-1.7C15,41.9,18,43.9,18,43.9s-2.8,0.6-2.7,1.4c0.1,0.8,3,0.3,3,0.3s-1.7,0.7-1.7,1.7
					c0,1.1,3.1-1.3,3.1-1.3l12.2,29.9C32.9,75.1,34.1,74.2,35.2,73.3"/>
			</g>
		</g>
		<g>
			<g>
				<path class="st3" d="M50.3,104.9c5-7.8,8.8-17.8,9.8-30.4"/>
			</g>
			<g>
				<path class="st3" d="M60,74.5c0,0,6.7-37-24.6-61.5c-3.2-0.3-5.4-1.1-6.9-1.9c-2.8,1.8-4,3.6-4.5,4.9
					c18.7,25.1,9.6,57.2-1.3,79.7c0,0,11.7,10.2,30.6,10.2"/>
			</g>
		</g>
		<g>
			<g>
				<path class="st4" d="M35.6,100.5C35.6,100.5,35.6,100.5,35.6,100.5c1.9-2.6,3.8-5.3,5.6-8.2c0.9-1.4,1.8-3,2.6-4.5
					c0.8-1.6,1.6-3.1,2.4-4.8c1.5-3.2,2.8-6.7,3.8-10.2c1-3.5,1.7-7.1,2-10.6c0.3-3.6,0.2-7.1-0.3-10.5c-0.5-3.4-1.3-6.6-2.3-9.5
					c-0.3-0.7-0.5-1.5-0.8-2.2c-0.3-0.7-0.6-1.4-0.9-2.1c-0.3-0.7-0.6-1.3-1-1.9c-0.3-0.6-0.7-1.2-1-1.8c-1.3-2.4-2.7-4.5-4-6.3
					c-0.3-0.4-0.6-0.9-1-1.3c-0.3-0.4-0.6-0.8-0.9-1.2c-0.3-0.4-0.6-0.7-0.9-1.1c-0.3-0.3-0.6-0.7-0.8-1c-0.5-0.6-1-1.1-1.4-1.6
					c-0.4-0.5-0.8-0.8-1.1-1.2c-0.6-0.6-0.9-1-0.9-1s0.3,0.3,0.9,0.9c0.3,0.3,0.7,0.7,1.1,1.1c0.4,0.4,0.9,1,1.5,1.6
					c0.3,0.3,0.6,0.6,0.9,0.9c0.3,0.3,0.6,0.7,0.9,1.1c0.3,0.4,0.6,0.7,1,1.1c0.3,0.4,0.7,0.8,1,1.3c0.7,0.9,1.4,1.8,2.1,2.9
					c0.4,0.5,0.7,1.1,1.1,1.6c0.2,0.3,0.4,0.6,0.5,0.8c0.2,0.3,0.3,0.6,0.5,0.9c0.3,0.6,0.7,1.2,1,1.8c0.3,0.6,0.7,1.3,1,2
					c0.3,0.7,0.6,1.4,0.9,2.1c0.3,0.7,0.6,1.4,0.9,2.2c1.1,3,2,6.2,2.5,9.7c0.5,3.4,0.7,7,0.4,10.7c-0.3,3.6-0.9,7.3-2,10.9
					c-1,3.6-2.3,7-3.9,10.3c-1.5,3.3-3.3,6.4-5.1,9.3c-1.8,2.9-3.8,5.6-5.7,8.1"/>
			</g>
		</g>
		<g>
			<g>
				<path class="st4" d="M28.6,11C26.7,10,26.1,9,26.1,9C18.8-1.2,15.4,1.6,15.4,1.6c-3.9,3.8,3.4,8.3,3.4,8.3c2,2,3.7,4,5.3,6.1
					C24.6,14.7,25.8,12.8,28.6,11"/>
			</g>
		</g>
		<g>
			<g>
				<path class="st5" d="M60,74.5c-1,12.4-4.1,20.8-9,28.5h6.5C70.5,83,69,63,69,63c-0.4-38.2-33.5-50-33.5-50
					C66.7,37.5,60,74.5,60,74.5z"/>
			</g>
		</g>
	</g>
	<g>
		<g>
			<path class="st0" d="M30.5,41.1v-0.6c0-4,3.3-7.3,7.3-7.3s7.3,3.3,7.3,7.3v0.6H30.5z"/>
		</g>
	</g>
	<g>
		<g>
			<path class="st7" d="M37.7,33.8c3.7,0,6.7,3,6.7,6.7H31C31,36.8,34,33.8,37.7,33.8 M37.7,32.7c-4.3,0-7.8,3.5-7.8,7.8v1.1H31
				h13.4h1.1v-1.1C45.6,36.2,42.1,32.7,37.7,32.7"/>
		</g>
	</g>
	<g>
		<g>
			<path class="st7" d="M36.9,39.5c0,0.8-0.7,1.5-1.5,1.5c-0.8,0-1.5-0.7-1.5-1.5c0-0.8,0.7-1.5,1.5-1.5
				C36.2,38,36.9,38.7,36.9,39.5"/>
		</g>
	</g>
	<g>
		<g>
			<path class="st0" d="M56,41.1v-0.6c0-4,3.3-7.3,7.3-7.3s7.3,3.3,7.3,7.3v0.6H56z"/>
		</g>
	</g>
	<g>
		<g>
			<path class="st7" d="M63.3,33.8c3.7,0,6.7,3,6.7,6.7H56.6C56.6,36.8,59.6,33.8,63.3,33.8 M63.3,32.7c-4.3,0-7.8,3.5-7.8,7.8v1.1
				h1.1H70h1.1v-1.1C71.1,36.2,67.6,32.7,63.3,32.7"/>
		</g>
	</g>
	<g>
		<g>
			<path class="st7" d="M62.2,39.5c0,0.8-0.7,1.5-1.5,1.5c-0.8,0-1.5-0.7-1.5-1.5c0-0.8,0.7-1.5,1.5-1.5
				C61.5,38,62.2,38.7,62.2,39.5"/>
		</g>
	</g>
	<g>
		<g>
			<g>
				<path d="M34.8,53.3c-0.1,0-0.3,0-0.4-0.1c-0.2-0.2-0.2-0.5,0-0.7l4.5-4.5c0.2-0.2,0.5-0.2,0.7,0l4.2,4.2l4.2-4.2
					c0.2-0.2,0.5-0.2,0.7,0l4.5,4.5c0.2,0.2,0.2,0.5,0,0.7c-0.2,0.2-0.5,0.2-0.7,0L48.3,49l-4.2,4.2c-0.2,0.2-0.5,0.2-0.7,0L39.3,49
					l-4.2,4.2C35,53.2,34.9,53.3,34.8,53.3z"/>
			</g>
		</g>
		<g>
			<g>
				<path d="M61.8,53.3c-0.1,0-0.3,0-0.4-0.1L57.3,49l-4.2,4.2c-0.2,0.2-0.5,0.2-0.7,0s-0.2-0.5,0-0.7l4.5-4.5
					c0.2-0.2,0.5-0.2,0.7,0l4.5,4.5c0.2,0.2,0.2,0.5,0,0.7C62.1,53.2,62,53.3,61.8,53.3z"/>
			</g>
		</g>
	</g>
</g>
</svg>
