<?xml version="1.0" encoding="utf-8"?>
<!-- Generator: Adobe Illustrator 22.0.1, SVG Export Plug-In . SVG Version: 6.00 Build 0)  -->
<svg version="1.1" id="Layer_1" xmlns="http://www.w3.org/2000/svg" xmlns:xlink="http://www.w3.org/1999/xlink" x="0px" y="0px"
	 viewBox="0 0 104.6 108.2" style="enable-background:new 0 0 104.6 108.2;" xml:space="preserve">
<style type="text/css">
	.st0{fill:#FFFFFF;}
	.st1{fill:#FFCC30;}
	.st2{fill-rule:evenodd;clip-rule:evenodd;fill:#231F20;}
	.st3{fill:#FFCC31;}
	.st4{fill:#231F20;}
	.st5{fill:#ECB32C;}
	.st6{fill:#78D0FF;}
	.st7{fill:#1C1D1A;}
	.st8{fill:#FF3529;}
	.st9{fill:#36C000;}
	.st10{fill:#FF5C29;}
	.st11{fill-rule:evenodd;clip-rule:evenodd;fill:#EA638D;}
	.st12{fill:#F8C80F;}
	.st13{fill:#010101;}
	.st14{clip-path:url(#SVGID_3_);}
	.st15{clip-path:url(#SVGID_4_);}
	.st16{fill:#FFB900;}
	.st17{fill:#B96D00;}
	.st18{fill:#FF7B00;}
	.st19{fill:#CBCBCB;}
	.st20{fill:#FF506F;}
	.st21{fill:#87F0FF;}
	.st22{fill:#020202;}
	.st23{clip-path:url(#SVGID_6_);}
	.st24{clip-path:url(#SVGID_8_);}
	.st25{clip-path:url(#SVGID_11_);}
	.st26{clip-path:url(#SVGID_12_);}
	.st27{clip-path:url(#SVGID_14_);}
	.st28{clip-path:url(#SVGID_16_);}
	.st29{clip-path:url(#SVGID_19_);}
	.st30{clip-path:url(#SVGID_20_);}
	.st31{clip-path:url(#SVGID_22_);}
	.st32{clip-path:url(#SVGID_24_);}
</style>
<g>
	<g>
		<circle class="st0" cx="52.1" cy="56.9" r="48"/>
		<path class="st1" d="M52.1,106.9c-27.6,0-50-22.4-50-50s22.4-50,50-50c27.6,0,50,22.4,50,50S79.7,106.9,52.1,106.9z M52.1,11
			C26.8,11,6.2,31.6,6.2,56.9s20.6,45.9,45.9,45.9c25.3,0,45.9-20.6,45.9-45.9S77.4,11,52.1,11z"/>
	</g>
	<g>
		<g>
			<path class="st2" d="M65.2,66.1c0,0,6.1,1.6,8.7,9.8c2.6,8.2-1.1,15.4-1.1,15.4s-1.3-1.7-2.1-1.1c-0.9,0.6,1.2,1.7,1.2,1.7
				s-2.1,0.6-1.9,1.3c0.2,0.7,1.9-0.5,1.9-0.5s-1.5,2-0.8,2.2c0.7,0.2,1.2-1.7,1.2-1.7s0,1.9,0.8,1.8c0.8-0.1,0.3-1.6,0.2-1.8
				c-0.1-0.1-0.1-0.2-0.1-0.2s1.6,0.8,1.8,0c0.2-0.8-1.4-0.9-1.4-0.9s4.2-6.7,3.1-15.8c-1.1-9.1-9.9-13.6-9.9-13.6L65.2,66.1z"/>
		</g>
	</g>
	<g>
		<g>
			<path class="st2" d="M37.5,60.7c0,0-5.9-2.2-12.8,3.1S16.9,77,16.9,77s2-0.7,2.3,0.3c0.4,1-2,0.7-2,0.7s1.4,1.7,0.8,2.1
				c-0.6,0.4-1.3-1.5-1.3-1.5s0.1,2.5-0.6,2.2c-0.7-0.2,0-2,0-2s-1.1,1.5-1.7,1c-0.6-0.5,0.7-1.5,0.8-1.6c0.2-0.1,0.2-0.1,0.2-0.1
				s-1.7-0.3-1.5-1c0.3-0.8,1.6,0.1,1.6,0.1s0.4-7.9,6.5-14.7c6.1-6.8,15.9-5.5,15.9-5.5L37.5,60.7z"/>
		</g>
	</g>
	<g>
		<g>
			<path class="st3" d="M50.3,104.9c5-7.8,8.8-17.8,9.8-30.4"/>
		</g>
		<g>
			<path class="st3" d="M60.1,74.5c0,0,6.7-37-24.6-61.5c-3.2-0.3-5.4-1.1-6.9-1.9c-2.8,1.8-4,3.6-4.5,4.9
				c18.7,25.1,9.6,57.2-1.3,79.7c0,0,11.7,10.2,30.6,10.2"/>
		</g>
	</g>
	<g>
		<g>
			<path class="st4" d="M35.7,100.5C35.7,100.5,35.7,100.5,35.7,100.5c1.9-2.6,3.8-5.3,5.6-8.2c0.9-1.4,1.8-3,2.6-4.5
				c0.8-1.6,1.6-3.1,2.4-4.8c1.5-3.2,2.8-6.7,3.8-10.2c1-3.5,1.7-7.1,2-10.6c0.3-3.6,0.2-7.1-0.3-10.5c-0.5-3.4-1.3-6.6-2.3-9.5
				c-0.3-0.7-0.5-1.5-0.8-2.2c-0.3-0.7-0.6-1.4-0.9-2.1c-0.3-0.7-0.6-1.3-1-1.9c-0.3-0.6-0.7-1.2-1-1.8c-1.3-2.4-2.7-4.5-4-6.3
				c-0.3-0.4-0.6-0.9-1-1.3c-0.3-0.4-0.6-0.8-0.9-1.2c-0.3-0.4-0.6-0.7-0.9-1.1c-0.3-0.3-0.6-0.7-0.8-1c-0.5-0.6-1-1.1-1.4-1.6
				c-0.4-0.5-0.8-0.8-1.1-1.2c-0.6-0.6-0.9-1-0.9-1s0.3,0.3,0.9,0.9c0.3,0.3,0.7,0.7,1.1,1.1c0.4,0.4,0.9,1,1.5,1.6
				c0.3,0.3,0.6,0.6,0.9,0.9c0.3,0.3,0.6,0.7,0.9,1.1c0.3,0.4,0.6,0.7,1,1.1c0.3,0.4,0.7,0.8,1,1.3c0.7,0.9,1.4,1.8,2.1,2.9
				c0.4,0.5,0.7,1.1,1.1,1.6c0.2,0.3,0.4,0.6,0.5,0.8c0.2,0.3,0.3,0.6,0.5,0.9c0.3,0.6,0.7,1.2,1,1.8c0.3,0.6,0.7,1.3,1,2
				c0.3,0.7,0.6,1.4,0.9,2.1c0.3,0.7,0.6,1.4,0.9,2.2c1.1,3,2,6.2,2.5,9.7c0.5,3.4,0.7,7,0.4,10.7c-0.3,3.6-0.9,7.3-2,10.9
				c-1,3.6-2.3,7-3.9,10.3c-1.5,3.3-3.3,6.4-5.1,9.3c-1.8,2.9-3.8,5.6-5.7,8.1"/>
		</g>
	</g>
	<g>
		<g>
			<path class="st4" d="M28.7,11C26.8,10,26.1,9,26.1,9C18.8-1.2,15.5,1.6,15.5,1.6C11.7,5.4,19,9.9,19,9.9c2,2,3.7,4,5.3,6.1
				C24.7,14.7,25.9,12.8,28.7,11"/>
		</g>
	</g>
	<g>
		<g>
			<path class="st5" d="M60.1,74.5c-1,12.4-4.1,20.8-9,28.5h6.5C70.6,83,69,63,69,63c-0.4-38.2-33.5-50-33.5-50
				C66.8,37.5,60.1,74.5,60.1,74.5z"/>
		</g>
	</g>
	<g>
		<g>
			<g>
				<path class="st7" d="M43.2,59.9c-0.2,0-0.4,0.1-0.5,0.3c-0.2,0.3-0.1,0.6,0.2,0.8c0.1,0.1,9.9,6.5,17,0.1c0.2-0.2,0.3-0.6,0-0.8
					c-0.2-0.2-0.6-0.3-0.8,0C52.7,66,43.6,60.1,43.5,60C43.4,60,43.3,59.9,43.2,59.9"/>
			</g>
		</g>
		<g>
			<g>
				<path class="st7" d="M58.6,57.8c-0.1,0-0.2,0-0.3,0.1c-0.3,0.1-0.4,0.5-0.2,0.8l2.2,4.2c0.1,0.3,0.5,0.4,0.8,0.2
					c0.3-0.1,0.4-0.5,0.2-0.8l-2.2-4.2C59,57.9,58.8,57.8,58.6,57.8"/>
			</g>
		</g>
		<g>
			<g>
				<path class="st0" d="M37,43.5h-5.1c0,3.9,3.1,7,7,7c3.9,0,7-3.1,7-7h-5.6H37z"/>
			</g>
		</g>
		<g>
			<g>
				<path class="st7" d="M38.9,51c-4.2,0-7.5-3.4-7.5-7.5v-0.6h15.1v0.6C46.4,47.6,43,51,38.9,51 M32.5,44c0.3,3.3,3,5.8,6.4,5.8
					s6.1-2.6,6.4-5.8H32.5z"/>
			</g>
		</g>
		<g>
			<g>
				<path class="st12" d="M38.9,36.5c-3.9,0-7,3.1-7,7H37h3.2h5.6C45.9,39.6,42.7,36.5,38.9,36.5"/>
			</g>
		</g>
		<g>
			<g>
				<path class="st13" d="M46.4,44H31.3v-0.6c0-4.2,3.4-7.5,7.5-7.5c4.2,0,7.5,3.4,7.5,7.5V44z M32.5,42.9h12.8
					c-0.3-3.3-3-5.8-6.4-5.8S32.8,39.6,32.5,42.9"/>
			</g>
		</g>
		<g>
			<g>
				<path class="st7" d="M40.3,43.5c0,0.9-0.7,1.6-1.6,1.6c-0.9,0-1.6-0.7-1.6-1.6H40.3z"/>
			</g>
		</g>
		<g>
			<g>
				<path class="st0" d="M58.9,43.5h-5.1c0,3.9,3.1,7,7,7c3.9,0,7-3.1,7-7h-5.6H58.9z"/>
			</g>
		</g>
		<g>
			<g>
				<path class="st7" d="M60.7,51c-4.2,0-7.5-3.4-7.5-7.5v-0.6h15.1v0.6C68.3,47.6,64.9,51,60.7,51 M54.4,44c0.3,3.3,3,5.8,6.4,5.8
					c3.3,0,6.1-2.6,6.4-5.8H54.4z"/>
			</g>
		</g>
		<g>
			<g>
				<path class="st12" d="M60.7,36.5c-3.9,0-7,3.1-7,7h5.1h3.2h5.6C67.7,39.6,64.6,36.5,60.7,36.5"/>
			</g>
		</g>
		<g>
			<g>
				<path class="st13" d="M68.3,44H53.2v-0.6c0-4.2,3.4-7.5,7.5-7.5c4.2,0,7.5,3.4,7.5,7.5V44z M54.4,42.9h12.8
					c-0.3-3.3-3-5.8-6.4-5.8C57.4,37.1,54.6,39.6,54.4,42.9"/>
			</g>
		</g>
		<g>
			<g>
				<path class="st7" d="M62.1,43.5c0,0.9-0.7,1.6-1.6,1.6c-0.9,0-1.6-0.7-1.6-1.6H62.1z"/>
			</g>
		</g>
	</g>
</g>
</svg>
