<?xml version="1.0" encoding="utf-8"?>
<!-- Generator: Adobe Illustrator 22.0.1, SVG Export Plug-In . SVG Version: 6.00 Build 0)  -->
<svg version="1.1" id="Layer_1" xmlns="http://www.w3.org/2000/svg" xmlns:xlink="http://www.w3.org/1999/xlink" x="0px" y="0px"
	 viewBox="0 0 104.6 108.2" style="enable-background:new 0 0 104.6 108.2;" xml:space="preserve">
<style type="text/css">
	.st0{fill:#FFFFFF;}
	.st1{fill:#FFCC30;}
	.st2{fill-rule:evenodd;clip-rule:evenodd;fill:#231F20;}
	.st3{fill:#FFCC31;}
	.st4{fill:#231F20;}
	.st5{fill:#ECB32C;}
	.st6{fill:#78D0FF;}
	.st7{fill:#1C1D1A;}
	.st8{fill:#FF3529;}
	.st9{fill:#36C000;}
	.st10{fill:#FF5C29;}
	.st11{fill-rule:evenodd;clip-rule:evenodd;fill:#EA638D;}
	.st12{fill:#F8C80F;}
	.st13{fill:#010101;}
	.st14{clip-path:url(#SVGID_3_);}
	.st15{clip-path:url(#SVGID_4_);}
	.st16{fill:#FFB900;}
	.st17{fill:#B96D00;}
	.st18{fill:#FF7B00;}
	.st19{fill:#CBCBCB;}
	.st20{fill:#FF506F;}
	.st21{fill:#87F0FF;}
	.st22{fill:#020202;}
	.st23{clip-path:url(#SVGID_6_);}
	.st24{clip-path:url(#SVGID_8_);}
	.st25{clip-path:url(#SVGID_11_);}
	.st26{clip-path:url(#SVGID_12_);}
	.st27{clip-path:url(#SVGID_14_);}
	.st28{clip-path:url(#SVGID_16_);}
	.st29{clip-path:url(#SVGID_19_);}
	.st30{clip-path:url(#SVGID_20_);}
	.st31{clip-path:url(#SVGID_22_);}
	.st32{clip-path:url(#SVGID_24_);}
</style>
<g>
	<g>
		<circle class="st0" cx="52.2" cy="56.9" r="48"/>
		<path class="st1" d="M52.2,106.9c-27.6,0-50-22.4-50-50c0-27.6,22.4-50,50-50c27.6,0,50,22.4,50,50
			C102.2,84.5,79.8,106.9,52.2,106.9z M52.2,11C26.9,11,6.3,31.6,6.3,56.9c0,25.3,20.6,45.9,45.9,45.9c25.3,0,45.9-20.6,45.9-45.9
			C98.1,31.6,77.5,11,52.2,11z"/>
	</g>
	<g>
		<g>
			<path class="st2" d="M65.2,66.1c0,0,6.1,1.6,8.7,9.8c2.6,8.2-1.1,15.4-1.1,15.4s-1.3-1.7-2.1-1.1c-0.9,0.6,1.2,1.7,1.2,1.7
				s-2.1,0.6-1.9,1.3c0.2,0.7,1.9-0.5,1.9-0.5s-1.5,2-0.8,2.2c0.7,0.2,1.2-1.7,1.2-1.7s0,1.9,0.8,1.8c0.8-0.1,0.3-1.6,0.2-1.8
				c-0.1-0.1-0.1-0.2-0.1-0.2s1.6,0.8,1.8,0c0.2-0.8-1.4-0.9-1.4-0.9s4.2-6.7,3.1-15.8C75.8,67.3,67,62.7,67,62.7L65.2,66.1z"/>
		</g>
	</g>
	<g>
		<g>
			<path class="st2" d="M37.6,60.7c0,0-5.9-2.2-12.8,3.1C18,69,16.9,77,16.9,77s2-0.7,2.3,0.3c0.4,1-2,0.7-2,0.7s1.4,1.7,0.8,2.1
				c-0.6,0.4-1.3-1.5-1.3-1.5s0.1,2.5-0.6,2.2c-0.7-0.2,0-2,0-2s-1.1,1.5-1.7,1c-0.6-0.5,0.7-1.5,0.8-1.6c0.2-0.1,0.2-0.1,0.2-0.1
				s-1.7-0.3-1.5-1c0.3-0.8,1.6,0.1,1.6,0.1s0.4-7.9,6.5-14.7c6.1-6.8,15.9-5.5,15.9-5.5L37.6,60.7z"/>
		</g>
	</g>
	<g>
		<g>
			<path class="st3" d="M50.4,104.9c5-7.8,8.8-17.8,9.8-30.4"/>
		</g>
		<g>
			<path class="st3" d="M60.2,74.5c0,0,6.7-37-24.6-61.5c-3.2-0.3-5.4-1.1-6.9-1.9c-2.8,1.8-4,3.6-4.5,4.9
				C43,41.1,33.9,73.2,23,95.6c0,0,11.7,10.2,30.6,10.2"/>
		</g>
	</g>
	<g>
		<g>
			<path class="st4" d="M35.7,100.5C35.8,100.5,35.8,100.5,35.7,100.5c1.9-2.6,3.8-5.3,5.6-8.2c0.9-1.4,1.8-3,2.6-4.5
				c0.8-1.6,1.6-3.1,2.4-4.8c1.5-3.2,2.8-6.7,3.8-10.2c1-3.5,1.7-7.1,2-10.6c0.3-3.6,0.2-7.1-0.3-10.5c-0.5-3.4-1.3-6.6-2.3-9.5
				c-0.3-0.7-0.5-1.5-0.8-2.2c-0.3-0.7-0.6-1.4-0.9-2.1c-0.3-0.7-0.6-1.3-1-1.9c-0.3-0.6-0.7-1.2-1-1.8c-1.3-2.4-2.7-4.5-4-6.3
				c-0.3-0.4-0.6-0.9-1-1.3c-0.3-0.4-0.6-0.8-0.9-1.2c-0.3-0.4-0.6-0.7-0.9-1.1c-0.3-0.3-0.6-0.7-0.8-1c-0.5-0.6-1-1.1-1.4-1.6
				c-0.4-0.5-0.8-0.8-1.1-1.2c-0.6-0.6-0.9-1-0.9-1s0.3,0.3,0.9,0.9c0.3,0.3,0.7,0.7,1.1,1.1c0.4,0.4,0.9,1,1.5,1.6
				c0.3,0.3,0.6,0.6,0.9,0.9c0.3,0.3,0.6,0.7,0.9,1.1c0.3,0.4,0.6,0.7,1,1.1c0.3,0.4,0.7,0.8,1,1.3c0.7,0.9,1.4,1.8,2.1,2.9
				c0.4,0.5,0.7,1.1,1.1,1.6c0.2,0.3,0.4,0.6,0.5,0.8c0.2,0.3,0.3,0.6,0.5,0.9c0.3,0.6,0.7,1.2,1,1.8c0.3,0.6,0.7,1.3,1,2
				c0.3,0.7,0.6,1.4,0.9,2.1c0.3,0.7,0.6,1.4,0.9,2.2c1.1,3,2,6.2,2.5,9.7c0.5,3.4,0.7,7,0.4,10.7c-0.3,3.6-0.9,7.3-2,10.9
				c-1,3.6-2.3,7-3.9,10.3c-1.5,3.3-3.3,6.4-5.1,9.3c-1.8,2.9-3.8,5.6-5.7,8.1"/>
		</g>
	</g>
	<g>
		<g>
			<path class="st4" d="M28.7,11C26.9,10,26.2,9,26.2,9C18.9-1.2,15.6,1.6,15.6,1.6C11.7,5.4,19,9.9,19,9.9c2,2,3.7,4,5.3,6.1
				C24.8,14.7,25.9,12.8,28.7,11"/>
		</g>
	</g>
	<g>
		<g>
			<path class="st5" d="M60.2,74.5c-1,12.4-4.1,20.8-9,28.5h6.5c12.9-20,11.4-40,11.4-40c-0.4-38.2-33.5-50-33.5-50
				C66.8,37.5,60.2,74.5,60.2,74.5z"/>
		</g>
	</g>
	<g>
		<g>
			<circle cx="41" cy="42.4" r="6.9"/>
		</g>
	</g>
	<g>
		<g>
			<path class="st0" d="M37,41.3c-0.3,0-0.5-0.2-0.5-0.5c0-1.7,1.4-3.1,3.1-3.1c0.3,0,0.5,0.2,0.5,0.5c0,0.3-0.2,0.5-0.5,0.5
				c-1.2,0-2.1,0.9-2.1,2.1C37.5,41.1,37.2,41.3,37,41.3z"/>
		</g>
	</g>
	<g>
		<g>
			<circle cx="60" cy="42.4" r="6.9"/>
		</g>
	</g>
	<g>
		<g>
			<path d="M45.7,44.7c0,0-0.1,0-0.2,0c-0.3-0.1-0.4-0.4-0.3-0.6c0.5-1.7,2.3-2.8,4.5-3c2-0.1,3.9,0.8,4.7,2.2
				c0.1,0.2,0,0.6-0.2,0.7c-0.2,0.1-0.6,0-0.7-0.2c-0.6-1.1-2.1-1.8-3.7-1.7c-1.7,0.1-3.2,1-3.6,2.3C46.1,44.5,45.9,44.7,45.7,44.7z
				"/>
		</g>
	</g>
	<g>
		<g>
			<path class="st0" d="M56,41.3c-0.3,0-0.5-0.2-0.5-0.5c0-1.7,1.4-3.1,3.1-3.1c0.3,0,0.5,0.2,0.5,0.5c0,0.3-0.2,0.5-0.5,0.5
				c-1.2,0-2.1,0.9-2.1,2.1C56.5,41.1,56.3,41.3,56,41.3z"/>
		</g>
	</g>
	<g>
		<defs>
			<path id="SVGID_17_" d="M38.3,56.5c0,5.2,4.2,9.5,9.5,9.5c5.2,0,9.5-4.2,9.5-9.5H38.3z"/>
		</defs>
		<defs>
			<path id="SVGID_18_" d="M47.7,66.5c-5.5,0-10-4.5-10-10V56h19.9v0.5C57.7,62,53.2,66.5,47.7,66.5z M38.8,57
				c0.3,4.7,4.2,8.5,8.9,8.5c4.8,0,8.7-3.7,8.9-8.5H38.8z"/>
		</defs>
		<use xlink:href="#SVGID_17_"  style="overflow:visible;fill:#FFFFFF;"/>
		<use xlink:href="#SVGID_18_"  style="overflow:visible;"/>
		<clipPath id="SVGID_3_">
			<use xlink:href="#SVGID_17_"  style="overflow:visible;"/>
		</clipPath>
		<clipPath id="SVGID_4_" class="st14">
			<use xlink:href="#SVGID_18_"  style="overflow:visible;"/>
		</clipPath>
		<g class="st15">
			<g>
				<path class="st0" d="M38.8,56.5v1.9c0,0.5,0.4,1,1,1h1.6c0.5,0,1-0.4,1-1v-1.9H38.8z"/>
			</g>
			<g>
				<path d="M41.4,60h-1.6c-0.8,0-1.5-0.7-1.5-1.5V56h4.6v2.4C42.9,59.3,42.2,60,41.4,60z M39.3,57.1v1.4c0,0.3,0.2,0.5,0.5,0.5h1.6
					c0.3,0,0.5-0.2,0.5-0.5v-1.4H39.3z"/>
			</g>
		</g>
		<g class="st15">
			<g>
				<path class="st0" d="M42.4,56.5v1.6c0,0.7,0.6,1.3,1.3,1.3h1c0.7,0,1.3-0.6,1.3-1.3v-1.6H42.4z"/>
			</g>
			<g>
				<path d="M44.7,60h-1c-1,0-1.8-0.8-1.8-1.8V56h4.6v2.1C46.5,59.2,45.7,60,44.7,60z M42.9,57.1v1.1c0,0.5,0.4,0.8,0.8,0.8h1
					c0.5,0,0.8-0.4,0.8-0.8v-1.1H42.9z"/>
			</g>
		</g>
		<g class="st15">
			<g>
				<path class="st0" d="M53.4,56.5v1.6c0,0.7,0.6,1.3,1.3,1.3h1c0.7,0,1.3-0.6,1.3-1.3v-1.6H53.4z"/>
			</g>
			<g>
				<path d="M55.7,60h-1c-1,0-1.8-0.8-1.8-1.8V56h4.6v2.1C57.5,59.2,56.7,60,55.7,60z M53.9,57.1v1.1c0,0.5,0.4,0.8,0.8,0.8h1
					c0.5,0,0.8-0.4,0.8-0.8v-1.1H53.9z"/>
			</g>
		</g>
		<g class="st15">
			<g>
				<path class="st0" d="M46.1,56.5v1.9c0,0.5,0.4,1,1,1h1.6c0.5,0,1-0.4,1-1v-1.9H46.1z"/>
			</g>
			<g>
				<path d="M48.7,60h-1.6c-0.8,0-1.5-0.7-1.5-1.5V56h4.6v2.4C50.2,59.3,49.6,60,48.7,60z M46.6,57.1v1.4c0,0.3,0.2,0.5,0.5,0.5h1.6
					c0.3,0,0.5-0.2,0.5-0.5v-1.4H46.6z"/>
			</g>
		</g>
		<g class="st15">
			<g>
				<path class="st16" d="M49.7,56.5v1.6c0,0.7,0.6,1.3,1.3,1.3h1c0.7,0,1.3-0.6,1.3-1.3v-1.6H49.7z"/>
			</g>
			<g>
				<path d="M52,60h-1c-1,0-1.8-0.8-1.8-1.8V56h4.6v2.1C53.9,59.2,53,60,52,60z M50.2,57.1v1.1c0,0.5,0.4,0.8,0.8,0.8h1
					c0.5,0,0.8-0.4,0.8-0.8v-1.1H50.2z"/>
			</g>
		</g>
	</g>
	<g>
		<g>
			<path class="st17" d="M49.5,66H32c-0.4,0-0.8-0.3-0.8-0.8V62c0-0.4,0.3-0.8,0.8-0.8h17.5c0.4,0,0.8,0.3,0.8,0.8v3.2
				C50.2,65.6,49.9,66,49.5,66z"/>
		</g>
		<g>
			<path d="M47.9,66.5H33.6c-1.6,0-2.9-1.3-2.9-2.9c0-1.6,1.3-2.9,2.9-2.9h14.3c1.6,0,2.9,1.3,2.9,2.9
				C50.7,65.2,49.5,66.5,47.9,66.5z M33.6,61.7c-1,0-1.9,0.8-1.9,1.9c0,1,0.8,1.9,1.9,1.9h14.3c1,0,1.9-0.8,1.9-1.9
				c0-1-0.8-1.9-1.9-1.9H33.6z"/>
		</g>
	</g>
	<g>
		<g>
			<path class="st18" d="M38.4,66h-4.1c-0.4,0-0.8-0.3-0.8-0.8V62c0-0.4,0.3-0.8,0.8-0.8h4.1c0.4,0,0.8,0.3,0.8,0.8v3.2
				C39.1,65.6,38.8,66,38.4,66z"/>
		</g>
		<g>
			<path d="M36.8,66.5h-0.9c-1.6,0-2.9-1.3-2.9-2.9c0-1.6,1.3-2.9,2.9-2.9h0.9c1.6,0,2.9,1.3,2.9,2.9C39.6,65.2,38.3,66.5,36.8,66.5
				z M35.9,61.7c-1,0-1.9,0.8-1.9,1.9c0,1,0.8,1.9,1.9,1.9h0.9c1,0,1.9-0.8,1.9-1.9c0-1-0.8-1.9-1.9-1.9H35.9z"/>
		</g>
	</g>
	<g>
		<g>
			<path class="st19" d="M36.1,66H32c-0.4,0-0.8-0.3-0.8-0.8V62c0-0.4,0.3-0.8,0.8-0.8h4.1c0.4,0,0.8,0.3,0.8,0.8v3.2
				C36.9,65.6,36.5,66,36.1,66z"/>
		</g>
		<g>
			<path d="M34.5,66.5h-0.9c-1.6,0-2.9-1.3-2.9-2.9c0-1.6,1.3-2.9,2.9-2.9h0.9c1.6,0,2.9,1.3,2.9,2.9C37.4,65.2,36.1,66.5,34.5,66.5
				z M33.6,61.7c-1,0-1.9,0.8-1.9,1.9c0,1,0.8,1.9,1.9,1.9h0.9c1,0,1.9-0.8,1.9-1.9c0-1-0.8-1.9-1.9-1.9H33.6z"/>
		</g>
	</g>
</g>
</svg>
