<?xml version="1.0" encoding="utf-8"?>
<!-- Generator: Adobe Illustrator 22.0.1, SVG Export Plug-In . SVG Version: 6.00 Build 0)  -->
<svg version="1.1" id="Layer_1" xmlns="http://www.w3.org/2000/svg" xmlns:xlink="http://www.w3.org/1999/xlink" x="0px" y="0px"
	 viewBox="0 0 104.6 108.2" style="enable-background:new 0 0 104.6 108.2;" xml:space="preserve">
<style type="text/css">
	.st0{fill:#FFFFFF;}
	.st1{fill:#FFCC30;}
	.st2{fill-rule:evenodd;clip-rule:evenodd;fill:#231F20;}
	.st3{fill:#FFCC31;}
	.st4{fill:#231F20;}
	.st5{fill:#ECB32C;}
	.st6{fill:#78D0FF;}
	.st7{fill:#1C1D1A;}
	.st8{fill:#FF3529;}
	.st9{fill:#36C000;}
	.st10{fill:#FF5C29;}
	.st11{fill-rule:evenodd;clip-rule:evenodd;fill:#EA638D;}
	.st12{fill:#F8C80F;}
	.st13{fill:#010101;}
	.st14{clip-path:url(#SVGID_3_);}
	.st15{clip-path:url(#SVGID_4_);}
	.st16{fill:#FFB900;}
	.st17{fill:#B96D00;}
	.st18{fill:#FF7B00;}
	.st19{fill:#CBCBCB;}
	.st20{fill:#FF506F;}
	.st21{fill:#87F0FF;}
	.st22{fill:#020202;}
	.st23{clip-path:url(#SVGID_6_);}
	.st24{clip-path:url(#SVGID_8_);}
	.st25{clip-path:url(#SVGID_11_);}
	.st26{clip-path:url(#SVGID_12_);}
	.st27{clip-path:url(#SVGID_14_);}
	.st28{clip-path:url(#SVGID_16_);}
	.st29{clip-path:url(#SVGID_19_);}
	.st30{clip-path:url(#SVGID_20_);}
	.st31{clip-path:url(#SVGID_22_);}
	.st32{clip-path:url(#SVGID_24_);}
</style>
<g>
	<g>
		<g>
			<g>
				<circle class="st0" cx="51.9" cy="56.9" r="48"/>
				<path class="st1" d="M51.9,106.9c-27.6,0-50-22.4-50-50c0-27.6,22.4-50,50-50c27.6,0,50,22.4,50,50
					C101.9,84.5,79.5,106.9,51.9,106.9z M51.9,11C26.6,11,6,31.6,6,56.9c0,25.3,20.6,45.9,45.9,45.9c25.3,0,45.9-20.6,45.9-45.9
					C97.8,31.6,77.2,11,51.9,11z"/>
			</g>
			<g>
				<g>
					<path class="st3" d="M50.1,104.9c5-7.8,8.8-17.8,9.8-30.4"/>
				</g>
				<g>
					<path class="st3" d="M59.9,74.5c0,0,6.7-37-24.6-61.5c-3.2-0.3-5.4-1.1-6.9-1.9c-2.8,1.8-4,3.6-4.5,4.9
						c18.7,25.1,9.6,57.2-1.3,79.7c0,0,11.7,10.2,30.6,10.2"/>
				</g>
			</g>
			<g>
				<g>
					<path class="st4" d="M35.5,100.5C35.5,100.5,35.5,100.5,35.5,100.5c1.9-2.6,3.8-5.3,5.6-8.2c0.9-1.4,1.8-3,2.6-4.5
						c0.8-1.6,1.6-3.1,2.4-4.8c1.5-3.2,2.8-6.7,3.8-10.2c1-3.5,1.7-7.1,2-10.6c0.3-3.6,0.2-7.1-0.3-10.5c-0.5-3.4-1.3-6.6-2.3-9.5
						c-0.3-0.7-0.5-1.5-0.8-2.2c-0.3-0.7-0.6-1.4-0.9-2.1c-0.3-0.7-0.6-1.3-1-1.9c-0.3-0.6-0.7-1.2-1-1.8c-1.3-2.4-2.7-4.5-4-6.3
						c-0.3-0.4-0.6-0.9-1-1.3c-0.3-0.4-0.6-0.8-0.9-1.2c-0.3-0.4-0.6-0.7-0.9-1.1c-0.3-0.3-0.6-0.7-0.8-1c-0.5-0.6-1-1.1-1.4-1.6
						c-0.4-0.5-0.8-0.8-1.1-1.2c-0.6-0.6-0.9-1-0.9-1s0.3,0.3,0.9,0.9c0.3,0.3,0.7,0.7,1.1,1.1c0.4,0.4,0.9,1,1.5,1.6
						c0.3,0.3,0.6,0.6,0.9,0.9c0.3,0.3,0.6,0.7,0.9,1.1c0.3,0.4,0.6,0.7,1,1.1c0.3,0.4,0.7,0.8,1,1.3c0.7,0.9,1.4,1.8,2.1,2.9
						c0.4,0.5,0.7,1.1,1.1,1.6c0.2,0.3,0.4,0.6,0.5,0.8c0.2,0.3,0.3,0.6,0.5,0.9c0.3,0.6,0.7,1.2,1,1.8c0.3,0.6,0.7,1.3,1,2
						c0.3,0.7,0.6,1.4,0.9,2.1c0.3,0.7,0.6,1.4,0.9,2.2c1.1,3,2,6.2,2.5,9.7c0.5,3.4,0.7,7,0.4,10.7c-0.3,3.6-0.9,7.3-2,10.9
						c-1,3.6-2.3,7-3.9,10.3c-1.5,3.3-3.3,6.4-5.1,9.3c-1.8,2.9-3.8,5.6-5.7,8.1"/>
				</g>
			</g>
			<g>
				<g>
					<path class="st4" d="M28.5,11C26.6,10,25.9,9,25.9,9C18.6-1.2,15.3,1.6,15.3,1.6c-3.9,3.8,3.4,8.3,3.4,8.3c2,2,3.7,4,5.3,6.1
						C24.5,14.7,25.7,12.8,28.5,11"/>
				</g>
			</g>
			<g>
				<g>
					<path class="st5" d="M59.9,74.5c-1,12.4-4.1,20.8-9,28.5h6.5c12.9-20,11.4-40,11.4-40c-0.4-38.2-33.5-50-33.5-50
						C66.6,37.5,59.9,74.5,59.9,74.5z"/>
				</g>
			</g>
		</g>
	</g>
	<g>
		<g>
			<path class="st2" d="M29.5,79.4c0,0-7.4,3.8,0.9,7c8.3,3.1,15.8-0.2,15.8-0.2s-1.7-1.4-1-2.2c0.7-0.8,1.7,1.4,1.7,1.4
				s0.7-2.2,1.4-1.9c0.7,0.3-0.7,2-0.7,2s2.1-1.4,2.3-0.7c0.2,0.7-1.8,1.1-1.8,1.1s1.9,0.1,1.8,0.9c-0.1,0.8-1.7,0.2-1.8,0.1
				c-0.1-0.1-0.2-0.1-0.2-0.1s0.7,1.7-0.1,1.9C47,88.7,47,87.1,47,87.1s-7.2,4.2-16.3,2.3c-17.5-3.8-0.2-13.3-0.2-13.3L29.5,79.4z"
				/>
		</g>
	</g>
	<g>
		<g>
			<path class="st0" d="M37,51.8c-3.7,0-6.8-3-6.8-6.8c0-3.7,3-6.8,6.8-6.8c3.7,0,6.8,3,6.8,6.8C43.8,48.8,40.8,51.8,37,51.8"/>
		</g>
	</g>
	<g>
		<g>
			<path class="st7" d="M37,38.7c3.5,0,6.3,2.8,6.3,6.3c0,3.5-2.8,6.3-6.3,6.3c-3.5,0-6.3-2.8-6.3-6.3C30.8,41.5,33.6,38.7,37,38.7
				 M37,37.7c-4,0-7.3,3.3-7.3,7.3c0,4,3.3,7.3,7.3,7.3s7.3-3.3,7.3-7.3C44.4,41,41.1,37.7,37,37.7"/>
		</g>
	</g>
	<g>
		<g>
			<path class="st7" d="M38.3,45c0,0.7-0.5,1.2-1.2,1.2c-0.7,0-1.2-0.5-1.2-1.2c0-0.7,0.5-1.2,1.2-1.2C37.7,43.8,38.3,44.3,38.3,45"
				/>
		</g>
	</g>
	<g>
		<g>
			<path class="st7" d="M61.5,57.7c0,1.4-0.2,2.7-0.6,3.9c-0.5,1.4-1.1,2.7-2,3.9c-2.4,3.1-6.1,5.2-10.4,5.2s-8-2-10.4-5.2
				c-0.9-1.2-1.6-2.5-2-3.9c-0.4-1.2-0.6-2.6-0.6-3.9H61.5z"/>
		</g>
	</g>
	<g>
		<g>
			<path class="st7" d="M48.5,71.3c-4.3,0-8.2-2-10.8-5.4c-0.9-1.2-1.6-2.6-2.1-4.1c-0.4-1.3-0.6-2.7-0.6-4.1v-0.6h27.1v0.6
				c0,1.4-0.2,2.8-0.6,4.1c-0.5,1.5-1.2,2.9-2.1,4.1C56.8,69.3,52.8,71.3,48.5,71.3 M36.2,58.3c0,1.1,0.2,2.1,0.6,3.1
				c0.4,1.3,1.1,2.6,1.9,3.7c2.4,3.1,6,4.9,9.9,4.9s7.5-1.8,9.9-4.9c0.9-1.1,1.5-2.4,1.9-3.7c0.3-1,0.5-2.1,0.6-3.1H36.2z"/>
		</g>
	</g>
	<g>
		<g>
			<path class="st0" d="M61.5,57.7c0,1.4-0.2,2.7-0.6,3.9H36.2c-0.4-1.2-0.6-2.6-0.6-3.9H61.5z"/>
		</g>
	</g>
	<g>
		<g>
			<path class="st7" d="M61.1,61.9H35.9l-0.1-0.2c-0.4-1.3-0.6-2.6-0.6-4v-0.3h26.5v0.3c0,1.4-0.2,2.7-0.6,4L61.1,61.9z M36.4,61.3
				h24.3c0.3-1.1,0.5-2.2,0.5-3.3H35.9C35.9,59.2,36.1,60.3,36.4,61.3"/>
		</g>
	</g>
	<g>
		<g>
			<rect x="40" y="57.7" class="st7" width="0.9" height="3.9"/>
		</g>
	</g>
	<g>
		<g>
			<rect x="44.9" y="57.7" class="st7" width="0.9" height="3.9"/>
		</g>
	</g>
	<g>
		<g>
			<rect x="49.7" y="57.7" class="st7" width="0.9" height="3.9"/>
		</g>
	</g>
	<g>
		<g>
			<rect x="54.6" y="57.7" class="st7" width="0.9" height="3.9"/>
		</g>
	</g>
	<g>
		<g>
			<path class="st0" d="M58.9,65.6c-2.4,3.1-6.1,5.2-10.4,5.2c-4.2,0-8-2-10.4-5.2H58.9z"/>
		</g>
	</g>
	<g>
		<g>
			<path class="st7" d="M48.5,71c-4.2,0-8.1-1.9-10.6-5.3l-0.4-0.5h21.9l-0.4,0.5C56.6,69.1,52.7,71,48.5,71 M38.8,65.8
				c2.4,2.9,5.9,4.6,9.7,4.6c3.8,0,7.3-1.7,9.7-4.6H38.8z"/>
		</g>
	</g>
	<g>
		<g>
			<rect x="40" y="65.6" class="st7" width="0.9" height="2.3"/>
		</g>
	</g>
	<g>
		<g>
			<rect x="44.9" y="65.6" class="st7" width="0.9" height="4.7"/>
		</g>
	</g>
	<g>
		<g>
			<rect x="49.7" y="65.6" class="st7" width="0.9" height="5.1"/>
		</g>
	</g>
	<g>
		<g>
			<rect x="54.6" y="65.6" class="st7" width="0.9" height="3.4"/>
		</g>
	</g>
	<g>
		<g>
			<path class="st0" d="M60.9,51.8c-3.7,0-6.8-3-6.8-6.8c0-3.7,3-6.8,6.8-6.8c3.7,0,6.8,3,6.8,6.8C67.7,48.8,64.6,51.8,60.9,51.8"/>
		</g>
	</g>
	<g>
		<g>
			<path class="st7" d="M60.9,38.7c3.5,0,6.3,2.8,6.3,6.3c0,3.5-2.8,6.3-6.3,6.3c-3.5,0-6.3-2.8-6.3-6.3
				C54.6,41.5,57.4,38.7,60.9,38.7 M60.9,37.7c-4,0-7.3,3.3-7.3,7.3c0,4,3.3,7.3,7.3,7.3s7.3-3.3,7.3-7.3
				C68.2,41,64.9,37.7,60.9,37.7"/>
		</g>
	</g>
	<g>
		<g>
			<path class="st7" d="M62.1,45c0,0.7-0.5,1.2-1.2,1.2c-0.7,0-1.2-0.5-1.2-1.2c0-0.7,0.5-1.2,1.2-1.2C61.6,43.8,62.1,44.3,62.1,45"
				/>
		</g>
	</g>
	<g>
		<g>
			<path class="st2" d="M63.7,90.7c0,0,1.4,8.5-6.4,4.1c-7.7-4.3-10-12.3-10-12.3s2.1,0.4,2.3-0.7c0.2-1.1-2.1-0.4-2.1-0.4
				s1.2-1.9,0.5-2.3C47.4,78.9,47,81,47,81s-0.2-2.5-0.9-2.2c-0.7,0.3,0.3,2,0.3,2s-1.3-1.4-1.9-0.8c-0.5,0.6,0.9,1.4,1.1,1.5
				c0.2,0,0.2,0.1,0.2,0.1s-1.7,0.5-1.4,1.3c0.4,0.7,1.6-0.3,1.6-0.3s1.3,8.2,8.8,14c14.2,11,9.9-8.6,9.9-8.6L63.7,90.7z"/>
		</g>
	</g>
</g>
</svg>
