<?xml version="1.0" encoding="utf-8"?>
<!-- Generator: Adobe Illustrator 22.0.1, SVG Export Plug-In . SVG Version: 6.00 Build 0)  -->
<svg version="1.1" id="Layer_1" xmlns="http://www.w3.org/2000/svg" xmlns:xlink="http://www.w3.org/1999/xlink" x="0px" y="0px"
	 viewBox="0 0 104.6 108.2" style="enable-background:new 0 0 104.6 108.2;" xml:space="preserve">
<style type="text/css">
	.st0{fill:#FFFFFF;}
	.st1{fill:#FFCC30;}
	.st2{fill-rule:evenodd;clip-rule:evenodd;fill:#231F20;}
	.st3{fill:#FFCC31;}
	.st4{fill:#231F20;}
	.st5{fill:#ECB32C;}
	.st6{fill:#78D0FF;}
	.st7{fill:#1C1D1A;}
	.st8{fill:#FF3529;}
	.st9{fill:#36C000;}
	.st10{fill:#FF5C29;}
	.st11{fill-rule:evenodd;clip-rule:evenodd;fill:#EA638D;}
	.st12{fill:#F8C80F;}
	.st13{fill:#010101;}
	.st14{clip-path:url(#SVGID_3_);}
	.st15{clip-path:url(#SVGID_4_);}
	.st16{fill:#FFB900;}
	.st17{fill:#B96D00;}
	.st18{fill:#FF7B00;}
	.st19{fill:#CBCBCB;}
	.st20{fill:#FF506F;}
	.st21{fill:#87F0FF;}
	.st22{fill:#020202;}
	.st23{clip-path:url(#SVGID_6_);}
	.st24{clip-path:url(#SVGID_8_);}
	.st25{clip-path:url(#SVGID_11_);}
	.st26{clip-path:url(#SVGID_12_);}
	.st27{clip-path:url(#SVGID_14_);}
	.st28{clip-path:url(#SVGID_16_);}
	.st29{clip-path:url(#SVGID_19_);}
	.st30{clip-path:url(#SVGID_20_);}
	.st31{clip-path:url(#SVGID_22_);}
	.st32{clip-path:url(#SVGID_24_);}
</style>
<g>
	<g>
		<circle class="st0" cx="52.3" cy="56.9" r="48"/>
		<path class="st1" d="M52.3,106.9c-27.6,0-50-22.4-50-50s22.4-50,50-50c27.6,0,50,22.4,50,50S79.8,106.9,52.3,106.9z M52.3,11
			C26.9,11,6.3,31.6,6.3,56.9s20.6,45.9,45.9,45.9c25.3,0,45.9-20.6,45.9-45.9S77.6,11,52.3,11z"/>
	</g>
	<g>
		<path class="st2" d="M65.3,66.1c0,0,6.1,1.6,8.7,9.8c2.6,8.2-1.1,15.4-1.1,15.4s-1.3-1.7-2.1-1.1c-0.9,0.6,1.2,1.7,1.2,1.7
			s-2.1,0.6-1.9,1.3c0.2,0.7,1.9-0.5,1.9-0.5s-1.5,2-0.8,2.2c0.7,0.2,1.2-1.7,1.2-1.7s0,1.9,0.8,1.8c0.8-0.1,0.3-1.6,0.2-1.8
			c-0.1-0.1-0.1-0.2-0.1-0.2s1.6,0.8,1.8,0c0.2-0.8-1.4-0.9-1.4-0.9s4.2-6.7,3.1-15.8c-1.1-9.1-9.9-13.6-9.9-13.6L65.3,66.1z"/>
	</g>
	<g>
		<path class="st2" d="M37.7,60.7c0,0-5.9-2.2-12.8,3.1C18,69,17,77,17,77s2-0.7,2.3,0.3c0.4,1-2,0.7-2,0.7s1.4,1.7,0.8,2.1
			c-0.6,0.4-1.3-1.5-1.3-1.5s0.1,2.5-0.6,2.2c-0.7-0.2,0-2,0-2s-1.1,1.5-1.7,1c-0.6-0.5,0.7-1.5,0.8-1.6c0.2-0.1,0.2-0.1,0.2-0.1
			s-1.7-0.3-1.5-1c0.3-0.8,1.6,0.1,1.6,0.1s0.4-7.9,6.5-14.7c6.1-6.8,15.9-5.5,15.9-5.5L37.7,60.7z"/>
	</g>
	<g>
		<g>
			<path class="st3" d="M50.5,104.9c5-7.8,8.8-17.8,9.8-30.4"/>
		</g>
		<g>
			<path class="st3" d="M60.3,74.5c0,0,6.7-37-24.6-61.5c-3.2-0.3-5.4-1.1-6.9-1.9c-2.8,1.8-4,3.6-4.5,4.9
				c18.7,25.1,9.6,57.2-1.3,79.7c0,0,11.7,10.2,30.6,10.2"/>
		</g>
	</g>
	<g>
		<g>
			<path class="st4" d="M35.8,100.5C35.8,100.5,35.9,100.5,35.8,100.5c1.9-2.6,3.8-5.3,5.6-8.2c0.9-1.4,1.8-3,2.6-4.5
				c0.8-1.6,1.6-3.1,2.4-4.8c1.5-3.2,2.8-6.7,3.8-10.2c1-3.5,1.7-7.1,2-10.6c0.3-3.6,0.2-7.1-0.3-10.5c-0.5-3.4-1.3-6.6-2.3-9.5
				c-0.3-0.7-0.5-1.5-0.8-2.2c-0.3-0.7-0.6-1.4-0.9-2.1c-0.3-0.7-0.6-1.3-1-1.9c-0.3-0.6-0.7-1.2-1-1.8c-1.3-2.4-2.7-4.5-4-6.3
				c-0.3-0.4-0.6-0.9-1-1.3c-0.3-0.4-0.6-0.8-0.9-1.2c-0.3-0.4-0.6-0.7-0.9-1.1c-0.3-0.3-0.6-0.7-0.8-1c-0.5-0.6-1-1.1-1.4-1.6
				c-0.4-0.5-0.8-0.8-1.1-1.2c-0.6-0.6-0.9-1-0.9-1s0.3,0.3,0.9,0.9c0.3,0.3,0.7,0.7,1.1,1.1c0.4,0.4,0.9,1,1.5,1.6
				c0.3,0.3,0.6,0.6,0.9,0.9c0.3,0.3,0.6,0.7,0.9,1.1c0.3,0.4,0.6,0.7,1,1.1c0.3,0.4,0.7,0.8,1,1.3c0.7,0.9,1.4,1.8,2.1,2.9
				c0.4,0.5,0.7,1.1,1.1,1.6c0.2,0.3,0.4,0.6,0.5,0.8c0.2,0.3,0.3,0.6,0.5,0.9c0.3,0.6,0.7,1.2,1,1.8c0.3,0.6,0.7,1.3,1,2
				c0.3,0.7,0.6,1.4,0.9,2.1c0.3,0.7,0.6,1.4,0.9,2.2c1.1,3,2,6.2,2.5,9.7c0.5,3.4,0.7,7,0.4,10.7c-0.3,3.6-0.9,7.3-2,10.9
				c-1,3.6-2.3,7-3.9,10.3c-1.5,3.3-3.3,6.4-5.1,9.3c-1.8,2.9-3.8,5.6-5.7,8.1"/>
		</g>
	</g>
	<g>
		<g>
			<path class="st4" d="M28.8,11C26.9,10,26.3,9,26.3,9C19-1.2,15.7,1.6,15.7,1.6c-3.9,3.8,3.4,8.3,3.4,8.3c2,2,3.7,4,5.3,6.1
				C24.8,14.7,26,12.8,28.8,11"/>
		</g>
	</g>
	<g>
		<g>
			<path class="st5" d="M60.3,74.5c-1,12.4-4.1,20.8-9,28.5h6.5c12.9-20,11.4-40,11.4-40c-0.4-38.2-33.5-50-33.5-50
				C66.9,37.5,60.3,74.5,60.3,74.5z"/>
		</g>
	</g>
	<g>
		<path class="st7" d="M46.1,50.7c-0.3,0-0.5-0.2-0.5-0.5c0-2.8-2.3-5.1-5.1-5.1c-2.8,0-5.1,2.3-5.1,5.1c0,0.3-0.2,0.5-0.5,0.5
			c-0.3,0-0.5-0.2-0.5-0.5c0-3.4,2.7-6.1,6.1-6.1c3.4,0,6.1,2.7,6.1,6.1C46.7,50.5,46.4,50.7,46.1,50.7"/>
	</g>
	<g>
		<path class="st7" d="M66.5,50.7c-0.3,0-0.5-0.2-0.5-0.5c0-2.8-2.3-5.1-5.1-5.1c-2.8,0-5.1,2.3-5.1,5.1c0,0.3-0.2,0.5-0.5,0.5
			c-0.3,0-0.5-0.2-0.5-0.5c0-3.4,2.7-6.1,6.1-6.1c3.4,0,6.1,2.7,6.1,6.1C67,50.5,66.8,50.7,66.5,50.7"/>
	</g>
	<g>
		<g>
			<g>
				<path class="st4" d="M42.9,67.4c-2.3,0-4.1-1.9-4.1-4.1s1.9-4.1,4.1-4.1c0.3,0,0.5,0.2,0.5,0.5c0,0.3-0.2,0.5-0.5,0.5
					c-1.7,0-3.1,1.4-3.1,3.1s1.4,3.1,3.1,3.1c0.3,0,0.5,0.2,0.5,0.5C43.4,67.1,43.2,67.4,42.9,67.4z"/>
			</g>
		</g>
		<g>
			<g>
				<path class="st4" d="M42.9,74.6c-2.3,0-4.1-1.9-4.1-4.1c0-2.3,1.9-4.1,4.1-4.1c0.3,0,0.5,0.2,0.5,0.5c0,0.3-0.2,0.5-0.5,0.5
					c-1.7,0-3.1,1.4-3.1,3.1c0,1.7,1.4,3.1,3.1,3.1c0.3,0,0.5,0.2,0.5,0.5C43.4,74.4,43.2,74.6,42.9,74.6z"/>
			</g>
		</g>
	</g>
	<g>
		<g>
			<path class="st20" d="M24.9,55.7l-0.1,0c-1.4,0.1-2.6-0.1-3.5-0.6c-1-0.5-1.3-1.1-1.5-1.6c-0.3-0.9,0.1-1.8,0.8-2.2
				c0.5-0.3,1-0.3,1.6-0.1c0.1-0.6,0.4-1.1,0.8-1.4c0.7-0.4,1.7-0.3,2.3,0.3c0.3,0.3,0.8,1,0.7,2.1c0,1-0.4,2.1-1.1,3.4L24.9,55.7z"
				/>
		</g>
		<g>
			<path class="st4" d="M24.2,56.1c-1.2,0-2.3-0.2-3.1-0.6c-1.1-0.5-1.5-1.3-1.7-1.8c-0.3-1,0.1-2.1,0.9-2.6c0.4-0.3,1-0.4,1.5-0.3
				c0.2-0.5,0.5-1,0.9-1.2c0.9-0.5,2-0.4,2.8,0.4c0.4,0.4,0.9,1.1,0.9,2.3c0,1-0.4,2.2-1.2,3.5l-0.1,0.1c-0.1,0.1-0.2,0.2-0.3,0.2
				l-0.1,0C24.6,56.1,24.4,56.1,24.2,56.1z M24.9,55.7L24.9,55.7L24.9,55.7z M21.4,51.4c-0.3,0-0.5,0.1-0.7,0.2
				c-0.6,0.4-0.8,1.1-0.6,1.8c0.1,0.4,0.4,1,1.3,1.4c0.8,0.4,1.9,0.6,3.3,0.5c0.7-1.2,1-2.2,1-3.2c0-1-0.3-1.5-0.6-1.8
				c-0.5-0.5-1.3-0.7-1.9-0.3c-0.4,0.2-0.6,0.6-0.7,1.1c0,0.1-0.1,0.2-0.2,0.2c-0.1,0.1-0.2,0.1-0.3,0
				C21.8,51.5,21.6,51.4,21.4,51.4z"/>
		</g>
	</g>
	<g>
		<g>
			<path class="st20" d="M26.4,46.5l-0.2,0c-2-0.5-3.5-1.3-4.4-2.3c-1.1-1.1-1.3-2.1-1.3-2.8c0-1.3,0.9-2.4,2-2.7
				c0.7-0.2,1.5,0,2.2,0.5c0.4-0.8,1-1.3,1.7-1.5c1.2-0.3,2.4,0.3,3,1.5c0.3,0.6,0.6,1.6,0.1,3.1c-0.5,1.3-1.5,2.7-3,4L26.4,46.5z"
				/>
		</g>
		<g>
			<path class="st4" d="M26.4,46.8C26.4,46.8,26.4,46.8,26.4,46.8l-0.3-0.1c-2-0.6-3.6-1.4-4.6-2.4c-1.2-1.2-1.4-2.3-1.4-3
				c0-1.4,1-2.7,2.3-3c0.7-0.2,1.5,0,2.1,0.4c0.4-0.7,1-1.1,1.8-1.3c1.3-0.3,2.7,0.4,3.4,1.7c0.3,0.7,0.7,1.8,0.1,3.3
				c-0.5,1.4-1.5,2.8-3.1,4.2l-0.1,0.1C26.6,46.8,26.5,46.8,26.4,46.8z M23.1,39c-0.2,0-0.3,0-0.5,0.1c-1,0.2-1.7,1.2-1.8,2.3
				c0,0.6,0.2,1.6,1.2,2.5c0.9,0.9,2.4,1.7,4.3,2.2c1.5-1.3,2.4-2.6,2.9-3.9c0.5-1.3,0.2-2.3-0.1-2.8c-0.5-1-1.6-1.5-2.6-1.3
				c-0.6,0.2-1.2,0.6-1.5,1.3c0,0.1-0.1,0.2-0.2,0.2c-0.1,0-0.2,0-0.3-0.1C24.1,39.2,23.6,39,23.1,39z"/>
		</g>
	</g>
	<g>
		<g>
			<path class="st20" d="M14.6,50.3l-0.1-0.1c-1.2-1-2-2-2.4-3c-0.4-1.1-0.2-1.9,0-2.4c0.4-0.9,1.3-1.4,2.2-1.2
				c0.6,0.1,1,0.5,1.4,1.1c0.5-0.4,1.1-0.6,1.7-0.5c0.9,0.2,1.6,1,1.6,2c0,0.5-0.1,1.3-0.9,2.2c-0.7,0.8-1.9,1.4-3.3,1.9L14.6,50.3z
				"/>
		</g>
		<g>
			<path class="st4" d="M14.6,50.7c-0.1,0-0.2,0-0.2-0.1l-0.1-0.1c-1.2-1-2.1-2.1-2.5-3.1c-0.5-1.2-0.2-2.1,0-2.6
				c0.5-1,1.6-1.6,2.6-1.4c0.6,0.1,1,0.4,1.4,0.9c0.5-0.3,1.1-0.4,1.6-0.3c1.1,0.2,1.8,1.2,1.9,2.3c0,0.6-0.1,1.5-1,2.4
				c-0.8,0.8-1.9,1.5-3.5,2l-0.1,0C14.7,50.7,14.7,50.7,14.6,50.7z M14,44c-0.6,0-1.3,0.4-1.6,1.1c-0.2,0.4-0.4,1.1,0,2.1
				c0.4,0.9,1.1,1.9,2.2,2.8c1.4-0.4,2.5-1,3.2-1.8c0.7-0.8,0.8-1.5,0.8-1.9c0-0.8-0.6-1.5-1.3-1.7c-0.5-0.1-0.9,0-1.4,0.4
				c-0.1,0.1-0.2,0.1-0.3,0.1c-0.1,0-0.2-0.1-0.2-0.2c-0.3-0.5-0.6-0.8-1.1-0.9C14.2,44,14.1,44,14,44z"/>
		</g>
	</g>
</g>
</svg>
