<?xml version="1.0" encoding="utf-8"?>
<!-- Generator: Adobe Illustrator 22.0.1, SVG Export Plug-In . SVG Version: 6.00 Build 0)  -->
<svg version="1.1" id="Layer_1" xmlns="http://www.w3.org/2000/svg" xmlns:xlink="http://www.w3.org/1999/xlink" x="0px" y="0px"
	 viewBox="0 0 104.6 108.2" style="enable-background:new 0 0 104.6 108.2;" xml:space="preserve">
<style type="text/css">
	.st0{fill:#FFFFFF;}
	.st1{fill:#FFCC30;}
	.st2{fill-rule:evenodd;clip-rule:evenodd;fill:#231F20;}
	.st3{fill:#FFCC31;}
	.st4{fill:#231F20;}
	.st5{fill:#ECB32C;}
	.st6{fill:#78D0FF;}
	.st7{fill:#1C1D1A;}
	.st8{fill:#FF3529;}
	.st9{fill:#36C000;}
	.st10{fill:#FF5C29;}
	.st11{fill-rule:evenodd;clip-rule:evenodd;fill:#EA638D;}
	.st12{fill:#F8C80F;}
	.st13{fill:#010101;}
	.st14{clip-path:url(#SVGID_3_);}
	.st15{clip-path:url(#SVGID_4_);}
	.st16{fill:#FFB900;}
	.st17{fill:#B96D00;}
	.st18{fill:#FF7B00;}
	.st19{fill:#CBCBCB;}
	.st20{fill:#FF506F;}
	.st21{fill:#87F0FF;}
	.st22{fill:#020202;}
	.st23{clip-path:url(#SVGID_6_);}
	.st24{clip-path:url(#SVGID_8_);}
	.st25{clip-path:url(#SVGID_11_);}
	.st26{clip-path:url(#SVGID_12_);}
	.st27{clip-path:url(#SVGID_14_);}
	.st28{clip-path:url(#SVGID_16_);}
	.st29{clip-path:url(#SVGID_19_);}
	.st30{clip-path:url(#SVGID_20_);}
	.st31{clip-path:url(#SVGID_22_);}
	.st32{clip-path:url(#SVGID_24_);}
</style>
<g>
	<g>
		<circle class="st0" cx="52" cy="58.2" r="48"/>
		<path class="st1" d="M52,108.2c-27.6,0-50-22.4-50-50c0-27.6,22.4-50,50-50c27.6,0,50,22.4,50,50C102,85.8,79.6,108.2,52,108.2z
			 M52,12.3c-25.3,0-45.9,20.6-45.9,45.9c0,25.3,20.6,45.9,45.9,45.9c25.3,0,45.9-20.6,45.9-45.9C97.9,32.9,77.3,12.3,52,12.3z"/>
	</g>
	<g>
		<g>
			<path class="st2" d="M61.3,75.2l26.3-29.9c0,0-0.9-3-0.3-3.3c0.6-0.4,1.8,2.1,1.8,2.1s2.3-2.1,3.1-1.9c0.7,0.1-1.8,3-1.8,3
				s2.8-1.7,3.4-0.8c0.6,0.9-2.8,1.9-2.8,1.9s2.5,1.4,2.2,2.1c-0.3,0.7-2.9-0.6-2.9-0.6s1.4,1.1,1.1,2.2s-2.6-2.2-2.6-2.2L66.2,76.2
				L61.3,75.2z"/>
		</g>
	</g>
	<g>
		<g>
			<path class="st2" d="M35.1,74.6L21.4,45.2c0,0,1.7-2.6,1.2-3.1c-0.5-0.5-2.4,1.5-2.4,1.5s-1.7-2.6-2.4-2.7
				c-0.7-0.1,0.9,3.4,0.9,3.4s-2.3-2.4-3.1-1.7c-0.8,0.7,2.2,2.7,2.2,2.7s-2.8,0.6-2.7,1.4c0.1,0.8,3,0.3,3,0.3s-1.7,0.7-1.7,1.7
				c0,1.1,3.1-1.3,3.1-1.3l12.2,29.9C32.9,76.4,34,75.5,35.1,74.6"/>
		</g>
	</g>
	<g>
		<g>
			<path class="st3" d="M50.2,106.2c5-7.8,8.8-17.8,9.8-30.4"/>
		</g>
		<g>
			<path class="st3" d="M60,75.8c0,0,6.7-37-24.6-61.5c-3.2-0.3-5.4-1.1-6.9-1.9c-2.8,1.8-4,3.6-4.5,4.9
				c18.7,25.1,9.6,57.2-1.3,79.7c0,0,11.7,10.2,30.6,10.2"/>
		</g>
	</g>
	<g>
		<g>
			<path class="st4" d="M35.5,101.9C35.6,101.8,35.6,101.8,35.5,101.9c1.9-2.6,3.8-5.3,5.6-8.2c0.9-1.4,1.8-3,2.6-4.5
				c0.8-1.6,1.6-3.1,2.4-4.8c1.5-3.2,2.8-6.7,3.8-10.2c1-3.5,1.7-7.1,2-10.6c0.3-3.6,0.2-7.1-0.3-10.5c-0.5-3.4-1.3-6.6-2.3-9.5
				c-0.3-0.7-0.5-1.5-0.8-2.2c-0.3-0.7-0.6-1.4-0.9-2.1c-0.3-0.7-0.6-1.3-1-1.9c-0.3-0.6-0.7-1.2-1-1.8c-1.3-2.4-2.7-4.5-4-6.3
				c-0.3-0.4-0.6-0.9-1-1.3c-0.3-0.4-0.6-0.8-0.9-1.2c-0.3-0.4-0.6-0.7-0.9-1.1c-0.3-0.3-0.6-0.7-0.8-1c-0.5-0.6-1-1.1-1.4-1.6
				c-0.4-0.5-0.8-0.8-1.1-1.2c-0.6-0.6-0.9-1-0.9-1s0.3,0.3,0.9,0.9c0.3,0.3,0.7,0.7,1.1,1.1c0.4,0.4,0.9,1,1.5,1.6
				c0.3,0.3,0.6,0.6,0.9,0.9c0.3,0.3,0.6,0.7,0.9,1.1c0.3,0.4,0.6,0.7,1,1.1c0.3,0.4,0.7,0.8,1,1.3c0.7,0.9,1.4,1.8,2.1,2.9
				c0.4,0.5,0.7,1.1,1.1,1.6c0.2,0.3,0.4,0.6,0.5,0.8c0.2,0.3,0.3,0.6,0.5,0.9c0.3,0.6,0.7,1.2,1,1.8c0.3,0.6,0.7,1.3,1,2
				c0.3,0.7,0.6,1.4,0.9,2.1c0.3,0.7,0.6,1.4,0.9,2.2c1.1,3,2,6.2,2.5,9.7c0.5,3.4,0.7,7,0.4,10.7c-0.3,3.6-0.9,7.3-2,10.9
				c-1,3.6-2.3,7-3.9,10.3c-1.5,3.3-3.3,6.4-5.1,9.3c-1.8,2.9-3.8,5.6-5.7,8.1"/>
		</g>
	</g>
	<g>
		<g>
			<path class="st4" d="M28.6,12.4c-1.9-1-2.6-2.1-2.6-2.1C18.7,0.2,15.4,2.9,15.4,2.9c-3.9,3.8,3.4,8.3,3.4,8.3c2,2,3.7,4,5.3,6.1
				C24.6,16,25.7,14.1,28.6,12.4"/>
		</g>
	</g>
	<g>
		<g>
			<path class="st5" d="M60,75.8c-1,12.4-4.1,20.8-9,28.5h6.5c12.9-20,11.4-40,11.4-40c-0.4-38.2-33.5-50-33.5-50
				C66.7,38.8,60,75.8,60,75.8z"/>
		</g>
	</g>
	<g>
		<g>
			<circle class="st0" cx="49.4" cy="71.1" r="5"/>
		</g>
		<g>
			<path d="M49.4,76.6c-3,0-5.5-2.5-5.5-5.5s2.5-5.5,5.5-5.5c3,0,5.5,2.5,5.5,5.5S52.5,76.6,49.4,76.6z M49.4,66.6
				c-2.5,0-4.5,2-4.5,4.5c0,2.5,2,4.5,4.5,4.5c2.5,0,4.5-2,4.5-4.5C53.9,68.6,51.9,66.6,49.4,66.6z"/>
		</g>
	</g>
	<g>
		<g>
			<path d="M49.8,81.6c-1.7,0-3.4-0.6-4.7-1.7c-0.2-0.2-0.2-0.5-0.1-0.7c0.2-0.2,0.5-0.2,0.7-0.1c2.4,2.1,6,2,8.4-0.2
				c0.2-0.2,0.5-0.2,0.7,0c0.2,0.2,0.2,0.5,0,0.7C53.4,80.9,51.6,81.6,49.8,81.6z"/>
		</g>
	</g>
	<g>
		<g>
			<path class="st6" d="M49.5,69.1H20.2c0-0.1,0-0.2,0-0.3c0-2.4-2.1-4.4-4.6-4.1c-1.9,0.2-3.4,1.7-3.6,3.6c-0.1,1.1,0.2,2.1,0.8,3
				c0.6,0.8,1.7,1.6,2.8,1.7c0.7,0.1,1.4,0,2.1,0c0.6,0,1.2,0,1.8,0c1.5,0,3.1,0,4.6,0c1.9,0,3.7,0,5.6,0c2,0,3.9,0,5.9,0
				c1.9,0,3.7,0,5.6,0c1.5,0,3.1,0,4.6,0c1,0,2,0,3,0c0.3,0,0.6,0,0.9,0c0.8,0,1.5-0.7,1.5-1.5v-0.8C51,69.8,50.3,69.1,49.5,69.1z"
				/>
		</g>
		<g>
			<path d="M16.2,73.4c-0.2,0-0.5,0-0.7,0c-1.3-0.1-2.5-1-3.1-1.9c-0.7-0.9-1-2.2-0.9-3.4c0.3-2.1,2-3.8,4.1-4
				c1.3-0.1,2.6,0.3,3.6,1.2c0.9,0.8,1.5,2,1.5,3.3h28.8c1.1,0,2,0.9,2,2v0.8c0,1.1-0.9,2-2,2H17.6c-0.2,0-0.5,0-0.7,0
				C16.7,73.4,16.4,73.4,16.2,73.4z M16.1,65.1c-0.1,0-0.3,0-0.4,0c-1.6,0.2-3,1.5-3.2,3.1c-0.1,0.9,0.1,1.9,0.7,2.6
				c0.6,0.8,1.6,1.4,2.4,1.5c0.4,0,0.9,0,1.3,0c0.2,0,0.5,0,0.7,0h31.9c0.6,0,1-0.5,1-1v-0.8c0-0.6-0.5-1-1-1H20.2
				c-0.1,0-0.3-0.1-0.4-0.2c-0.1-0.1-0.1-0.2-0.1-0.4c0-0.1,0-0.2,0-0.3c0-1-0.4-2-1.2-2.7C17.8,65.5,17,65.1,16.1,65.1z"/>
		</g>
	</g>
	<g>
		<g>
			<path class="st0" d="M36.8,55.6c-4.1,0-7.5-3.4-7.5-7.5c0-4.1,3.4-7.5,7.5-7.5c4.1,0,7.5,3.4,7.5,7.5
				C44.3,52.2,40.9,55.6,36.8,55.6"/>
		</g>
	</g>
	<g>
		<g>
			<path class="st7" d="M36.8,41.2c3.8,0,6.9,3.1,6.9,6.9c0,3.8-3.1,6.9-6.9,6.9c-3.8,0-6.9-3.1-6.9-6.9
				C29.9,44.3,33,41.2,36.8,41.2 M36.8,40c-4.5,0-8.1,3.6-8.1,8.1c0,4.5,3.6,8.1,8.1,8.1s8.1-3.6,8.1-8.1C44.9,43.6,41.3,40,36.8,40
				"/>
		</g>
	</g>
	<g>
		<g>
			<path class="st7" d="M38.2,48.1c0,0.7-0.6,1.4-1.4,1.4c-0.7,0-1.4-0.6-1.4-1.4c0-0.7,0.6-1.4,1.4-1.4
				C37.5,46.7,38.2,47.3,38.2,48.1"/>
		</g>
	</g>
	<g>
		<g>
			<path class="st0" d="M63.1,55.6c-4.1,0-7.5-3.4-7.5-7.5c0-4.1,3.4-7.5,7.5-7.5c4.1,0,7.5,3.4,7.5,7.5
				C70.6,52.2,67.2,55.6,63.1,55.6"/>
		</g>
	</g>
	<g>
		<g>
			<path class="st7" d="M63.1,41.2c3.8,0,6.9,3.1,6.9,6.9c0,3.8-3.1,6.9-6.9,6.9c-3.8,0-6.9-3.1-6.9-6.9
				C56.2,44.3,59.3,41.2,63.1,41.2 M63.1,40c-4.5,0-8.1,3.6-8.1,8.1c0,4.5,3.6,8.1,8.1,8.1s8.1-3.6,8.1-8.1
				C71.2,43.6,67.5,40,63.1,40"/>
		</g>
	</g>
	<g>
		<g>
			<path class="st7" d="M64.4,48.1c0,0.7-0.6,1.4-1.4,1.4c-0.7,0-1.4-0.6-1.4-1.4c0-0.7,0.6-1.4,1.4-1.4
				C63.8,46.7,64.4,47.3,64.4,48.1"/>
		</g>
	</g>
	<g>
		<g>
			<polygon class="st8" points="40.8,90.9 35.8,93.8 30.8,96.7 30.8,90.9 30.8,85.1 35.8,88 			"/>
		</g>
		<g>
			<path d="M30.8,97.2c-0.1,0-0.2,0-0.3-0.1c-0.2-0.1-0.3-0.3-0.3-0.4V85.1c0-0.2,0.1-0.3,0.3-0.4c0.2-0.1,0.3-0.1,0.5,0l10,5.8
				c0.2,0.1,0.3,0.3,0.3,0.4s-0.1,0.3-0.3,0.4l-10,5.8C30.9,97.2,30.9,97.2,30.8,97.2z M31.3,86v9.9l8.5-4.9L31.3,86z"/>
		</g>
	</g>
	<g>
		<g>
			<polygon class="st8" points="40.7,90.9 45.7,93.8 50.7,96.7 50.7,90.9 50.7,85.1 45.7,88 			"/>
		</g>
		<g>
			<path d="M50.7,97.2c-0.1,0-0.2,0-0.3-0.1l-10-5.8c-0.2-0.1-0.3-0.3-0.3-0.4s0.1-0.3,0.3-0.4l10-5.8c0.2-0.1,0.3-0.1,0.5,0
				c0.2,0.1,0.3,0.3,0.3,0.4v11.6c0,0.2-0.1,0.3-0.3,0.4C50.9,97.2,50.8,97.2,50.7,97.2z M41.7,90.9l8.5,4.9V86L41.7,90.9z"/>
		</g>
	</g>
	<g id="XMLID_4_">
		<g>
			<path class="st6" d="M31.8,30.4c0.1,2.1,5.5,4,12,3.7s11.7-2.7,11.6-4.8l0,0L42.2,0.4L31.8,30.4"/>
		</g>
		<g>
			<path d="M42.4,34.6c-2.6,0-5.1-0.3-7.1-1c-2.5-0.8-3.9-1.9-3.9-3.2c0-0.1,0-0.1,0-0.2l10.4-30c0.1-0.2,0.2-0.3,0.5-0.3
				c0.2,0,0.4,0.1,0.5,0.3l13.2,28.8c0,0.1,0,0.1,0,0.2c0.1,1.3-1.2,2.5-3.6,3.6c-2.3,1-5.3,1.6-8.5,1.8
				C43.3,34.6,42.9,34.6,42.4,34.6z M32.3,30.5c0.1,0.6,1,1.5,3.2,2.2c2.3,0.7,5.2,1.1,8.2,0.9c3-0.1,5.9-0.8,8.1-1.7
				c2.2-0.9,3-1.9,3-2.5L42.2,1.8L32.3,30.5z"/>
		</g>
	</g>
</g>
</svg>
