<?xml version="1.0" encoding="utf-8"?>
<!-- Generator: Adobe Illustrator 22.0.1, SVG Export Plug-In . SVG Version: 6.00 Build 0)  -->
<svg version="1.1" id="Layer_1" xmlns="http://www.w3.org/2000/svg" xmlns:xlink="http://www.w3.org/1999/xlink" x="0px" y="0px"
	 viewBox="0 0 104.6 108.2" style="enable-background:new 0 0 104.6 108.2;" xml:space="preserve">
<style type="text/css">
	.st0{fill:#FFFFFF;}
	.st1{fill:#FFCC30;}
	.st2{fill-rule:evenodd;clip-rule:evenodd;fill:#231F20;}
	.st3{fill:#FFCC31;}
	.st4{fill:#231F20;}
	.st5{fill:#ECB32C;}
	.st6{fill:#78D0FF;}
	.st7{fill:#1C1D1A;}
	.st8{fill:#FF3529;}
	.st9{fill:#36C000;}
	.st10{fill:#FF5C29;}
	.st11{fill-rule:evenodd;clip-rule:evenodd;fill:#EA638D;}
	.st12{fill:#F8C80F;}
	.st13{fill:#010101;}
	.st14{clip-path:url(#SVGID_3_);}
	.st15{clip-path:url(#SVGID_4_);}
	.st16{fill:#FFB900;}
	.st17{fill:#B96D00;}
	.st18{fill:#FF7B00;}
	.st19{fill:#CBCBCB;}
	.st20{fill:#FF506F;}
	.st21{fill:#87F0FF;}
	.st22{fill:#020202;}
	.st23{clip-path:url(#SVGID_6_);}
	.st24{clip-path:url(#SVGID_8_);}
	.st25{clip-path:url(#SVGID_11_);}
	.st26{clip-path:url(#SVGID_12_);}
	.st27{clip-path:url(#SVGID_14_);}
	.st28{clip-path:url(#SVGID_16_);}
	.st29{clip-path:url(#SVGID_19_);}
	.st30{clip-path:url(#SVGID_20_);}
	.st31{clip-path:url(#SVGID_22_);}
	.st32{clip-path:url(#SVGID_24_);}
</style>
<g>
	<g>
		<circle class="st0" cx="52.2" cy="56.9" r="48"/>
		<path class="st1" d="M52.2,106.9c-27.6,0-50-22.4-50-50s22.4-50,50-50c27.6,0,50,22.4,50,50S79.7,106.9,52.2,106.9z M52.2,11
			C26.8,11,6.2,31.6,6.2,56.9s20.6,45.9,45.9,45.9c25.3,0,45.9-20.6,45.9-45.9S77.5,11,52.2,11z"/>
	</g>
	<g>
		<g>
			<path class="st2" d="M65.2,66.1c0,0,6.1,1.6,8.7,9.8c2.6,8.2-1.1,15.4-1.1,15.4s-1.3-1.7-2.1-1.1c-0.9,0.6,1.2,1.7,1.2,1.7
				s-2.1,0.6-1.9,1.3c0.2,0.7,1.9-0.5,1.9-0.5s-1.5,2-0.8,2.2c0.7,0.2,1.2-1.7,1.2-1.7s0,1.9,0.8,1.8c0.8-0.1,0.3-1.6,0.2-1.8
				c-0.1-0.1-0.1-0.2-0.1-0.2s1.6,0.8,1.8,0c0.2-0.8-1.4-0.9-1.4-0.9s4.2-6.7,3.1-15.8c-1.1-9.1-9.9-13.6-9.9-13.6L65.2,66.1z"/>
		</g>
	</g>
	<g>
		<g>
			<path class="st2" d="M37.5,60.7c0,0-5.9-2.2-12.8,3.1C17.9,69,16.9,77,16.9,77s2-0.7,2.3,0.3c0.4,1-2,0.7-2,0.7s1.4,1.7,0.8,2.1
				c-0.6,0.4-1.3-1.5-1.3-1.5s0.1,2.5-0.6,2.2c-0.7-0.2,0-2,0-2s-1.1,1.5-1.7,1c-0.6-0.5,0.7-1.5,0.8-1.6c0.2-0.1,0.2-0.1,0.2-0.1
				s-1.7-0.3-1.5-1c0.3-0.8,1.6,0.1,1.6,0.1s0.4-7.9,6.5-14.7c6.1-6.8,15.9-5.5,15.9-5.5L37.5,60.7z"/>
		</g>
	</g>
	<g>
		<g>
			<path class="st3" d="M50.4,104.9c5-7.8,8.8-17.8,9.8-30.4"/>
		</g>
		<g>
			<path class="st3" d="M60.1,74.5c0,0,6.7-37-24.6-61.5c-3.2-0.3-5.4-1.1-6.9-1.9c-2.8,1.8-4,3.6-4.5,4.9
				C43,41.1,33.8,73.2,23,95.6c0,0,11.7,10.2,30.6,10.2"/>
		</g>
	</g>
	<g>
		<g>
			<path class="st4" d="M35.7,100.5C35.7,100.5,35.7,100.5,35.7,100.5c1.9-2.6,3.8-5.3,5.6-8.2c0.9-1.4,1.8-3,2.6-4.5
				c0.8-1.6,1.6-3.1,2.4-4.8c1.5-3.2,2.8-6.7,3.8-10.2c1-3.5,1.7-7.1,2-10.6c0.3-3.6,0.2-7.1-0.3-10.5c-0.5-3.4-1.3-6.6-2.3-9.5
				c-0.3-0.7-0.5-1.5-0.8-2.2c-0.3-0.7-0.6-1.4-0.9-2.1c-0.3-0.7-0.6-1.3-1-1.9c-0.3-0.6-0.7-1.2-1-1.8c-1.3-2.4-2.7-4.5-4-6.3
				c-0.3-0.4-0.6-0.9-1-1.3c-0.3-0.4-0.6-0.8-0.9-1.2c-0.3-0.4-0.6-0.7-0.9-1.1c-0.3-0.3-0.6-0.7-0.8-1c-0.5-0.6-1-1.1-1.4-1.6
				c-0.4-0.5-0.8-0.8-1.1-1.2c-0.6-0.6-0.9-1-0.9-1s0.3,0.3,0.9,0.9c0.3,0.3,0.7,0.7,1.1,1.1c0.4,0.4,0.9,1,1.5,1.6
				c0.3,0.3,0.6,0.6,0.9,0.9c0.3,0.3,0.6,0.7,0.9,1.1c0.3,0.4,0.6,0.7,1,1.1c0.3,0.4,0.7,0.8,1,1.3c0.7,0.9,1.4,1.8,2.1,2.9
				c0.4,0.5,0.7,1.1,1.1,1.6c0.2,0.3,0.4,0.6,0.5,0.8c0.2,0.3,0.3,0.6,0.5,0.9c0.3,0.6,0.7,1.2,1,1.8c0.3,0.6,0.7,1.3,1,2
				c0.3,0.7,0.6,1.4,0.9,2.1c0.3,0.7,0.6,1.4,0.9,2.2c1.1,3,2,6.2,2.5,9.7c0.5,3.4,0.7,7,0.4,10.7c-0.3,3.6-0.9,7.3-2,10.9
				c-1,3.6-2.3,7-3.9,10.3c-1.5,3.3-3.3,6.4-5.1,9.3c-1.8,2.9-3.8,5.6-5.7,8.1"/>
		</g>
	</g>
	<g>
		<g>
			<path class="st4" d="M28.7,11C26.8,10,26.2,9,26.2,9C18.9-1.2,15.6,1.6,15.6,1.6C11.7,5.4,19,9.9,19,9.9c2,2,3.7,4,5.3,6.1
				C24.7,14.7,25.9,12.8,28.7,11"/>
		</g>
	</g>
	<g>
		<g>
			<path class="st5" d="M60.1,74.5c-1,12.4-4.1,20.8-9,28.5h6.5c12.9-20,11.4-40,11.4-40c-0.4-38.2-33.5-50-33.5-50
				C66.8,37.5,60.1,74.5,60.1,74.5z"/>
		</g>
	</g>
	<g>
		<g>
			<path class="st0" d="M38.1,45.1h-5.2c0,3.9,3.2,7.1,7.1,7.1c3.9,0,7.1-3.2,7.1-7.1h-5.7H38.1z"/>
		</g>
	</g>
	<g>
		<g>
			<path class="st7" d="M40,52.7c-4.2,0-7.6-3.4-7.6-7.6v-0.6h15.3v0.6C47.6,49.3,44.2,52.7,40,52.7 M33.5,45.7
				c0.3,3.3,3.1,5.9,6.5,5.9c3.4,0,6.2-2.6,6.5-5.9H33.5z"/>
		</g>
	</g>
	<g>
		<g>
			<path class="st7" d="M41.4,45.1c0,0.9-0.7,1.6-1.6,1.6c-0.9,0-1.6-0.7-1.6-1.6H41.4z"/>
		</g>
	</g>
	<g>
		<g>
			<path class="st13" d="M47,41.3l-14.2-5.4c-0.3-0.1-0.4-0.4-0.3-0.7c0.1-0.3,0.4-0.4,0.7-0.3l14.2,5.4c0.3,0.1,0.4,0.4,0.3,0.7
				C47.6,41.2,47.3,41.4,47,41.3"/>
		</g>
	</g>
	<g>
		<g>
			<path class="st13" d="M55.4,41.3l14.2-5.4c0.3-0.1,0.4-0.4,0.3-0.7c-0.1-0.3-0.4-0.4-0.7-0.3L55,40.2c-0.3,0.1-0.4,0.4-0.3,0.7
				C54.8,41.2,55.1,41.4,55.4,41.3"/>
		</g>
	</g>
	<g>
		<g>
			<path class="st0" d="M60.3,45.1h-5.2c0,3.9,3.2,7.1,7.1,7.1s7.1-3.2,7.1-7.1h-5.7H60.3z"/>
		</g>
	</g>
	<g>
		<g>
			<path class="st7" d="M62.1,52.7c-4.2,0-7.6-3.4-7.6-7.6v-0.6h15.3v0.6C69.8,49.3,66.3,52.7,62.1,52.7 M55.7,45.7
				c0.3,3.3,3.1,5.9,6.5,5.9c3.4,0,6.2-2.6,6.5-5.9H55.7z"/>
		</g>
	</g>
	<g>
		<g>
			<path class="st7" d="M63.5,45.1c0,0.9-0.7,1.6-1.6,1.6c-0.9,0-1.6-0.7-1.6-1.6H63.5z"/>
		</g>
	</g>
	<g>
		<g>
			<path d="M41.9,61.5c-0.1,0-0.2,0-0.3-0.1c-0.2-0.1-0.3-0.4-0.2-0.7c1.9-3.3,5.4-5.3,9.2-5.3s7.3,2,9.2,5.3
				c0.1,0.2,0.1,0.5-0.2,0.7c-0.2,0.1-0.5,0.1-0.7-0.2c-1.7-2.9-4.9-4.8-8.3-4.8c-3.4,0-6.6,1.8-8.3,4.8
				C42.3,61.4,42.1,61.5,41.9,61.5z"/>
		</g>
	</g>
</g>
</svg>
