<?xml version="1.0" encoding="utf-8"?>
<!-- Generator: Adobe Illustrator 22.0.1, SVG Export Plug-In . SVG Version: 6.00 Build 0)  -->
<svg version="1.1" id="Layer_1" xmlns="http://www.w3.org/2000/svg" xmlns:xlink="http://www.w3.org/1999/xlink" x="0px" y="0px"
	 viewBox="0 0 104.6 108.2" style="enable-background:new 0 0 104.6 108.2;" xml:space="preserve">
<style type="text/css">
	.st0{fill:#FFFFFF;}
	.st1{fill:#FFCC30;}
	.st2{fill-rule:evenodd;clip-rule:evenodd;fill:#231F20;}
	.st3{fill:#FFCC31;}
	.st4{fill:#231F20;}
	.st5{fill:#ECB32C;}
	.st6{fill:#78D0FF;}
	.st7{fill:#1C1D1A;}
	.st8{fill:#FF3529;}
	.st9{fill:#36C000;}
	.st10{fill:#FF5C29;}
	.st11{fill-rule:evenodd;clip-rule:evenodd;fill:#EA638D;}
	.st12{fill:#F8C80F;}
	.st13{fill:#010101;}
	.st14{clip-path:url(#SVGID_3_);}
	.st15{clip-path:url(#SVGID_4_);}
	.st16{fill:#FFB900;}
	.st17{fill:#B96D00;}
	.st18{fill:#FF7B00;}
	.st19{fill:#CBCBCB;}
	.st20{fill:#FF506F;}
	.st21{fill:#87F0FF;}
	.st22{fill:#020202;}
	.st23{clip-path:url(#SVGID_6_);}
	.st24{clip-path:url(#SVGID_8_);}
	.st25{clip-path:url(#SVGID_11_);}
	.st26{clip-path:url(#SVGID_12_);}
	.st27{clip-path:url(#SVGID_14_);}
	.st28{clip-path:url(#SVGID_16_);}
	.st29{clip-path:url(#SVGID_19_);}
	.st30{clip-path:url(#SVGID_20_);}
	.st31{clip-path:url(#SVGID_22_);}
	.st32{clip-path:url(#SVGID_24_);}
</style>
<g>
	<g>
		<g>
			<circle class="st0" cx="52.1" cy="56.9" r="48"/>
			<path class="st1" d="M52.1,106.9c-27.6,0-50-22.4-50-50s22.4-50,50-50c27.6,0,50,22.4,50,50S79.7,106.9,52.1,106.9z M52.1,11
				C26.8,11,6.2,31.6,6.2,56.9s20.6,45.9,45.9,45.9c25.3,0,45.9-20.6,45.9-45.9S77.4,11,52.1,11z"/>
		</g>
		<g>
			<g>
				<path class="st2" d="M61.4,73.9L87.7,44c0,0-0.9-3-0.3-3.3c0.6-0.4,1.8,2.1,1.8,2.1s2.3-2.1,3.1-1.9c0.7,0.1-1.8,3-1.8,3
					s2.8-1.7,3.4-0.8c0.6,0.9-2.8,1.9-2.8,1.9s2.5,1.4,2.2,2.1c-0.3,0.7-2.9-0.6-2.9-0.6s1.4,1.1,1.1,2.2c-0.3,1-2.6-2.2-2.6-2.2
					L66.3,74.9L61.4,73.9z"/>
			</g>
		</g>
		<g>
			<g>
				<path class="st2" d="M35.2,73.3L21.5,43.9c0,0,1.7-2.6,1.2-3.1c-0.5-0.5-2.4,1.5-2.4,1.5s-1.7-2.6-2.4-2.7
					c-0.7-0.1,0.9,3.4,0.9,3.4s-2.3-2.4-3.1-1.7c-0.8,0.7,2.2,2.7,2.2,2.7s-2.8,0.6-2.7,1.4c0.1,0.8,3,0.3,3,0.3s-1.7,0.7-1.7,1.7
					c0,1.1,3.1-1.3,3.1-1.3l12.2,29.9C32.9,75.1,34.1,74.2,35.2,73.3"/>
			</g>
		</g>
		<g>
			<g>
				<path class="st3" d="M50.3,104.9c5-7.8,8.8-17.8,9.8-30.4"/>
			</g>
			<g>
				<path class="st3" d="M60.1,74.5c0,0,6.7-37-24.6-61.5c-3.2-0.3-5.4-1.1-6.9-1.9c-2.8,1.8-4,3.6-4.5,4.9
					c18.7,25.1,9.6,57.2-1.3,79.7c0,0,11.7,10.2,30.6,10.2"/>
			</g>
		</g>
		<g>
			<g>
				<path class="st4" d="M35.6,100.5C35.6,100.5,35.7,100.5,35.6,100.5c1.9-2.6,3.8-5.3,5.6-8.2c0.9-1.4,1.8-3,2.6-4.5
					c0.8-1.6,1.6-3.1,2.4-4.8c1.5-3.2,2.8-6.7,3.8-10.2c1-3.5,1.7-7.1,2-10.6c0.3-3.6,0.2-7.1-0.3-10.5c-0.5-3.4-1.3-6.6-2.3-9.5
					c-0.3-0.7-0.5-1.5-0.8-2.2c-0.3-0.7-0.6-1.4-0.9-2.1c-0.3-0.7-0.6-1.3-1-1.9c-0.3-0.6-0.7-1.2-1-1.8c-1.3-2.4-2.7-4.5-4-6.3
					c-0.3-0.4-0.6-0.9-1-1.3c-0.3-0.4-0.6-0.8-0.9-1.2c-0.3-0.4-0.6-0.7-0.9-1.1c-0.3-0.3-0.6-0.7-0.8-1c-0.5-0.6-1-1.1-1.4-1.6
					c-0.4-0.5-0.8-0.8-1.1-1.2c-0.6-0.6-0.9-1-0.9-1s0.3,0.3,0.9,0.9c0.3,0.3,0.7,0.7,1.1,1.1c0.4,0.4,0.9,1,1.5,1.6
					c0.3,0.3,0.6,0.6,0.9,0.9c0.3,0.3,0.6,0.7,0.9,1.1c0.3,0.4,0.6,0.7,1,1.1c0.3,0.4,0.7,0.8,1,1.3c0.7,0.9,1.4,1.8,2.1,2.9
					c0.4,0.5,0.7,1.1,1.1,1.6c0.2,0.3,0.4,0.6,0.5,0.8c0.2,0.3,0.3,0.6,0.5,0.9c0.3,0.6,0.7,1.2,1,1.8c0.3,0.6,0.7,1.3,1,2
					c0.3,0.7,0.6,1.4,0.9,2.1c0.3,0.7,0.6,1.4,0.9,2.2c1.1,3,2,6.2,2.5,9.7c0.5,3.4,0.7,7,0.4,10.7c-0.3,3.6-0.9,7.3-2,10.9
					c-1,3.6-2.3,7-3.9,10.3c-1.5,3.3-3.3,6.4-5.1,9.3c-1.8,2.9-3.8,5.6-5.7,8.1"/>
			</g>
		</g>
		<g>
			<g>
				<path class="st4" d="M28.6,11C26.8,10,26.1,9,26.1,9C18.8-1.2,15.5,1.6,15.5,1.6c-3.9,3.8,3.4,8.3,3.4,8.3c2,2,3.7,4,5.3,6.1
					C24.7,14.7,25.8,12.8,28.6,11"/>
			</g>
		</g>
		<g>
			<g>
				<path class="st5" d="M60.1,74.5c-1,12.4-4.1,20.8-9,28.5h6.5C70.5,83,69,63,69,63c-0.4-38.2-33.5-50-33.5-50
					C66.7,37.5,60.1,74.5,60.1,74.5z"/>
			</g>
		</g>
	</g>
	<g>
		<g>
			<path class="st7" d="M49.9,73.4c-3.1,0-6-1.7-7.5-4.4c-0.4-0.6-0.6-1.3-0.8-2c-0.2-0.7-0.3-1.5-0.3-2.3c0-4.8,3.9-8.7,8.7-8.7
				c4.8,0,8.7,3.9,8.7,8.7c0,0.3,0,0.5,0,0.8c0,0.5-0.1,1-0.3,1.5C57.2,70.8,53.8,73.4,49.9,73.4"/>
		</g>
	</g>
	<g>
		<g>
			<path class="st7" d="M49.9,56.5c4.5,0,8.2,3.7,8.2,8.2c0,0.2,0,0.5,0,0.7c0,0.5-0.1,1-0.3,1.4c-0.9,3.5-4.1,6.1-7.9,6.1
				c-3.1,0-5.7-1.7-7.1-4.2c-0.3-0.6-0.6-1.2-0.8-1.9c-0.2-0.7-0.3-1.4-0.3-2.1C41.7,60.2,45.4,56.5,49.9,56.5 M49.9,55.6
				c-5,0-9.1,4.1-9.1,9.1c0,0.8,0.1,1.6,0.3,2.4c0.2,0.7,0.5,1.5,0.9,2.1c1.6,2.9,4.7,4.6,7.9,4.6c4.1,0,7.7-2.8,8.8-6.7
				c0.1-0.5,0.2-1,0.3-1.6c0-0.2,0-0.5,0-0.8C59,59.7,54.9,55.6,49.9,55.6"/>
		</g>
	</g>
	<g>
		<g>
			<path class="st10" d="M58.1,65.4c0,0.5-0.1,1-0.3,1.4c-0.9,3.5-4.1,6.1-7.9,6.1c-3.1,0-5.7-1.7-7.1-4.2c-0.3-0.6-0.6-1.2-0.8-1.9
				c1.1-0.8,2.4-1.3,3.8-1.3c0,0,0.1,0,0.1,0c1,0.1,3.4,0.7,4.8,2.6c0.1,0.1,0.2,0.1,0.3,0.1c0.1,0,0.1,0,0.2-0.1
				c0.2-0.1,0.2-0.3,0.1-0.5c-0.5-0.6-1-1.1-1.5-1.5c1.1-1.2,2.8-2,4.6-2C55.8,64.3,57,64.7,58.1,65.4"/>
		</g>
	</g>
	<g>
		<g>
			<path class="st0" d="M39.7,50.4c-2.5,0-4.6-2.6-4.6-5.8c0-3.2,2.1-5.8,4.6-5.8c2.5,0,4.6,2.6,4.6,5.8
				C44.3,47.8,42.2,50.4,39.7,50.4"/>
		</g>
	</g>
	<g>
		<g>
			<path class="st7" d="M39.7,39.2c2.3,0,4.1,2.4,4.1,5.3c0,2.9-1.8,5.3-4.1,5.3s-4.1-2.4-4.1-5.3C35.6,41.6,37.4,39.2,39.7,39.2
				 M39.7,38.3c-2.8,0-5,2.8-5,6.3c0,3.4,2.3,6.3,5,6.3s5-2.8,5-6.3C44.7,41.1,42.5,38.3,39.7,38.3"/>
		</g>
	</g>
	<g>
		<g>
			<path class="st7" d="M40.5,44.6c0,0.6-0.4,1-0.8,1s-0.8-0.5-0.8-1c0-0.6,0.4-1,0.8-1S40.5,44,40.5,44.6"/>
		</g>
	</g>
	<g>
		<g>
			<path class="st7" d="M36.4,38.7c-0.1,0-0.2,0-0.3-0.1l-2.3-2.3c-0.2-0.2-0.2-0.5,0-0.6c0.2-0.2,0.5-0.2,0.6,0l2.3,2.3
				c0.2,0.2,0.2,0.5,0,0.6C36.7,38.6,36.5,38.7,36.4,38.7"/>
		</g>
	</g>
	<g>
		<g>
			<path class="st7" d="M43.2,38.7c-0.1,0-0.2,0-0.3-0.1c-0.2-0.2-0.2-0.5,0-0.6l2.3-2.3c0.2-0.2,0.5-0.2,0.6,0
				c0.2,0.2,0.2,0.5,0,0.6l-2.3,2.3C43.4,38.6,43.3,38.7,43.2,38.7"/>
		</g>
	</g>
	<g>
		<g>
			<path class="st7" d="M39.7,37.5c-0.3,0-0.5-0.2-0.5-0.5v-2.3c0-0.3,0.2-0.5,0.5-0.5c0.3,0,0.5,0.2,0.5,0.5v2.3
				C40.2,37.3,40,37.5,39.7,37.5"/>
		</g>
	</g>
	<g>
		<g>
			<path class="st0" d="M58.1,50.4c-2.5,0-4.6-2.6-4.6-5.8c0-3.2,2.1-5.8,4.6-5.8c2.5,0,4.6,2.6,4.6,5.8
				C62.7,47.8,60.6,50.4,58.1,50.4"/>
		</g>
	</g>
	<g>
		<g>
			<path class="st7" d="M58.1,39.2c2.3,0,4.1,2.4,4.1,5.3c0,2.9-1.8,5.3-4.1,5.3c-2.3,0-4.1-2.4-4.1-5.3
				C54,41.6,55.8,39.2,58.1,39.2 M58.1,38.3c-2.8,0-5,2.8-5,6.3c0,3.4,2.3,6.3,5,6.3c2.8,0,5-2.8,5-6.3
				C63.1,41.1,60.9,38.3,58.1,38.3"/>
		</g>
	</g>
	<g>
		<g>
			<path class="st7" d="M58.9,44.6c0,0.6-0.4,1-0.8,1c-0.4,0-0.8-0.5-0.8-1c0-0.6,0.4-1,0.8-1C58.5,43.5,58.9,44,58.9,44.6"/>
		</g>
	</g>
	<g>
		<g>
			<path class="st7" d="M54.9,38.7c-0.1,0-0.2,0-0.3-0.1l-2.3-2.3c-0.2-0.2-0.2-0.5,0-0.6c0.2-0.2,0.5-0.2,0.6,0l2.3,2.3
				c0.2,0.2,0.2,0.5,0,0.6C55.1,38.6,55,38.7,54.9,38.7"/>
		</g>
	</g>
	<g>
		<g>
			<path class="st7" d="M61.7,38.7c-0.1,0-0.2,0-0.3-0.1c-0.2-0.2-0.2-0.5,0-0.6l2.3-2.3c0.2-0.2,0.5-0.2,0.6,0
				c0.2,0.2,0.2,0.5,0,0.6L62,38.5C61.9,38.6,61.8,38.7,61.7,38.7"/>
		</g>
	</g>
	<g>
		<g>
			<path class="st7" d="M58.2,37.5c-0.3,0-0.5-0.2-0.5-0.5v-2.3c0-0.3,0.2-0.5,0.5-0.5c0.3,0,0.5,0.2,0.5,0.5v2.3
				C58.6,37.3,58.4,37.5,58.2,37.5"/>
		</g>
	</g>
</g>
</svg>
