<?xml version="1.0" encoding="utf-8"?>
<!-- Generator: Adobe Illustrator 22.0.1, SVG Export Plug-In . SVG Version: 6.00 Build 0)  -->
<svg version="1.1" id="Layer_1" xmlns="http://www.w3.org/2000/svg" xmlns:xlink="http://www.w3.org/1999/xlink" x="0px" y="0px"
	 viewBox="0 0 104.6 108.2" style="enable-background:new 0 0 104.6 108.2;" xml:space="preserve">
<style type="text/css">
	.st0{fill:#FFFFFF;}
	.st1{fill:#FFCC30;}
	.st2{fill-rule:evenodd;clip-rule:evenodd;fill:#231F20;}
	.st3{fill:#FFCC31;}
	.st4{fill:#231F20;}
	.st5{fill:#ECB32C;}
	.st6{fill:#78D0FF;}
	.st7{fill:#1C1D1A;}
	.st8{fill:#FF3529;}
	.st9{fill:#36C000;}
	.st10{fill:#FF5C29;}
	.st11{fill-rule:evenodd;clip-rule:evenodd;fill:#EA638D;}
	.st12{fill:#F8C80F;}
	.st13{fill:#010101;}
	.st14{clip-path:url(#SVGID_3_);}
	.st15{clip-path:url(#SVGID_4_);}
	.st16{fill:#FFB900;}
	.st17{fill:#B96D00;}
	.st18{fill:#FF7B00;}
	.st19{fill:#CBCBCB;}
	.st20{fill:#FF506F;}
	.st21{fill:#87F0FF;}
	.st22{fill:#020202;}
	.st23{clip-path:url(#SVGID_6_);}
	.st24{clip-path:url(#SVGID_8_);}
	.st25{clip-path:url(#SVGID_11_);}
	.st26{clip-path:url(#SVGID_12_);}
	.st27{clip-path:url(#SVGID_14_);}
	.st28{clip-path:url(#SVGID_16_);}
	.st29{clip-path:url(#SVGID_19_);}
	.st30{clip-path:url(#SVGID_20_);}
	.st31{clip-path:url(#SVGID_22_);}
	.st32{clip-path:url(#SVGID_24_);}
</style>
<g>
	<g>
		<g>
			<circle class="st0" cx="51.9" cy="56.9" r="48"/>
			<path class="st1" d="M51.9,106.9c-27.6,0-50-22.4-50-50s22.4-50,50-50c27.6,0,50,22.4,50,50S79.5,106.9,51.9,106.9z M51.9,11
				C26.6,11,6,31.6,6,56.9s20.6,45.9,45.9,45.9c25.3,0,45.9-20.6,45.9-45.9S77.2,11,51.9,11z"/>
		</g>
		<g>
			<g>
				<path class="st2" d="M61.2,73.9L87.5,44c0,0-0.9-3-0.3-3.3c0.6-0.4,1.8,2.1,1.8,2.1s2.3-2.1,3.1-1.9c0.7,0.1-1.8,3-1.8,3
					s2.8-1.7,3.4-0.8c0.6,0.9-2.8,1.9-2.8,1.9s2.5,1.4,2.2,2.1c-0.3,0.7-2.9-0.6-2.9-0.6s1.4,1.1,1.1,2.2c-0.3,1-2.6-2.2-2.6-2.2
					L66.1,74.9L61.2,73.9z"/>
			</g>
		</g>
		<g>
			<g>
				<path class="st2" d="M35,73.3L21.3,43.9c0,0,1.7-2.6,1.2-3.1c-0.5-0.5-2.4,1.5-2.4,1.5s-1.7-2.6-2.4-2.7
					c-0.7-0.1,0.9,3.4,0.9,3.4s-2.3-2.4-3.1-1.7c-0.8,0.7,2.2,2.7,2.2,2.7s-2.8,0.6-2.7,1.4c0.1,0.8,3,0.3,3,0.3s-1.7,0.7-1.7,1.7
					c0,1.1,3.1-1.3,3.1-1.3l12.2,29.9C32.8,75.1,33.9,74.2,35,73.3"/>
			</g>
		</g>
		<g>
			<g>
				<path class="st3" d="M50.1,104.9c5-7.8,8.8-17.8,9.8-30.4"/>
			</g>
			<g>
				<path class="st3" d="M59.9,74.5c0,0,6.7-37-24.6-61.5c-3.2-0.3-5.4-1.1-6.9-1.9c-2.8,1.8-4,3.6-4.5,4.9
					c18.7,25.1,9.6,57.2-1.3,79.7c0,0,11.7,10.2,30.6,10.2"/>
			</g>
		</g>
		<g>
			<g>
				<path class="st4" d="M35.4,100.5C35.5,100.5,35.5,100.5,35.4,100.5c1.9-2.6,3.8-5.3,5.6-8.2c0.9-1.4,1.8-3,2.6-4.5
					c0.8-1.6,1.6-3.1,2.4-4.8c1.5-3.2,2.8-6.7,3.8-10.2c1-3.5,1.7-7.1,2-10.6c0.3-3.6,0.2-7.1-0.3-10.5c-0.5-3.4-1.3-6.6-2.3-9.5
					c-0.3-0.7-0.5-1.5-0.8-2.2c-0.3-0.7-0.6-1.4-0.9-2.1c-0.3-0.7-0.6-1.3-1-1.9c-0.3-0.6-0.7-1.2-1-1.8c-1.3-2.4-2.7-4.5-4-6.3
					c-0.3-0.4-0.6-0.9-1-1.3c-0.3-0.4-0.6-0.8-0.9-1.2c-0.3-0.4-0.6-0.7-0.9-1.1c-0.3-0.3-0.6-0.7-0.8-1c-0.5-0.6-1-1.1-1.4-1.6
					c-0.4-0.5-0.8-0.8-1.1-1.2c-0.6-0.6-0.9-1-0.9-1s0.3,0.3,0.9,0.9c0.3,0.3,0.7,0.7,1.1,1.1c0.4,0.4,0.9,1,1.5,1.6
					c0.3,0.3,0.6,0.6,0.9,0.9c0.3,0.3,0.6,0.7,0.9,1.1c0.3,0.4,0.6,0.7,1,1.1c0.3,0.4,0.7,0.8,1,1.3c0.7,0.9,1.4,1.8,2.1,2.9
					c0.4,0.5,0.7,1.1,1.1,1.6c0.2,0.3,0.4,0.6,0.5,0.8c0.2,0.3,0.3,0.6,0.5,0.9c0.3,0.6,0.7,1.2,1,1.8c0.3,0.6,0.7,1.3,1,2
					c0.3,0.7,0.6,1.4,0.9,2.1c0.3,0.7,0.6,1.4,0.9,2.2c1.1,3,2,6.2,2.5,9.7c0.5,3.4,0.7,7,0.4,10.7c-0.3,3.6-0.9,7.3-2,10.9
					c-1,3.6-2.3,7-3.9,10.3c-1.5,3.3-3.3,6.4-5.1,9.3c-1.8,2.9-3.8,5.6-5.7,8.1"/>
			</g>
		</g>
		<g>
			<g>
				<path class="st4" d="M28.4,11C26.6,10,25.9,9,25.9,9C18.6-1.2,15.3,1.6,15.3,1.6c-3.9,3.8,3.4,8.3,3.4,8.3c2,2,3.7,4,5.3,6.1
					C24.5,14.7,25.6,12.8,28.4,11"/>
			</g>
		</g>
		<g>
			<g>
				<path class="st5" d="M59.9,74.5c-1,12.4-4.1,20.8-9,28.5h6.5c12.9-20,11.4-40,11.4-40c-0.4-38.2-33.5-50-33.5-50
					C66.5,37.5,59.9,74.5,59.9,74.5z"/>
			</g>
		</g>
	</g>
	<g>
		<g>
			<path class="st4" d="M46.2,48.9c-0.3,0-0.5-0.2-0.5-0.5c0-2.8-2.3-5.1-5.1-5.1c-2.8,0-5.1,2.3-5.1,5.1c0,0.3-0.2,0.5-0.5,0.5
				c-0.3,0-0.5-0.2-0.5-0.5c0-3.4,2.7-6.1,6.1-6.1c3.4,0,6.1,2.7,6.1,6.1C46.7,48.7,46.4,48.9,46.2,48.9"/>
		</g>
	</g>
	<g>
		<g>
			<path class="st4" d="M66.5,48.9c-0.3,0-0.5-0.2-0.5-0.5c0-2.8-2.3-5.1-5.1-5.1c-2.8,0-5.1,2.3-5.1,5.1c0,0.3-0.2,0.5-0.5,0.5
				c-0.3,0-0.5-0.2-0.5-0.5c0-3.4,2.7-6.1,6.1-6.1c3.4,0,6.1,2.7,6.1,6.1C67.1,48.7,66.8,48.9,66.5,48.9"/>
		</g>
	</g>
	<g>
		<g>
			<path class="st0" d="M61.7,65c0,1.2-0.2,2.3-0.5,3.4c-0.4,1.3-1,2.4-1.8,3.4c-2.1,2.7-5.4,4.5-9.1,4.5c-3.7,0-7-1.8-9.1-4.5
				c-0.8-1-1.4-2.2-1.8-3.4C39.2,67.4,39,66.2,39,65H61.7z"/>
		</g>
	</g>
	<g>
		<g>
			<path class="st4" d="M50.4,76.6c-3.8,0-7.2-1.7-9.5-4.7c-0.8-1.1-1.4-2.3-1.9-3.6c-0.4-1.2-0.5-2.4-0.5-3.6v-0.5h23.8v0.5
				c0,1.2-0.2,2.4-0.5,3.6c-0.4,1.3-1,2.5-1.9,3.6C57.6,74.8,54.1,76.6,50.4,76.6 M39.5,65.2c0,0.9,0.2,1.9,0.5,2.8
				c0.4,1.2,0.9,2.3,1.7,3.3c2.1,2.7,5.2,4.3,8.7,4.3c3.4,0,6.6-1.6,8.7-4.3c0.8-1,1.3-2.1,1.7-3.3c0.3-0.9,0.4-1.8,0.5-2.8H39.5z"
				/>
		</g>
	</g>
	<g>
		<g>
			<path class="st4" d="M50.4,71.2h-9.8c-0.3,0-0.5-0.2-0.5-0.5c0-0.3,0.2-0.5,0.5-0.5h9.8c0.3,0,0.5,0.2,0.5,0.5
				C50.9,71,50.6,71.2,50.4,71.2"/>
		</g>
	</g>
	<g>
		<g>
			<path class="st4" d="M60.1,70.9h-4.8c-0.3,0-0.5-0.2-0.5-0.5c0-0.3,0.2-0.5,0.5-0.5h4.8c0.3,0,0.5,0.2,0.5,0.5
				C60.6,70.6,60.4,70.9,60.1,70.9"/>
		</g>
	</g>
</g>
</svg>
