<?xml version="1.0" encoding="utf-8"?>
<!-- Generator: Adobe Illustrator 22.0.1, SVG Export Plug-In . SVG Version: 6.00 Build 0)  -->
<svg version="1.1" id="Layer_1" xmlns="http://www.w3.org/2000/svg" xmlns:xlink="http://www.w3.org/1999/xlink" x="0px" y="0px"
	 viewBox="0 0 90 80.2" style="enable-background:new 0 0 90 80.2;" xml:space="preserve">
<style type="text/css">
	.st0{fill:#FFFFFF;stroke:#4C4F61;stroke-width:3;stroke-linecap:round;stroke-linejoin:round;stroke-miterlimit:10;}
	.st1{fill:none;stroke:#4C4F61;stroke-width:3;stroke-linecap:round;stroke-linejoin:round;stroke-miterlimit:10;}
	.st2{fill:#4C4F61;stroke:#4C4F61;stroke-miterlimit:10;}
	.st3{fill:#4C4F61;stroke:#4C4F61;stroke-width:3;stroke-miterlimit:10;}
	.st4{fill:#FFFFFF;stroke:#4C4F61;stroke-width:3;stroke-miterlimit:10;}
	.st5{fill:#4C4F61;}
	.st6{fill:#FFFFFF;stroke:#FFB920;stroke-width:3;stroke-miterlimit:10;}
	.st7{fill:none;stroke:#FFB920;stroke-width:3;stroke-miterlimit:10;}
	.st8{fill:#FFFFFF;stroke:#FFB920;stroke-width:3;stroke-linecap:round;stroke-linejoin:round;stroke-miterlimit:10;}
	.st9{fill:#FFB920;stroke:#FFB920;stroke-miterlimit:10;}
	.st10{fill:none;stroke:#FFB920;stroke-width:3;stroke-linecap:round;stroke-linejoin:round;stroke-miterlimit:10;}
	.st11{fill:#FFB920;stroke:#FFB920;stroke-width:3;stroke-miterlimit:10;}
	.st12{fill:#FFB920;}
</style>
<g>
	<g>
		<path class="st8" d="M69.1,29.9L55.6,43.4c-0.9,0.9-2.4,0.9-3.3,0L38.8,29.9c-0.9-0.9-0.9-2.4,0-3.3l13.5-13.5
			c0.9-0.9,2.4-0.9,3.3,0l13.5,13.5C70,27.5,70,29,69.1,29.9z"/>
		<path class="st8" d="M57.6,29.9L44,43.4c-0.9,0.9-2.4,0.9-3.3,0L27.2,29.9c-0.9-0.9-0.9-2.4,0-3.3l13.5-13.5
			c0.9-0.9,2.4-0.9,3.3,0l13.5,13.5C58.5,27.5,58.5,29,57.6,29.9z"/>
		<g>
			<g>
				<path class="st10" d="M14.5,14.1l6.6,2.9l8.2,40.5c0.3,1.4,1.5,2.4,2.9,2.4h36"/>
			</g>
		</g>
		<path class="st8" d="M28,51.1h40.3c1.4,0,2.7-1,2.9-2.4l4.2-20.4c0.2-0.9,0-1.8-0.6-2.5c-0.6-0.7-1.4-1.1-2.3-1.1H22.6L28,51.1z"
			/>
		<circle class="st8" cx="40" cy="63.8" r="4"/>
		<circle class="st8" cx="56.5" cy="63.8" r="4"/>
	</g>
</g>
</svg>
