<?xml version="1.0" encoding="utf-8"?>
<!-- Generator: Adobe Illustrator 22.0.1, SVG Export Plug-In . SVG Version: 6.00 Build 0)  -->
<svg version="1.1" id="Layer_1" xmlns="http://www.w3.org/2000/svg" xmlns:xlink="http://www.w3.org/1999/xlink" x="0px" y="0px"
	 viewBox="0 0 82.7 71.4" style="enable-background:new 0 0 82.7 71.4;" xml:space="preserve">
<style type="text/css">
	.st0{fill:none;stroke:#FFB920;stroke-width:3;stroke-linecap:round;stroke-linejoin:round;stroke-miterlimit:10;}
	.st1{fill:#FFB920;stroke:#FFB920;stroke-width:3;stroke-miterlimit:10;}
	.st2{fill:none;stroke:#FFB920;stroke-width:3;stroke-miterlimit:10;}
	.st3{fill:#FFB920;}
	.st4{fill:#FFFFFF;stroke:#FFB920;stroke-width:3;stroke-miterlimit:10;}
	.st5{fill:#FFFFFF;stroke:#FFB920;stroke-width:3;stroke-linecap:round;stroke-linejoin:round;stroke-miterlimit:10;}
	.st6{fill:#FFB920;stroke:#FFB920;stroke-miterlimit:10;}
	.st7{fill:none;stroke:#4C4F61;stroke-width:3;stroke-linecap:round;stroke-linejoin:round;stroke-miterlimit:10;}
	.st8{fill:#FFFFFF;stroke:#4C4F61;stroke-width:3;stroke-linecap:round;stroke-linejoin:round;stroke-miterlimit:10;}
	.st9{fill:#4C4F61;stroke:#4C4F61;stroke-miterlimit:10;}
	.st10{fill:#4C4F61;stroke:#4C4F61;stroke-width:3;stroke-miterlimit:10;}
	.st11{fill:none;stroke:#4C4F61;stroke-width:3;stroke-miterlimit:10;}
	.st12{fill:#4C4F61;}
</style>
<g>
	<g>
		<path class="st8" d="M67.6,64.3H15.1c-0.2,0-0.3-0.1-0.3-0.3V11.4c0-0.2,0.1-0.3,0.3-0.3h52.5c0.2,0,0.3,0.1,0.3,0.3v52.5
			C67.9,64.1,67.8,64.3,67.6,64.3z"/>
		<path class="st8" d="M30.5,15h-6.7c-0.2,0-0.3-0.1-0.3-0.3V7.5c0-0.2,0.1-0.3,0.3-0.3h6.7c0.2,0,0.3,0.1,0.3,0.3v7.2
			C30.8,14.9,30.6,15,30.5,15z"/>
		<path class="st8" d="M59,15h-6.7c-0.2,0-0.3-0.1-0.3-0.3V7.5c0-0.2,0.1-0.3,0.3-0.3H59c0.2,0,0.3,0.1,0.3,0.3v7.2
			C59.3,14.9,59.1,15,59,15z"/>
		<line class="st7" x1="14.8" y1="19.4" x2="67.9" y2="19.4"/>
	</g>
	<polyline class="st7" points="28.6,40.8 36,48.3 54.1,30.2 	"/>
</g>
</svg>
