<?xml version="1.0" encoding="utf-8"?>
<!-- Generator: Adobe Illustrator 22.0.1, SVG Export Plug-In . SVG Version: 6.00 Build 0)  -->
<svg version="1.1" id="Layer_1" xmlns="http://www.w3.org/2000/svg" xmlns:xlink="http://www.w3.org/1999/xlink" x="0px" y="0px"
	 viewBox="0 0 100.3 100.3" style="enable-background:new 0 0 100.3 100.3;" xml:space="preserve">
<style type="text/css">
	.st0{fill:none;stroke:#000000;stroke-width:2;stroke-miterlimit:10;}
	.st1{fill:none;stroke:#231F20;stroke-width:2;stroke-miterlimit:10;}
	.st2{fill:#FFFFFF;stroke:#231F20;stroke-width:2;stroke-linecap:round;stroke-linejoin:round;stroke-miterlimit:10;}
	.st3{fill:none;stroke:#231F20;stroke-width:2;stroke-linecap:round;stroke-linejoin:round;stroke-miterlimit:10;}
	.st4{fill:#FFFFFF;stroke:#231F20;stroke-width:2;stroke-miterlimit:10;}
	.st5{fill:#FFFFFF;stroke:#000000;stroke-width:2;stroke-miterlimit:10;}
</style>
<g>
	<path class="st4" d="M32.4,27.6h-4.9c-4,0-7.2,3.2-7.2,7.2v37.8c0,4,3.2,7.2,7.2,7.2h44c4,0,7.2-3.2,7.2-7.2V34.8
		c0-4-3.2-7.2-7.2-7.2h-4.9c-1.1,0-2.1-0.5-2.7-1.4l-3.2-4.8C60.1,20.5,59.1,20,58,20H41c-1.1,0-2.1,0.5-2.7,1.4l-3.2,4.8
		C34.5,27.1,33.5,27.6,32.4,27.6z"/>
	<circle class="st1" cx="49.5" cy="49.9" r="11.2"/>
</g>
</svg>
