<?xml version="1.0" encoding="utf-8"?>
<!-- Generator: Adobe Illustrator 22.0.1, SVG Export Plug-In . SVG Version: 6.00 Build 0)  -->
<svg version="1.1" id="Layer_1" xmlns="http://www.w3.org/2000/svg" xmlns:xlink="http://www.w3.org/1999/xlink" x="0px" y="0px"
	 viewBox="0 0 82.7 71.4" style="enable-background:new 0 0 82.7 71.4;" xml:space="preserve">
<style type="text/css">
	.st0{fill:none;stroke:#FFB920;stroke-width:3;stroke-linecap:round;stroke-linejoin:round;stroke-miterlimit:10;}
	.st1{fill:#FFB920;stroke:#FFB920;stroke-width:3;stroke-miterlimit:10;}
	.st2{fill:none;stroke:#FFB920;stroke-width:3;stroke-miterlimit:10;}
	.st3{fill:#FFB920;}
	.st4{fill:#FFFFFF;stroke:#FFB920;stroke-width:3;stroke-miterlimit:10;}
	.st5{fill:#FFFFFF;stroke:#FFB920;stroke-width:3;stroke-linecap:round;stroke-linejoin:round;stroke-miterlimit:10;}
	.st6{fill:#FFB920;stroke:#FFB920;stroke-miterlimit:10;}
	.st7{fill:none;stroke:#4C4F61;stroke-width:3;stroke-linecap:round;stroke-linejoin:round;stroke-miterlimit:10;}
	.st8{fill:#FFFFFF;stroke:#4C4F61;stroke-width:3;stroke-linecap:round;stroke-linejoin:round;stroke-miterlimit:10;}
	.st9{fill:#4C4F61;stroke:#4C4F61;stroke-miterlimit:10;}
	.st10{fill:#4C4F61;stroke:#4C4F61;stroke-width:3;stroke-miterlimit:10;}
	.st11{fill:none;stroke:#4C4F61;stroke-width:3;stroke-miterlimit:10;}
	.st12{fill:#4C4F61;}
</style>
<polyline class="st5" points="61.5,21.4 61.5,63 24.4,63 24.4,6.9 49.6,6.9 "/>
<line class="st5" x1="39.1" y1="37.4" x2="53.2" y2="37.4"/>
<path class="st5" d="M49.6,7.2v14c0,0.1,0.1,0.2,0.2,0.2h11.4c0.1,0,0.2-0.2,0.1-0.3l-11.4-14C49.8,7,49.6,7.1,49.6,7.2z"/>
<circle class="st6" cx="32.5" cy="37.4" r="1.1"/>
<line class="st5" x1="39.1" y1="31" x2="53.2" y2="31"/>
<circle class="st6" cx="32.5" cy="31" r="1.1"/>
<line class="st5" x1="39.1" y1="43.8" x2="53.2" y2="43.8"/>
<circle class="st6" cx="32.5" cy="43.8" r="1.1"/>
<line class="st5" x1="39.1" y1="50.1" x2="53.2" y2="50.1"/>
<circle class="st6" cx="32.5" cy="50.1" r="1.1"/>
</svg>
