<?xml version="1.0" encoding="utf-8"?>
<!-- Generator: Adobe Illustrator 22.0.1, SVG Export Plug-In . SVG Version: 6.00 Build 0)  -->
<svg version="1.1" id="Layer_1" xmlns="http://www.w3.org/2000/svg" xmlns:xlink="http://www.w3.org/1999/xlink" x="0px" y="0px"
	 viewBox="0 0 90 80.2" style="enable-background:new 0 0 90 80.2;" xml:space="preserve">
<style type="text/css">
	.st0{fill:none;stroke:#AFB0B8;stroke-width:3;stroke-linecap:round;stroke-linejoin:round;stroke-miterlimit:10;}
	.st1{fill:#AFB0B8;stroke:#AFB0B8;stroke-linecap:round;stroke-linejoin:round;stroke-miterlimit:10;}
	.st2{fill:#AFB0B8;stroke:#AFB0B8;stroke-width:3;stroke-linecap:round;stroke-linejoin:round;stroke-miterlimit:10;}
	.st3{fill:#AFB0B8;}
	.st4{fill:#FFFFFF;stroke:#FFB920;stroke-width:3;stroke-miterlimit:10;}
	.st5{fill:none;stroke:#FFB920;stroke-width:3;stroke-miterlimit:10;}
	.st6{fill:#FFFFFF;stroke:#FFB920;stroke-width:3;stroke-linecap:round;stroke-linejoin:round;stroke-miterlimit:10;}
	.st7{fill:#FFB920;stroke:#FFB920;stroke-miterlimit:10;}
	.st8{fill:none;stroke:#FFB920;stroke-width:3;stroke-linecap:round;stroke-linejoin:round;stroke-miterlimit:10;}
	.st9{fill:#FFB920;stroke:#FFB920;stroke-width:3;stroke-miterlimit:10;}
	.st10{fill:#FFB920;}
</style>
<path class="st0" d="M41.2,11.2c-10.9,1.8-19.7,10.7-21.5,21.6c-1.5,9.1,1.6,17.5,7.4,23.2l-2.3,7.2c-0.4,1.3,1,2.5,2.2,1.9l7.6-3.9
	c4.9,2.3,10.6,3.2,16.7,2C61.9,61,70.4,52.2,72,41.4C74.6,23.4,59.2,8.2,41.2,11.2z"/>
<path class="st0" d="M71.8,32.3c5.6,1.4,8.9,3.1,8.9,5.1c0,4.2-15.6,7.6-34.9,7.6s-34.9-3.4-34.9-7.6c0-1.9,3.7-3.8,8.9-5.1"/>
</svg>
