<?xml version="1.0" encoding="utf-8"?>
<!-- Generator: Adobe Illustrator 22.0.1, SVG Export Plug-In . SVG Version: 6.00 Build 0)  -->
<svg version="1.1" id="Layer_1" xmlns="http://www.w3.org/2000/svg" xmlns:xlink="http://www.w3.org/1999/xlink" x="0px" y="0px"
	 viewBox="0 0 82.7 71.4" style="enable-background:new 0 0 82.7 71.4;" xml:space="preserve">
<style type="text/css">
	.st0{fill:none;stroke:#FFB920;stroke-width:3;stroke-linecap:round;stroke-linejoin:round;stroke-miterlimit:10;}
	.st1{fill:#FFB920;stroke:#FFB920;stroke-width:3;stroke-miterlimit:10;}
	.st2{fill:none;stroke:#FFB920;stroke-width:3;stroke-miterlimit:10;}
	.st3{fill:#FFB920;}
	.st4{fill:#FFFFFF;stroke:#FFB920;stroke-width:3;stroke-miterlimit:10;}
	.st5{fill:#FFFFFF;stroke:#FFB920;stroke-width:3;stroke-linecap:round;stroke-linejoin:round;stroke-miterlimit:10;}
	.st6{fill:#FFB920;stroke:#FFB920;stroke-miterlimit:10;}
	.st7{fill:none;stroke:#4C4F61;stroke-width:3;stroke-linecap:round;stroke-linejoin:round;stroke-miterlimit:10;}
	.st8{fill:#FFFFFF;stroke:#4C4F61;stroke-width:3;stroke-linecap:round;stroke-linejoin:round;stroke-miterlimit:10;}
	.st9{fill:#4C4F61;stroke:#4C4F61;stroke-miterlimit:10;}
	.st10{fill:#4C4F61;stroke:#4C4F61;stroke-width:3;stroke-miterlimit:10;}
	.st11{fill:none;stroke:#4C4F61;stroke-width:3;stroke-miterlimit:10;}
	.st12{fill:#4C4F61;}
</style>
<g>
	<path class="st8" d="M64.7,25.8L51.1,39.3c-0.9,0.9-2.4,0.9-3.3,0L34.3,25.8c-0.9-0.9-0.9-2.4,0-3.3L47.9,9c0.9-0.9,2.4-0.9,3.3,0
		l13.5,13.5C65.6,23.4,65.6,24.9,64.7,25.8z"/>
	<path class="st8" d="M53.1,25.8L39.5,39.3c-0.9,0.9-2.4,0.9-3.3,0L22.7,25.8c-0.9-0.9-0.9-2.4,0-3.3L36.3,9c0.9-0.9,2.4-0.9,3.3,0
		l13.5,13.5C54,23.4,54,24.9,53.1,25.8z"/>
	<g>
		<g>
			<path class="st7" d="M10,10l6.6,2.9l8.2,40.5c0.3,1.4,1.5,2.4,2.9,2.4h36"/>
		</g>
	</g>
	<path class="st8" d="M23.6,47h40.3c1.4,0,2.7-1,2.9-2.4L71,24.2c0.2-0.9,0-1.8-0.6-2.5c-0.6-0.7-1.4-1.1-2.3-1.1H18.2L23.6,47z"/>
	<circle class="st8" cx="35.5" cy="59.7" r="4"/>
	<circle class="st8" cx="52.1" cy="59.7" r="4"/>
</g>
</svg>
