<?xml version="1.0" encoding="utf-8"?>
<!-- Generator: Adobe Illustrator 22.0.1, SVG Export Plug-In . SVG Version: 6.00 Build 0)  -->
<svg version="1.1" id="Layer_1" xmlns="http://www.w3.org/2000/svg" xmlns:xlink="http://www.w3.org/1999/xlink" x="0px" y="0px"
	 viewBox="0 0 90 80.2" style="enable-background:new 0 0 90 80.2;" xml:space="preserve">
<style type="text/css">
	.st0{fill:none;stroke:#AFB0B8;stroke-width:3;stroke-linecap:round;stroke-linejoin:round;stroke-miterlimit:10;}
	.st1{fill:#AFB0B8;stroke:#AFB0B8;stroke-linecap:round;stroke-linejoin:round;stroke-miterlimit:10;}
	.st2{fill:#AFB0B8;stroke:#AFB0B8;stroke-width:3;stroke-linecap:round;stroke-linejoin:round;stroke-miterlimit:10;}
	.st3{fill:#AFB0B8;}
	.st4{fill:#FFFFFF;stroke:#FFB920;stroke-width:3;stroke-miterlimit:10;}
	.st5{fill:none;stroke:#FFB920;stroke-width:3;stroke-miterlimit:10;}
	.st6{fill:#FFFFFF;stroke:#FFB920;stroke-width:3;stroke-linecap:round;stroke-linejoin:round;stroke-miterlimit:10;}
	.st7{fill:#FFB920;stroke:#FFB920;stroke-miterlimit:10;}
	.st8{fill:none;stroke:#FFB920;stroke-width:3;stroke-linecap:round;stroke-linejoin:round;stroke-miterlimit:10;}
	.st9{fill:#FFB920;stroke:#FFB920;stroke-width:3;stroke-miterlimit:10;}
	.st10{fill:#FFB920;}
</style>
<polyline class="st0" points="63.5,26.5 63.5,68.1 26.5,68.1 26.5,12 51.7,12 "/>
<line class="st0" x1="41.2" y1="42.5" x2="55.3" y2="42.5"/>
<path class="st0" d="M51.7,12.4v14c0,0.1,0.1,0.2,0.2,0.2h11.4c0.1,0,0.2-0.2,0.1-0.3L52,12.3C51.8,12.1,51.7,12.2,51.7,12.4z"/>
<circle class="st1" cx="34.6" cy="42.5" r="1.1"/>
<line class="st0" x1="41.2" y1="36.2" x2="55.3" y2="36.2"/>
<circle class="st1" cx="34.6" cy="36.2" r="1.1"/>
<line class="st0" x1="41.2" y1="48.9" x2="55.3" y2="48.9"/>
<circle class="st1" cx="34.6" cy="48.9" r="1.1"/>
<line class="st0" x1="41.2" y1="55.3" x2="55.3" y2="55.3"/>
<circle class="st1" cx="34.6" cy="55.3" r="1.1"/>
</svg>
