<?xml version="1.0" encoding="utf-8"?>
<!-- Generator: Adobe Illustrator 22.0.1, SVG Export Plug-In . SVG Version: 6.00 Build 0)  -->
<svg version="1.1" id="Layer_1" xmlns="http://www.w3.org/2000/svg" xmlns:xlink="http://www.w3.org/1999/xlink" x="0px" y="0px"
	 viewBox="0 0 90 80.2" style="enable-background:new 0 0 90 80.2;" xml:space="preserve">
<style type="text/css">
	.st0{fill:none;stroke:#AFB0B8;stroke-width:3;stroke-linecap:round;stroke-linejoin:round;stroke-miterlimit:10;}
	.st1{fill:#AFB0B8;stroke:#AFB0B8;stroke-linecap:round;stroke-linejoin:round;stroke-miterlimit:10;}
	.st2{fill:#AFB0B8;stroke:#AFB0B8;stroke-width:3;stroke-linecap:round;stroke-linejoin:round;stroke-miterlimit:10;}
	.st3{fill:#AFB0B8;}
	.st4{fill:#FFFFFF;stroke:#FFB920;stroke-width:3;stroke-miterlimit:10;}
	.st5{fill:none;stroke:#FFB920;stroke-width:3;stroke-miterlimit:10;}
	.st6{fill:#FFFFFF;stroke:#FFB920;stroke-width:3;stroke-linecap:round;stroke-linejoin:round;stroke-miterlimit:10;}
	.st7{fill:#FFB920;stroke:#FFB920;stroke-miterlimit:10;}
	.st8{fill:none;stroke:#FFB920;stroke-width:3;stroke-linecap:round;stroke-linejoin:round;stroke-miterlimit:10;}
	.st9{fill:#FFB920;stroke:#FFB920;stroke-width:3;stroke-miterlimit:10;}
	.st10{fill:#FFB920;}
</style>
<path class="st0" d="M40.9,24.5l11.4-11.4c0.9-0.9,2.4-0.9,3.3,0L67,24.4"/>
<path class="st0" d="M29.3,24.5l11.4-11.4c0.9-0.9,2.4-0.9,3.3,0l4.2,4.2"/>
<g>
	<g>
		<path class="st0" d="M14.5,14.1l6.6,2.9l8.2,40.5c0.3,1.4,1.5,2.4,2.9,2.4h36"/>
	</g>
</g>
<path class="st0" d="M28,51.1h40.3c1.4,0,2.7-1,2.9-2.4l4.2-20.4c0.2-0.9,0-1.8-0.6-2.5c-0.6-0.7-1.4-1.1-2.3-1.1H22.6L28,51.1z"/>
<circle class="st0" cx="40" cy="63.8" r="4"/>
<circle class="st0" cx="56.5" cy="63.8" r="4"/>
</svg>
