<?xml version="1.0" encoding="utf-8"?>
<!-- Generator: Adobe Illustrator 22.0.1, SVG Export Plug-In . SVG Version: 6.00 Build 0)  -->
<svg version="1.1" id="Layer_1" xmlns="http://www.w3.org/2000/svg" xmlns:xlink="http://www.w3.org/1999/xlink" x="0px" y="0px"
	 viewBox="0 0 82.7 71.4" style="enable-background:new 0 0 82.7 71.4;" xml:space="preserve">
<style type="text/css">
	.st0{fill:none;stroke:#FFB920;stroke-width:3;stroke-linecap:round;stroke-linejoin:round;stroke-miterlimit:10;}
	.st1{fill:#FFB920;stroke:#FFB920;stroke-width:3;stroke-miterlimit:10;}
	.st2{fill:none;stroke:#FFB920;stroke-width:3;stroke-miterlimit:10;}
	.st3{fill:#FFB920;}
	.st4{fill:#FFFFFF;stroke:#FFB920;stroke-width:3;stroke-miterlimit:10;}
	.st5{fill:#FFFFFF;stroke:#FFB920;stroke-width:3;stroke-linecap:round;stroke-linejoin:round;stroke-miterlimit:10;}
	.st6{fill:#FFB920;stroke:#FFB920;stroke-miterlimit:10;}
	.st7{fill:none;stroke:#4C4F61;stroke-width:3;stroke-linecap:round;stroke-linejoin:round;stroke-miterlimit:10;}
	.st8{fill:#FFFFFF;stroke:#4C4F61;stroke-width:3;stroke-linecap:round;stroke-linejoin:round;stroke-miterlimit:10;}
	.st9{fill:#4C4F61;stroke:#4C4F61;stroke-miterlimit:10;}
	.st10{fill:#4C4F61;stroke:#4C4F61;stroke-width:3;stroke-miterlimit:10;}
	.st11{fill:none;stroke:#4C4F61;stroke-width:3;stroke-miterlimit:10;}
	.st12{fill:#4C4F61;}
</style>
<g>
	<path class="st2" d="M36.8,9.6C25.8,11.4,17,20.2,15.3,31.2c-1.5,9.1,1.6,17.5,7.4,23.2l-2.3,7.2c-0.4,1.3,1,2.5,2.2,1.9l7.6-3.9
		c4.9,2.3,10.6,3.2,16.7,2c10.7-2.2,19.1-11.1,20.7-21.8C70.2,21.8,54.8,6.6,36.8,9.6z"/>
	<path class="st2" d="M67.3,30.7c5.6,1.4,8.9,3.1,8.9,5.1c0,4.2-15.6,7.6-34.9,7.6S6.4,40,6.4,35.8c0-1.9,3.7-3.8,8.9-5.1"/>
</g>
</svg>
