<?xml version="1.0" encoding="utf-8"?>
<!-- Generator: Adobe Illustrator 22.0.1, SVG Export Plug-In . SVG Version: 6.00 Build 0)  -->
<svg version="1.1" id="Layer_1" xmlns="http://www.w3.org/2000/svg" xmlns:xlink="http://www.w3.org/1999/xlink" x="0px" y="0px"
	 viewBox="0 0 90 80.2" style="enable-background:new 0 0 90 80.2;" xml:space="preserve">
<style type="text/css">
	.st0{fill:none;stroke:#AFB0B8;stroke-width:3;stroke-linecap:round;stroke-linejoin:round;stroke-miterlimit:10;}
	.st1{fill:#AFB0B8;stroke:#AFB0B8;stroke-linecap:round;stroke-linejoin:round;stroke-miterlimit:10;}
	.st2{fill:#AFB0B8;stroke:#AFB0B8;stroke-width:3;stroke-linecap:round;stroke-linejoin:round;stroke-miterlimit:10;}
	.st3{fill:#AFB0B8;}
	.st4{fill:#FFFFFF;stroke:#FFB920;stroke-width:3;stroke-miterlimit:10;}
	.st5{fill:none;stroke:#FFB920;stroke-width:3;stroke-miterlimit:10;}
	.st6{fill:#FFFFFF;stroke:#FFB920;stroke-width:3;stroke-linecap:round;stroke-linejoin:round;stroke-miterlimit:10;}
	.st7{fill:#FFB920;stroke:#FFB920;stroke-miterlimit:10;}
	.st8{fill:none;stroke:#FFB920;stroke-width:3;stroke-linecap:round;stroke-linejoin:round;stroke-miterlimit:10;}
	.st9{fill:#FFB920;stroke:#FFB920;stroke-width:3;stroke-miterlimit:10;}
	.st10{fill:#FFB920;}
</style>
<path class="st0" d="M67.1,28.3C68.9,31.8,70,35.8,70,40C70,54,58.7,65.2,44.8,65.2S19.5,54,19.5,40s11.3-25.2,25.2-25.2
	c7.7,0,14.6,3.5,19.2,8.9"/>
<line class="st0" x1="11.8" y1="40" x2="22.7" y2="40"/>
<line class="st0" x1="67.3" y1="40" x2="78.2" y2="40"/>
<line class="st0" x1="44.7" y1="73.3" x2="44.7" y2="62.4"/>
<line class="st0" x1="44.7" y1="17.7" x2="44.7" y2="6.8"/>
<circle class="st0" cx="44.8" cy="40" r="12.9"/>
<circle class="st0" cx="44.7" cy="40" r="5.9"/>
<polygon class="st0" points="72.5,24.7 68.4,28.1 63.5,27.8 64.2,22.9 68.3,19.6 67.8,24.3 "/>
<line class="st0" x1="44.7" y1="40.5" x2="63.5" y2="27.7"/>
</svg>
