<?xml version="1.0" encoding="utf-8"?>
<!-- Generator: Adobe Illustrator 22.0.1, SVG Export Plug-In . SVG Version: 6.00 Build 0)  -->
<svg version="1.1" id="Layer_1" xmlns="http://www.w3.org/2000/svg" xmlns:xlink="http://www.w3.org/1999/xlink" x="0px" y="0px"
	 viewBox="0 0 45.8 62.5" style="enable-background:new 0 0 45.8 62.5;" xml:space="preserve">
<style type="text/css">
	.st0{fill:none;stroke:#000000;stroke-width:2;stroke-miterlimit:10;}
	.st1{fill:none;stroke:#231F20;stroke-width:2;stroke-miterlimit:10;}
	.st2{fill:#FFFFFF;stroke:#231F20;stroke-width:2;stroke-miterlimit:10;}
	.st3{fill:#FFFFFF;stroke:#231F20;stroke-width:2;stroke-linecap:round;stroke-linejoin:round;stroke-miterlimit:10;}
	.st4{fill:none;stroke:#231F20;stroke-width:2;stroke-linecap:round;stroke-linejoin:round;stroke-miterlimit:10;}
	.st5{fill:#FFFFFF;stroke:#000000;stroke-width:2;stroke-miterlimit:10;}
</style>
<g>
	<path id="Facebook_Places_5_" class="st5" d="M34,45c3-5.6,7.4-10.4,9.2-16.7c0.9-3.3,0.7-6.8-0.3-10.1c-0.9-2.9-2.5-5.7-4.5-8
		c-3.2-3.6-7.7-5.9-12.5-6.5c-0.9-0.1-1.9-0.2-2.8-0.2c-8.9,0-18.7,5.9-20.1,18.1c0,0.1,0,0.3,0,0.4v2.3c0,0.1,0,1.1,0.1,1.5
		c0.7,5.9,5.4,12.1,8.9,18c2.7,4.5,5.4,9,8.2,13.4c1.5,2.4,5,2.3,6.4-0.1c1.2-2.1,2.5-4.3,3.7-6.4c0.1-0.1,0.1-0.2,0.2-0.3L34,45z
		 M31.5,25c0,4.5-3.6,8.1-8.1,8.1s-8.1-3.6-8.1-8.1s3.6-8.1,8.1-8.1S31.5,20.5,31.5,25z"/>
	<circle class="st5" cx="23.4" cy="25" r="8.4"/>
</g>
</svg>
