<?xml version="1.0" encoding="utf-8"?>
<!-- Generator: Adobe Illustrator 22.0.1, SVG Export Plug-In . SVG Version: 6.00 Build 0)  -->
<svg version="1.1" id="Layer_1" xmlns="http://www.w3.org/2000/svg" xmlns:xlink="http://www.w3.org/1999/xlink" x="0px" y="0px"
	 viewBox="0 0 64 64" style="enable-background:new 0 0 64 64;" xml:space="preserve">
<style type="text/css">
	.st0{fill:none;stroke:#000000;stroke-width:2;stroke-miterlimit:10;}
	.st1{fill:none;stroke:#231F20;stroke-width:2;stroke-miterlimit:10;}
	.st2{fill:#FFFFFF;stroke:#231F20;stroke-width:2;stroke-miterlimit:10;}
	.st3{fill:#FFFFFF;stroke:#231F20;stroke-width:2;stroke-linecap:round;stroke-linejoin:round;stroke-miterlimit:10;}
	.st4{fill:none;stroke:#231F20;stroke-width:2;stroke-linecap:round;stroke-linejoin:round;stroke-miterlimit:10;}
	.st5{fill:#FFFFFF;stroke:#000000;stroke-width:2;stroke-miterlimit:10;}
</style>
<path class="st2" d="M14.5,9.4H9.6c-4,0-7.2,3.2-7.2,7.2v37.8c0,4,3.2,7.2,7.2,7.2h44c4,0,7.2-3.2,7.2-7.2V16.6c0-4-3.2-7.2-7.2-7.2
	h-4.9c-1.1,0-2.1-0.5-2.7-1.4l-3.2-4.8c-0.6-0.9-1.6-1.4-2.7-1.4h-17c-1.1,0-2.1,0.5-2.7,1.4L17.2,8C16.6,8.9,15.6,9.4,14.5,9.4z"/>
<circle class="st1" cx="31.6" cy="31.7" r="11.2"/>
</svg>
