<?xml version="1.0" encoding="utf-8"?>
<!-- Generator: Adobe Illustrator 22.0.1, SVG Export Plug-In . SVG Version: 6.00 Build 0)  -->
<svg version="1.1" id="Layer_1" xmlns="http://www.w3.org/2000/svg" xmlns:xlink="http://www.w3.org/1999/xlink" x="0px" y="0px"
	 viewBox="0 0 169.4 175.3" style="enable-background:new 0 0 169.4 175.3;" xml:space="preserve">
<style type="text/css">
	.st0{fill:#FFFFFF;}
	.st1{fill:#FFCC30;}
	.st2{fill-rule:evenodd;clip-rule:evenodd;fill:#231F20;}
	.st3{fill:#FFCC31;}
	.st4{fill:#231F20;}
	.st5{fill:#ECB32C;}
	.st6{fill:#78D0FF;}
	.st7{fill:#1C1D1A;}
	.st8{fill:#FF3529;}
	.st9{fill:#36C000;}
	.st10{fill:#FF5C29;}
	.st11{fill-rule:evenodd;clip-rule:evenodd;fill:#EA638D;}
	.st12{fill:#F8C80F;}
	.st13{fill:#010101;}
	.st14{clip-path:url(#SVGID_3_);}
	.st15{clip-path:url(#SVGID_4_);}
	.st16{fill:#FFB900;}
	.st17{fill:#B96D00;}
	.st18{fill:#FF7B00;}
	.st19{fill:#CBCBCB;}
	.st20{fill:#FF506F;}
	.st21{fill:#87F0FF;}
	.st22{fill:#020202;}
	.st23{clip-path:url(#SVGID_6_);}
	.st24{clip-path:url(#SVGID_8_);}
	.st25{clip-path:url(#SVGID_11_);}
	.st26{clip-path:url(#SVGID_12_);}
	.st27{clip-path:url(#SVGID_14_);}
	.st28{clip-path:url(#SVGID_16_);}
	.st29{clip-path:url(#SVGID_19_);}
	.st30{clip-path:url(#SVGID_20_);}
	.st31{clip-path:url(#SVGID_22_);}
	.st32{clip-path:url(#SVGID_24_);}
</style>
<g>
	<g>
		<g>
			<circle class="st0" cx="84.7" cy="92.1" r="76.2"/>
			<path class="st1" d="M84.7,171.6c-43.8,0-79.5-35.7-79.5-79.5s35.7-79.5,79.5-79.5c43.8,0,79.5,35.7,79.5,79.5
				S128.5,171.6,84.7,171.6z M84.7,19.2c-40.2,0-73,32.7-73,73s32.7,73,73,73c40.2,0,73-32.7,73-73S124.9,19.2,84.7,19.2z"/>
		</g>
		<g>
			<g>
				<path class="st2" d="M99.6,119.1l41.8-47.5c0,0-1.5-4.7-0.5-5.3c1-0.6,2.9,3.4,2.9,3.4s3.7-3.3,4.9-3.1c1.1,0.2-2.9,4.8-2.9,4.8
					s4.5-2.7,5.4-1.3c0.9,1.4-4.5,3.1-4.5,3.1s4,2.2,3.6,3.4c-0.4,1.1-4.6-0.9-4.6-0.9s2.3,1.8,1.8,3.4c-0.5,1.7-4.1-3.4-4.1-3.4
					l-36,45.1L99.6,119.1z"/>
			</g>
		</g>
		<g>
			<g>
				<path class="st2" d="M57.9,118.2L36.1,71.4c0,0,2.7-4.1,2-5c-0.8-0.8-3.7,2.4-3.7,2.4s-2.6-4.2-3.8-4.3C29.4,64.5,32,70,32,70
					s-3.6-3.8-4.9-2.7c-1.3,1.1,3.5,4.2,3.5,4.2s-4.5,1-4.4,2.2c0.1,1.2,4.7,0.4,4.7,0.4s-2.7,1.1-2.7,2.8c0,1.7,4.9-2.1,4.9-2.1
					l19.4,47.5C54.3,121,56.2,119.6,57.9,118.2"/>
			</g>
		</g>
		<g>
			<g>
				<path class="st3" d="M81.9,168.3c8-12.4,13.9-28.2,15.5-48.3"/>
			</g>
			<g>
				<path class="st3" d="M97.4,120c0,0,10.6-58.8-39-97.7c-5.1-0.5-8.6-1.8-10.9-3.1c-4.5,2.8-6.3,5.8-7.1,7.8
					c29.7,39.9,15.2,90.9-2,126.6c0,0,18.5,16.1,48.6,16.1"/>
			</g>
		</g>
		<g>
			<g>
				<path class="st4" d="M58.6,161.4c0,0,0.1-0.1,0.1-0.1c3-4,6-8.3,8.8-12.9c1.4-2.3,2.8-4.7,4.1-7.1c1.3-2.5,2.6-5,3.8-7.6
					c2.4-5.2,4.4-10.6,6-16.1c1.6-5.5,2.6-11.2,3.1-16.9C84.9,95,84.8,89.4,84,84c-0.7-5.4-2-10.4-3.7-15.1
					c-0.4-1.2-0.9-2.3-1.3-3.4c-0.5-1.1-1-2.2-1.4-3.3c-0.5-1-1-2.1-1.5-3.1c-0.5-1-1.1-2-1.6-2.9c-2.1-3.8-4.3-7.1-6.4-10
					c-0.5-0.7-1-1.4-1.5-2.1c-0.5-0.6-1-1.3-1.5-1.9c-0.5-0.6-0.9-1.2-1.4-1.7c-0.5-0.5-0.9-1-1.3-1.5c-0.8-1-1.6-1.8-2.2-2.6
					c-0.7-0.7-1.2-1.3-1.7-1.8c-0.9-1-1.4-1.5-1.4-1.5s0.5,0.5,1.5,1.5c0.5,0.5,1.1,1.1,1.8,1.8c0.7,0.7,1.5,1.5,2.3,2.5
					c0.4,0.5,0.9,1,1.4,1.5c0.5,0.5,0.9,1.1,1.4,1.7c0.5,0.6,1,1.2,1.6,1.8c0.5,0.7,1,1.3,1.6,2c1.1,1.4,2.2,2.9,3.4,4.6
					c0.6,0.8,1.1,1.7,1.7,2.6c0.3,0.4,0.6,0.9,0.9,1.3c0.3,0.5,0.5,0.9,0.8,1.4c0.5,1,1.1,1.9,1.7,2.9c0.5,1,1.1,2.1,1.6,3.1
					c0.5,1.1,1,2.2,1.5,3.3c0.5,1.1,0.9,2.3,1.4,3.5c1.8,4.7,3.2,9.9,4,15.3c0.8,5.5,1,11.2,0.6,17c-0.5,5.8-1.5,11.6-3.1,17.2
					c-1.6,5.6-3.7,11.2-6.2,16.4c-2.4,5.2-5.2,10.2-8.2,14.8c-2.9,4.7-6,8.9-9.1,12.9"/>
			</g>
		</g>
		<g>
			<g>
				<path class="st4" d="M47.5,19.3c-3-1.6-4.1-3.3-4.1-3.3C31.8-0.1,26.6,4.3,26.6,4.3c-6.1,6,5.5,13.1,5.5,13.1
					c3.1,3.1,5.9,6.4,8.4,9.7C41.1,25.1,43,22.1,47.5,19.3"/>
			</g>
		</g>
		<g>
			<g>
				<path class="st5" d="M97.4,120c-1.6,19.7-6.6,33-14.3,45.3h10.4c20.5-31.8,18.1-63.6,18.1-63.6c-0.7-60.7-53.2-79.5-53.2-79.5
					C108,61.2,97.4,120,97.4,120z"/>
			</g>
		</g>
	</g>
	<g>
		<g>
			<path class="st4" d="M75.6,79.4c-0.5,0-0.8-0.4-0.8-0.8c0-4.4-3.6-8.1-8.1-8.1c-4.4,0-8.1,3.6-8.1,8.1c0,0.5-0.4,0.8-0.8,0.8
				c-0.5,0-0.8-0.4-0.8-0.8c0-5.3,4.4-9.7,9.7-9.7c5.3,0,9.7,4.4,9.7,9.7C76.4,79.1,76.1,79.4,75.6,79.4"/>
		</g>
	</g>
	<g>
		<g>
			<path class="st4" d="M108,79.4c-0.5,0-0.8-0.4-0.8-0.8c0-4.4-3.6-8.1-8.1-8.1c-4.4,0-8.1,3.6-8.1,8.1c0,0.5-0.4,0.8-0.8,0.8
				c-0.5,0-0.8-0.4-0.8-0.8c0-5.3,4.4-9.7,9.7-9.7c5.3,0,9.7,4.4,9.7,9.7C108.8,79.1,108.4,79.4,108,79.4"/>
		</g>
	</g>
	<g>
		<g>
			<path class="st0" d="M100.3,105c0,1.9-0.3,3.7-0.8,5.4c-0.6,2-1.6,3.8-2.8,5.4c-3.3,4.4-8.5,7.2-14.4,7.2
				c-5.9,0-11.1-2.8-14.4-7.2c-1.2-1.6-2.2-3.5-2.8-5.4c-0.5-1.7-0.8-3.5-0.8-5.4H100.3z"/>
		</g>
	</g>
	<g>
		<g>
			<path class="st4" d="M82.3,123.4c-6,0-11.5-2.7-15.1-7.5c-1.3-1.7-2.3-3.6-2.9-5.7c-0.6-1.8-0.9-3.7-0.9-5.7v-0.8h37.8v0.8
				c0,1.9-0.3,3.9-0.9,5.7c-0.6,2.1-1.6,4-2.9,5.7C93.7,120.6,88.2,123.4,82.3,123.4 M65.1,105.3c0.1,1.5,0.3,3,0.8,4.4
				c0.6,1.9,1.5,3.6,2.7,5.2c3.3,4.4,8.3,6.8,13.8,6.8c5.4,0,10.5-2.5,13.8-6.8c1.2-1.6,2.1-3.3,2.7-5.2c0.4-1.4,0.7-2.9,0.8-4.4
				H65.1z"/>
		</g>
	</g>
	<g>
		<g>
			<path class="st4" d="M82.3,114.9H66.6c-0.5,0-0.8-0.4-0.8-0.8c0-0.5,0.4-0.8,0.8-0.8h15.6c0.5,0,0.8,0.4,0.8,0.8
				C83.1,114.5,82.7,114.9,82.3,114.9"/>
		</g>
	</g>
	<g>
		<g>
			<path class="st4" d="M97.8,114.3h-7.6c-0.5,0-0.8-0.4-0.8-0.8c0-0.5,0.4-0.8,0.8-0.8h7.6c0.5,0,0.8,0.4,0.8,0.8
				C98.6,114,98.3,114.3,97.8,114.3"/>
		</g>
	</g>
</g>
</svg>
