<?xml version="1.0" encoding="utf-8"?>
<!-- Generator: Adobe Illustrator 22.0.1, SVG Export Plug-In . SVG Version: 6.00 Build 0)  -->
<svg version="1.1" id="Layer_1" xmlns="http://www.w3.org/2000/svg" xmlns:xlink="http://www.w3.org/1999/xlink" x="0px" y="0px"
	 viewBox="0 0 252.7 261.6" style="enable-background:new 0 0 252.7 261.6;" xml:space="preserve">
<style type="text/css">
	.st0{fill:#FFFFFF;}
	.st1{fill:#FFCC30;}
	.st2{fill-rule:evenodd;clip-rule:evenodd;fill:#231F20;}
	.st3{fill:#FFCC31;}
	.st4{fill:#231F20;}
	.st5{fill:#ECB32C;}
	.st6{fill:#78D0FF;}
	.st7{fill:#1C1D1A;}
	.st8{fill:#FF3529;}
	.st9{fill:#36C000;}
	.st10{fill:#FF5C29;}
	.st11{fill-rule:evenodd;clip-rule:evenodd;fill:#EA638D;}
	.st12{fill:#F8C80F;}
	.st13{fill:#010101;}
	.st14{clip-path:url(#SVGID_3_);}
	.st15{clip-path:url(#SVGID_4_);}
	.st16{fill:#FFB900;}
	.st17{fill:#B96D00;}
	.st18{fill:#FF7B00;}
	.st19{fill:#CBCBCB;}
	.st20{fill:#FF506F;}
	.st21{fill:#87F0FF;}
	.st22{fill:#020202;}
	.st23{clip-path:url(#SVGID_6_);}
	.st24{clip-path:url(#SVGID_8_);}
	.st25{clip-path:url(#SVGID_11_);}
	.st26{clip-path:url(#SVGID_12_);}
	.st27{clip-path:url(#SVGID_14_);}
	.st28{clip-path:url(#SVGID_16_);}
	.st29{clip-path:url(#SVGID_19_);}
	.st30{clip-path:url(#SVGID_20_);}
	.st31{clip-path:url(#SVGID_22_);}
	.st32{clip-path:url(#SVGID_24_);}
</style>
<g>
	<g>
		<g>
			<circle class="st0" cx="126.4" cy="137" r="105.5"/>
			<path class="st1" d="M126.4,247c-60.7,0-110-49.3-110-110s49.3-110,110-110c60.7,0,110,49.3,110,110S187,247,126.4,247z
				 M126.4,36c-55.7,0-101,45.3-101,101s45.3,101,101,101c55.7,0,101-45.3,101-101S182,36,126.4,36z"/>
		</g>
		<g>
			<g>
				<path class="st2" d="M146.9,174.3l57.8-65.8c0,0-2-6.6-0.7-7.4c1.3-0.8,4,4.7,4,4.7s5.2-4.6,6.7-4.2c1.6,0.3-4,6.6-4,6.6
					s6.2-3.7,7.5-1.8c1.3,1.9-6.2,4.3-6.2,4.3s5.6,3,4.9,4.6c-0.6,1.6-6.4-1.3-6.4-1.3s3.1,2.5,2.5,4.7c-0.6,2.3-5.7-4.7-5.7-4.7
					l-49.8,62.4L146.9,174.3z"/>
			</g>
		</g>
		<g>
			<g>
				<path class="st2" d="M89.3,173l-30.1-64.7c0,0,3.8-5.7,2.7-6.9c-1.1-1.1-5.2,3.3-5.2,3.3s-3.7-5.8-5.3-6c-1.6-0.1,2,7.5,2,7.5
					s-5-5.3-6.8-3.8c-1.7,1.5,4.8,5.9,4.8,5.9s-6.2,1.3-6,3.1c0.1,1.7,6.5,0.5,6.5,0.5s-3.8,1.5-3.8,3.8c0,2.4,6.8-2.9,6.8-2.9
					l26.9,65.8C84.3,176.9,86.9,174.9,89.3,173"/>
			</g>
		</g>
		<g>
			<g>
				<path class="st3" d="M122.4,242.4c11.1-17.2,19.3-39.1,21.5-66.8"/>
			</g>
			<g>
				<path class="st3" d="M143.9,175.6c0,0,14.7-81.4-54-135.3c-7-0.7-11.9-2.5-15.1-4.2c-6.2,3.9-8.8,8-9.8,10.8
					c41.2,55.2,21.1,125.9-2.8,175.2c0,0,25.6,22.3,67.2,22.3"/>
			</g>
		</g>
		<g>
			<g>
				<path class="st4" d="M90.2,232.9c0-0.1,0.1-0.1,0.1-0.2c4.1-5.5,8.2-11.5,12.2-17.9c2-3.2,3.9-6.5,5.7-9.9
					c1.8-3.4,3.6-6.9,5.2-10.5c3.3-7.1,6.1-14.6,8.3-22.3c2.2-7.7,3.6-15.6,4.3-23.4c0.6-7.8,0.4-15.6-0.6-23
					c-1-7.4-2.8-14.4-5.1-20.9c-0.6-1.6-1.2-3.2-1.8-4.7c-0.7-1.5-1.3-3-2-4.5c-0.7-1.5-1.4-2.9-2.1-4.3c-0.7-1.4-1.5-2.7-2.2-4
					c-3-5.2-6-9.9-8.9-13.8c-0.7-1-1.4-1.9-2.1-2.9c-0.7-0.9-1.4-1.8-2.1-2.6c-0.7-0.8-1.3-1.6-1.9-2.4c-0.6-0.7-1.2-1.4-1.8-2.1
					c-1.2-1.3-2.2-2.5-3.1-3.5c-0.9-1-1.7-1.8-2.4-2.5c-1.3-1.4-2-2.1-2-2.1s0.7,0.7,2.1,2c0.7,0.7,1.5,1.5,2.5,2.4
					c1,1,2,2.1,3.2,3.4c0.6,0.6,1.2,1.3,1.9,2c0.6,0.7,1.3,1.5,2,2.3c0.7,0.8,1.4,1.6,2.2,2.5c0.7,0.9,1.5,1.8,2.2,2.8
					c1.6,1.9,3.1,4.1,4.7,6.3c0.8,1.1,1.5,2.3,2.3,3.6c0.4,0.6,0.8,1.2,1.2,1.9c0.4,0.6,0.8,1.3,1.1,1.9c0.7,1.3,1.6,2.6,2.3,4
					c0.7,1.4,1.5,2.8,2.2,4.3c0.7,1.5,1.4,3,2.1,4.5c0.7,1.6,1.3,3.2,1.9,4.8c2.5,6.5,4.5,13.7,5.6,21.2c1.1,7.6,1.4,15.5,0.8,23.5
					c-0.7,8-2.1,16-4.3,23.9c-2.2,7.8-5.1,15.4-8.5,22.7c-3.4,7.2-7.2,14.1-11.3,20.5c-4,6.4-8.3,12.4-12.6,17.9"/>
			</g>
		</g>
		<g>
			<g>
				<path class="st4" d="M74.8,36.1c-4.1-2.3-5.6-4.5-5.6-4.5c-16-22.3-23.3-16.2-23.3-16.2c-8.5,8.4,7.6,18.2,7.6,18.2
					c4.3,4.4,8.1,8.8,11.6,13.4C66.1,44.1,68.6,40,74.8,36.1"/>
			</g>
		</g>
		<g>
			<g>
				<path class="st5" d="M143.9,175.6c-2.2,27.3-9.1,45.6-19.9,62.7h14.4c28.4-44,25.1-88,25.1-88c-1-84-73.7-110-73.7-110
					C158.6,94.2,143.9,175.6,143.9,175.6z"/>
			</g>
		</g>
	</g>
	<g>
		<g>
			<path class="st4" d="M113.8,119.4c-0.6,0-1.1-0.5-1.1-1.1c0-6.1-5-11.1-11.1-11.1c-6.1,0-11.1,5-11.1,11.1c0,0.6-0.5,1.1-1.1,1.1
				c-0.6,0-1.1-0.5-1.1-1.1c0-7.4,6-13.4,13.4-13.4c7.4,0,13.4,6,13.4,13.4C114.9,118.9,114.4,119.4,113.8,119.4"/>
		</g>
	</g>
	<g>
		<g>
			<path class="st4" d="M158.6,119.4c-0.6,0-1.1-0.5-1.1-1.1c0-6.1-5-11.1-11.1-11.1c-6.1,0-11.2,5-11.2,11.1c0,0.6-0.5,1.1-1.1,1.1
				c-0.6,0-1.1-0.5-1.1-1.1c0-7.4,6-13.4,13.4-13.4c7.4,0,13.4,6,13.4,13.4C159.7,118.9,159.2,119.4,158.6,119.4"/>
		</g>
	</g>
	<g>
		<g>
			<path class="st0" d="M148,154.8c0,2.6-0.4,5.2-1.2,7.5c-0.9,2.7-2.2,5.3-3.9,7.5c-4.6,6-11.8,9.9-19.9,9.9
				c-8.1,0-15.4-3.9-19.9-9.9c-1.7-2.2-3-4.8-3.9-7.5c-0.7-2.4-1.2-4.9-1.2-7.5H148z"/>
		</g>
	</g>
	<g>
		<g>
			<path class="st4" d="M123,180.2c-8.3,0-15.9-3.8-20.9-10.4c-1.8-2.4-3.2-5-4.1-7.9c-0.8-2.5-1.2-5.2-1.2-7.9v-1.1h52.3v1.1
				c0,2.7-0.4,5.3-1.2,7.9c-0.9,2.8-2.3,5.5-4.1,7.9C138.9,176.4,131.3,180.2,123,180.2 M99.2,155.2c0.1,2.1,0.5,4.1,1.1,6.1
				c0.8,2.6,2.1,5,3.7,7.2c4.6,6,11.5,9.5,19,9.5c7.5,0,14.5-3.5,19-9.5c1.6-2.2,2.9-4.6,3.7-7.2c0.6-2,1-4,1.1-6.1H99.2z"/>
		</g>
	</g>
	<g>
		<g>
			<path class="st4" d="M123,168.4h-21.7c-0.6,0-1.1-0.5-1.1-1.1c0-0.6,0.5-1.1,1.1-1.1H123c0.6,0,1.1,0.5,1.1,1.1
				C124.1,167.9,123.6,168.4,123,168.4"/>
		</g>
	</g>
	<g>
		<g>
			<path class="st4" d="M144.5,167.7H134c-0.6,0-1.1-0.5-1.1-1.1c0-0.6,0.5-1.1,1.1-1.1h10.5c0.6,0,1.1,0.5,1.1,1.1
				C145.6,167.2,145.1,167.7,144.5,167.7"/>
		</g>
	</g>
</g>
</svg>
