<?xml version="1.0" encoding="utf-8"?>
<!-- Generator: Adobe Illustrator 22.0.1, SVG Export Plug-In . SVG Version: 6.00 Build 0)  -->
<svg version="1.1" id="Layer_1" xmlns="http://www.w3.org/2000/svg" xmlns:xlink="http://www.w3.org/1999/xlink" x="0px" y="0px"
	 viewBox="0 0 90 80.2" style="enable-background:new 0 0 90 80.2;" xml:space="preserve">
<style type="text/css">
	.st0{fill:none;stroke:#AFB0B8;stroke-width:3;stroke-linecap:round;stroke-linejoin:round;stroke-miterlimit:10;}
	.st1{fill:#AFB0B8;stroke:#AFB0B8;stroke-linecap:round;stroke-linejoin:round;stroke-miterlimit:10;}
	.st2{fill:#AFB0B8;stroke:#AFB0B8;stroke-width:3;stroke-linecap:round;stroke-linejoin:round;stroke-miterlimit:10;}
	.st3{fill:#AFB0B8;}
	.st4{fill:#FFFFFF;stroke:#FFB920;stroke-width:3;stroke-miterlimit:10;}
	.st5{fill:none;stroke:#FFB920;stroke-width:3;stroke-miterlimit:10;}
	.st6{fill:#FFFFFF;stroke:#FFB920;stroke-width:3;stroke-linecap:round;stroke-linejoin:round;stroke-miterlimit:10;}
	.st7{fill:#FFB920;stroke:#FFB920;stroke-miterlimit:10;}
	.st8{fill:none;stroke:#FFB920;stroke-width:3;stroke-linecap:round;stroke-linejoin:round;stroke-miterlimit:10;}
	.st9{fill:#FFB920;stroke:#FFB920;stroke-width:3;stroke-miterlimit:10;}
	.st10{fill:#FFB920;}
</style>
<path class="st0" d="M62.9,15.5h8.3c0.2,0,0.3,0.1,0.3,0.3v52.5c0,0.2-0.1,0.3-0.3,0.3H18.7c-0.2,0-0.3-0.1-0.3-0.3V15.8
	c0-0.2,0.1-0.3,0.3-0.3h8.3"/>
<line class="st0" x1="34.4" y1="15.5" x2="55.3" y2="15.5"/>
<path class="st0" d="M34.1,19.4h-6.7c-0.2,0-0.3-0.1-0.3-0.3v-7.2c0-0.2,0.1-0.3,0.3-0.3h6.7c0.2,0,0.3,0.1,0.3,0.3v7.2
	C34.4,19.3,34.3,19.4,34.1,19.4z"/>
<path class="st0" d="M62.6,19.4h-6.7c-0.2,0-0.3-0.1-0.3-0.3v-7.2c0-0.2,0.1-0.3,0.3-0.3h6.7c0.2,0,0.3,0.1,0.3,0.3v7.2
	C62.9,19.3,62.8,19.4,62.6,19.4z"/>
<line class="st0" x1="18.4" y1="23.8" x2="71.6" y2="23.8"/>
<polyline class="st0" points="32.2,45.2 39.7,52.6 57.8,34.5 "/>
</svg>
