<?xml version="1.0" encoding="utf-8"?>
<!-- Generator: Adobe Illustrator 22.0.1, SVG Export Plug-In . SVG Version: 6.00 Build 0)  -->
<svg version="1.1" id="Layer_1" xmlns="http://www.w3.org/2000/svg" xmlns:xlink="http://www.w3.org/1999/xlink" x="0px" y="0px"
	 viewBox="0 0 90 80.2" style="enable-background:new 0 0 90 80.2;" xml:space="preserve">
<style type="text/css">
	.st0{fill:none;stroke:#AFB0B8;stroke-width:3;stroke-linecap:round;stroke-linejoin:round;stroke-miterlimit:10;}
	.st1{fill:#AFB0B8;stroke:#AFB0B8;stroke-linecap:round;stroke-linejoin:round;stroke-miterlimit:10;}
	.st2{fill:#AFB0B8;stroke:#AFB0B8;stroke-width:3;stroke-linecap:round;stroke-linejoin:round;stroke-miterlimit:10;}
	.st3{fill:#AFB0B8;}
	.st4{fill:#FFFFFF;stroke:#FFB920;stroke-width:3;stroke-miterlimit:10;}
	.st5{fill:none;stroke:#FFB920;stroke-width:3;stroke-miterlimit:10;}
	.st6{fill:#FFFFFF;stroke:#FFB920;stroke-width:3;stroke-linecap:round;stroke-linejoin:round;stroke-miterlimit:10;}
	.st7{fill:#FFB920;stroke:#FFB920;stroke-miterlimit:10;}
	.st8{fill:none;stroke:#FFB920;stroke-width:3;stroke-linecap:round;stroke-linejoin:round;stroke-miterlimit:10;}
	.st9{fill:#FFB920;stroke:#FFB920;stroke-width:3;stroke-miterlimit:10;}
	.st10{fill:#FFB920;}
</style>
<path class="st0" d="M16.3,21.8v43.6h57.4V21.8L16.3,21.8z"/>
<path class="st2" d="M40.3,58H24.4c-0.6,0-1.1-0.5-1.1-1.1V30.8c0-0.6,0.5-1.1,1.1-1.1h15.9c0.6,0,1.1,0.5,1.1,1.1v26.1
	C41.4,57.5,40.9,58,40.3,58z"/>
<path class="st0" d="M72.9,22.5H17.1c-0.4,0-0.8-0.4-0.8-0.8v-6.1c0-0.4,0.4-0.8,0.8-0.8h55.8c0.4,0,0.8,0.4,0.8,0.8v6.1
	C73.7,22.1,73.3,22.5,72.9,22.5z"/>
<circle class="st3" cx="20.8" cy="18.3" r="0.9"/>
<circle class="st3" cx="24.5" cy="18.3" r="0.9"/>
<circle class="st3" cx="28.2" cy="18.3" r="0.9"/>
<line class="st0" x1="47.9" y1="29.7" x2="68.1" y2="29.7"/>
<line class="st0" x1="47.9" y1="39.1" x2="68.1" y2="39.1"/>
<line class="st0" x1="47.9" y1="48.6" x2="68.1" y2="48.6"/>
<line class="st0" x1="47.9" y1="58" x2="68.1" y2="58"/>
</svg>
