<?xml version="1.0" encoding="utf-8"?>
<!-- Generator: Adobe Illustrator 22.0.1, SVG Export Plug-In . SVG Version: 6.00 Build 0)  -->
<svg version="1.1" id="Layer_1" xmlns="http://www.w3.org/2000/svg" xmlns:xlink="http://www.w3.org/1999/xlink" x="0px" y="0px"
	 viewBox="0 0 100.3 100.3" style="enable-background:new 0 0 100.3 100.3;" xml:space="preserve">
<style type="text/css">
	.st0{fill:none;stroke:#000000;stroke-width:2;stroke-miterlimit:10;}
	.st1{fill:none;stroke:#231F20;stroke-width:2;stroke-miterlimit:10;}
	.st2{fill:#FFFFFF;stroke:#231F20;stroke-width:2;stroke-linecap:round;stroke-linejoin:round;stroke-miterlimit:10;}
	.st3{fill:none;stroke:#231F20;stroke-width:2;stroke-linecap:round;stroke-linejoin:round;stroke-miterlimit:10;}
	.st4{fill:#FFFFFF;stroke:#231F20;stroke-width:2;stroke-miterlimit:10;}
	.st5{fill:#FFFFFF;stroke:#000000;stroke-width:2;stroke-miterlimit:10;}
</style>
<g>
	<path class="st0" d="M80,34.9l-9.7,7.5v-4.5c0-4.1-3.4-7.5-7.5-7.5H22c-4.1,0-7.5,3.4-7.5,7.5v24.7c0,4.1,3.4,7.5,7.5,7.5h40.7
		c4.1,0,7.5-3.4,7.5-7.5v-5l9.7,7.5c2.4,1.8,5.8,0.1,5.8-2.9V37.7C85.8,34.7,82.4,33,80,34.9z"/>
	<g>
		<path class="st1" d="M40,60.5c-0.4,0-0.9-0.1-1.3-0.3c-1-0.5-1.7-1.5-1.7-2.7V42.9c0-1.1,0.6-2.2,1.7-2.7c1-0.5,2.2-0.4,3.1,0.3
			l9.5,7.3c0.7,0.6,1.2,1.4,1.2,2.4s-0.4,1.8-1.2,2.4l-9.5,7.3l0,0C41.3,60.3,40.6,60.5,40,60.5z"/>
	</g>
</g>
</svg>
