<?xml version="1.0" encoding="utf-8"?>
<!-- Generator: Adobe Illustrator 22.0.1, SVG Export Plug-In . SVG Version: 6.00 Build 0)  -->
<svg version="1.1" id="Layer_1" xmlns="http://www.w3.org/2000/svg" xmlns:xlink="http://www.w3.org/1999/xlink" x="0px" y="0px"
	 viewBox="0 0 76.5 74.1" style="enable-background:new 0 0 76.5 74.1;" xml:space="preserve">
<style type="text/css">
	.st0{fill:#4C4F61;}
</style>
<g>
	<circle class="st0" cx="32.4" cy="23.1" r="12.7"/>
	<path class="st0" d="M65,31h-4.9v-4.9c0-1-0.8-1.8-1.8-1.8c-1,0-1.8,0.8-1.8,1.8V31h-4.9c-1,0-1.8,0.8-1.8,1.8c0,1,0.8,1.8,1.8,1.8
		h4.9v4.9c0,1,0.8,1.8,1.8,1.8c1,0,1.8-0.8,1.8-1.8v-4.9H65c1,0,1.8-0.8,1.8-1.8C66.8,31.8,66,31,65,31z"/>
	<path class="st0" d="M9.7,63.8c0-12.5,10.2-22.7,22.7-22.7h0c12.5,0,22.7,10.2,22.7,22.7H9.7z"/>
</g>
</svg>
